<ttFont>
<head>
    <!-- Most of this table will be recalculated by the compiler -->
    <tableVersion value="1.0"/>
    <fontRevision value="5.0"/>
    <checkSumAdjustment value="0x90caa808"/>
    <magicNumber value="0x5f0f3cf5"/>
    <flags value="00000000 00001011"/>
    <unitsPerEm value="2048"/>
    <created value="Sun May 15 08:57:39 2005"/>
    <modified value="Thu Apr 14 15:31:06 2011"/>
    <xMin value="-18"/>
    <yMin value="-1005"/>
    <xMax value="8138"/>
    <yMax value="2290"/>
    <macStyle value="00000000 00000000"/>
    <lowestRecPPEM value="8"/>
    <fontDirectionHint value="2"/>
    <indexToLocFormat value="1"/>
    <glyphDataFormat value="0"/>
  </head>
    <TTGlyph name=".notdef" xMin="142" yMin="226" xMax="842" yMax="1588">
      <contour>
        <pt x="142" y="226" on="1"/>
        <pt x="142" y="1588" on="1"/>
        <pt x="842" y="1588" on="1"/>
        <pt x="842" y="226" on="1"/>
      </contour>
      <contour>
        <pt x="284" y="368" on="1"/>
        <pt x="700" y="368" on="1"/>
        <pt x="700" y="1447" on="1"/>
        <pt x="284" y="1447" on="1"/>
      </contour>
    </TTGlyph>
    <TTGlyph name=".null" xMin="142" yMin="226" xMax="842" yMax="1588">
      <contour>
        <pt x="142" y="226" on="1"/>
        <pt x="142" y="1588" on="1"/>
        <pt x="842" y="1588" on="1"/>
        <pt x="842" y="226" on="1"/>
      </contour>
      <contour>
        <pt x="284" y="368" on="1"/>
        <pt x="700" y="368" on="1"/>
        <pt x="700" y="1447" on="1"/>
        <pt x="284" y="1447" on="1"/>
      </contour>
    </TTGlyph>
    <TTGlyph name="afii57381" xMin="142" yMin="226" xMax="842" yMax="1588">
      <contour>
        <pt x="142" y="226" on="1"/>
        <pt x="142" y="1588" on="1"/>
        <pt x="842" y="1588" on="1"/>
        <pt x="842" y="226" on="1"/>
      </contour>
      <contour>
        <pt x="284" y="368" on="1"/>
        <pt x="700" y="368" on="1"/>
        <pt x="700" y="1447" on="1"/>
        <pt x="284" y="1447" on="1"/>
      </contour>
    </TTGlyph>
    <TTGlyph name="afii57388" xMin="142" yMin="226" xMax="842" yMax="1588">
      <contour>
        <pt x="142" y="226" on="1"/>
        <pt x="142" y="1588" on="1"/>
        <pt x="842" y="1588" on="1"/>
        <pt x="842" y="226" on="1"/>
      </contour>
      <contour>
        <pt x="284" y="368" on="1"/>
        <pt x="700" y="368" on="1"/>
        <pt x="700" y="1447" on="1"/>
        <pt x="284" y="1447" on="1"/>
      </contour>
    </TTGlyph>
    <TTGlyph name="afii57396" xMin="142" yMin="226" xMax="842" yMax="1588">
      <contour>
        <pt x="142" y="226" on="1"/>
        <pt x="142" y="1588" on="1"/>
        <pt x="842" y="1588" on="1"/>
        <pt x="842" y="226" on="1"/>
      </contour>
      <contour>
        <pt x="284" y="368" on="1"/>
        <pt x="700" y="368" on="1"/>
        <pt x="700" y="1447" on="1"/>
        <pt x="284" y="1447" on="1"/>
      </contour>
    </TTGlyph>
    <TTGlyph name="afii57397" xMin="142" yMin="226" xMax="842" yMax="1588">
      <contour>
        <pt x="142" y="226" on="1"/>
        <pt x="142" y="1588" on="1"/>
        <pt x="842" y="1588" on="1"/>
        <pt x="842" y="226" on="1"/>
      </contour>
      <contour>
        <pt x="284" y="368" on="1"/>
        <pt x="700" y="368" on="1"/>
        <pt x="700" y="1447" on="1"/>
        <pt x="284" y="1447" on="1"/>
      </contour>
    </TTGlyph>
    <TTGlyph name="afii57398" xMin="142" yMin="226" xMax="842" yMax="1588">
      <contour>
        <pt x="142" y="226" on="1"/>
        <pt x="142" y="1588" on="1"/>
        <pt x="842" y="1588" on="1"/>
        <pt x="842" y="226" on="1"/>
      </contour>
      <contour>
        <pt x="284" y="368" on="1"/>
        <pt x="700" y="368" on="1"/>
        <pt x="700" y="1447" on="1"/>
        <pt x="284" y="1447" on="1"/>
      </contour>
    </TTGlyph>
    <TTGlyph name="afii57403" xMin="142" yMin="226" xMax="842" yMax="1588">
      <contour>
        <pt x="142" y="226" on="1"/>
        <pt x="142" y="1588" on="1"/>
        <pt x="842" y="1588" on="1"/>
        <pt x="842" y="226" on="1"/>
      </contour>
      <contour>
        <pt x="284" y="368" on="1"/>
        <pt x="700" y="368" on="1"/>
        <pt x="700" y="1447" on="1"/>
        <pt x="284" y="1447" on="1"/>
      </contour>
    </TTGlyph>
    <TTGlyph name="afii57407" xMin="142" yMin="226" xMax="842" yMax="1588">
      <contour>
        <pt x="142" y="226" on="1"/>
        <pt x="142" y="1588" on="1"/>
        <pt x="842" y="1588" on="1"/>
        <pt x="842" y="226" on="1"/>
      </contour>
      <contour>
        <pt x="284" y="368" on="1"/>
        <pt x="700" y="368" on="1"/>
        <pt x="700" y="1447" on="1"/>
        <pt x="284" y="1447" on="1"/>
      </contour>
    </TTGlyph>
    <TTGlyph name="afii57440" xMin="142" yMin="226" xMax="842" yMax="1588">
      <contour>
        <pt x="142" y="226" on="1"/>
        <pt x="142" y="1588" on="1"/>
        <pt x="842" y="1588" on="1"/>
        <pt x="842" y="226" on="1"/>
      </contour>
      <contour>
        <pt x="284" y="368" on="1"/>
        <pt x="700" y="368" on="1"/>
        <pt x="700" y="1447" on="1"/>
        <pt x="284" y="1447" on="1"/>
      </contour>
    </TTGlyph>
    <TTGlyph name="afii57451" xMin="142" yMin="226" xMax="842" yMax="1588">
      <contour>
        <pt x="142" y="226" on="1"/>
        <pt x="142" y="1588" on="1"/>
        <pt x="842" y="1588" on="1"/>
        <pt x="842" y="226" on="1"/>
      </contour>
      <contour>
        <pt x="284" y="368" on="1"/>
        <pt x="700" y="368" on="1"/>
        <pt x="700" y="1447" on="1"/>
        <pt x="284" y="1447" on="1"/>
      </contour>
    </TTGlyph>
    <TTGlyph name="afii57452" xMin="142" yMin="226" xMax="842" yMax="1588">
      <contour>
        <pt x="142" y="226" on="1"/>
        <pt x="142" y="1588" on="1"/>
        <pt x="842" y="1588" on="1"/>
        <pt x="842" y="226" on="1"/>
      </contour>
      <contour>
        <pt x="284" y="368" on="1"/>
        <pt x="700" y="368" on="1"/>
        <pt x="700" y="1447" on="1"/>
        <pt x="284" y="1447" on="1"/>
      </contour>
    </TTGlyph>
    <TTGlyph name="afii57453" xMin="142" yMin="226" xMax="842" yMax="1588">
      <contour>
        <pt x="142" y="226" on="1"/>
        <pt x="142" y="1588" on="1"/>
        <pt x="842" y="1588" on="1"/>
        <pt x="842" y="226" on="1"/>
      </contour>
      <contour>
        <pt x="284" y="368" on="1"/>
        <pt x="700" y="368" on="1"/>
        <pt x="700" y="1447" on="1"/>
        <pt x="284" y="1447" on="1"/>
      </contour>
    </TTGlyph>
    <TTGlyph name="afii57454" xMin="142" yMin="226" xMax="842" yMax="1588">
      <contour>
        <pt x="142" y="226" on="1"/>
        <pt x="142" y="1588" on="1"/>
        <pt x="842" y="1588" on="1"/>
        <pt x="842" y="226" on="1"/>
      </contour>
      <contour>
        <pt x="284" y="368" on="1"/>
        <pt x="700" y="368" on="1"/>
        <pt x="700" y="1447" on="1"/>
        <pt x="284" y="1447" on="1"/>
      </contour>
    </TTGlyph>
    <TTGlyph name="afii57455" xMin="142" yMin="226" xMax="842" yMax="1588">
      <contour>
        <pt x="142" y="226" on="1"/>
        <pt x="142" y="1588" on="1"/>
        <pt x="842" y="1588" on="1"/>
        <pt x="842" y="226" on="1"/>
      </contour>
      <contour>
        <pt x="284" y="368" on="1"/>
        <pt x="700" y="368" on="1"/>
        <pt x="700" y="1447" on="1"/>
        <pt x="284" y="1447" on="1"/>
      </contour>
    </TTGlyph>
    <TTGlyph name="afii57456" xMin="142" yMin="226" xMax="842" yMax="1588">
      <contour>
        <pt x="142" y="226" on="1"/>
        <pt x="142" y="1588" on="1"/>
        <pt x="842" y="1588" on="1"/>
        <pt x="842" y="226" on="1"/>
      </contour>
      <contour>
        <pt x="284" y="368" on="1"/>
        <pt x="700" y="368" on="1"/>
        <pt x="700" y="1447" on="1"/>
        <pt x="284" y="1447" on="1"/>
      </contour>
    </TTGlyph>
    <TTGlyph name="afii57457" xMin="142" yMin="226" xMax="842" yMax="1588">
      <contour>
        <pt x="142" y="226" on="1"/>
        <pt x="142" y="1588" on="1"/>
        <pt x="842" y="1588" on="1"/>
        <pt x="842" y="226" on="1"/>
      </contour>
      <contour>
        <pt x="284" y="368" on="1"/>
        <pt x="700" y="368" on="1"/>
        <pt x="700" y="1447" on="1"/>
        <pt x="284" y="1447" on="1"/>
      </contour>
    </TTGlyph>
    <TTGlyph name="afii57458" xMin="142" yMin="226" xMax="842" yMax="1588">
      <contour>
        <pt x="142" y="226" on="1"/>
        <pt x="142" y="1588" on="1"/>
        <pt x="842" y="1588" on="1"/>
        <pt x="842" y="226" on="1"/>
      </contour>
      <contour>
        <pt x="284" y="368" on="1"/>
        <pt x="700" y="368" on="1"/>
        <pt x="700" y="1447" on="1"/>
        <pt x="284" y="1447" on="1"/>
      </contour>
    </TTGlyph>
    <TTGlyph name="afii57505" xMin="142" yMin="226" xMax="842" yMax="1588">
      <contour>
        <pt x="142" y="226" on="1"/>
        <pt x="142" y="1588" on="1"/>
        <pt x="842" y="1588" on="1"/>
        <pt x="842" y="226" on="1"/>
      </contour>
      <contour>
        <pt x="284" y="368" on="1"/>
        <pt x="700" y="368" on="1"/>
        <pt x="700" y="1447" on="1"/>
        <pt x="284" y="1447" on="1"/>
      </contour>
    </TTGlyph>
    <TTGlyph name="afii57506" xMin="142" yMin="226" xMax="842" yMax="1588">
      <contour>
        <pt x="142" y="226" on="1"/>
        <pt x="142" y="1588" on="1"/>
        <pt x="842" y="1588" on="1"/>
        <pt x="842" y="226" on="1"/>
      </contour>
      <contour>
        <pt x="284" y="368" on="1"/>
        <pt x="700" y="368" on="1"/>
        <pt x="700" y="1447" on="1"/>
        <pt x="284" y="1447" on="1"/>
      </contour>
    </TTGlyph>
    <TTGlyph name="afii57507" xMin="142" yMin="226" xMax="842" yMax="1588">
      <contour>
        <pt x="142" y="226" on="1"/>
        <pt x="142" y="1588" on="1"/>
        <pt x="842" y="1588" on="1"/>
        <pt x="842" y="226" on="1"/>
      </contour>
      <contour>
        <pt x="284" y="368" on="1"/>
        <pt x="700" y="368" on="1"/>
        <pt x="700" y="1447" on="1"/>
        <pt x="284" y="1447" on="1"/>
      </contour>
    </TTGlyph>
    <TTGlyph name="afii57508" xMin="142" yMin="226" xMax="842" yMax="1588">
      <contour>
        <pt x="142" y="226" on="1"/>
        <pt x="142" y="1588" on="1"/>
        <pt x="842" y="1588" on="1"/>
        <pt x="842" y="226" on="1"/>
      </contour>
      <contour>
        <pt x="284" y="368" on="1"/>
        <pt x="700" y="368" on="1"/>
        <pt x="700" y="1447" on="1"/>
        <pt x="284" y="1447" on="1"/>
      </contour>
    </TTGlyph>
    <TTGlyph name="afii57509" xMin="142" yMin="226" xMax="842" yMax="1588">
      <contour>
        <pt x="142" y="226" on="1"/>
        <pt x="142" y="1588" on="1"/>
        <pt x="842" y="1588" on="1"/>
        <pt x="842" y="226" on="1"/>
      </contour>
      <contour>
        <pt x="284" y="368" on="1"/>
        <pt x="700" y="368" on="1"/>
        <pt x="700" y="1447" on="1"/>
        <pt x="284" y="1447" on="1"/>
      </contour>
    </TTGlyph>
    <TTGlyph name="afii57511" xMin="142" yMin="226" xMax="842" yMax="1588">
      <contour>
        <pt x="142" y="226" on="1"/>
        <pt x="142" y="1588" on="1"/>
        <pt x="842" y="1588" on="1"/>
        <pt x="842" y="226" on="1"/>
      </contour>
      <contour>
        <pt x="284" y="368" on="1"/>
        <pt x="700" y="368" on="1"/>
        <pt x="700" y="1447" on="1"/>
        <pt x="284" y="1447" on="1"/>
      </contour>
    </TTGlyph>
    <TTGlyph name="afii57512" xMin="142" yMin="226" xMax="842" yMax="1588">
      <contour>
        <pt x="142" y="226" on="1"/>
        <pt x="142" y="1588" on="1"/>
        <pt x="842" y="1588" on="1"/>
        <pt x="842" y="226" on="1"/>
      </contour>
      <contour>
        <pt x="284" y="368" on="1"/>
        <pt x="700" y="368" on="1"/>
        <pt x="700" y="1447" on="1"/>
        <pt x="284" y="1447" on="1"/>
      </contour>
    </TTGlyph>
    <TTGlyph name="afii57513" xMin="142" yMin="226" xMax="842" yMax="1588">
      <contour>
        <pt x="142" y="226" on="1"/>
        <pt x="142" y="1588" on="1"/>
        <pt x="842" y="1588" on="1"/>
        <pt x="842" y="226" on="1"/>
      </contour>
      <contour>
        <pt x="284" y="368" on="1"/>
        <pt x="700" y="368" on="1"/>
        <pt x="700" y="1447" on="1"/>
        <pt x="284" y="1447" on="1"/>
      </contour>
    </TTGlyph>
    <TTGlyph name="afii57514" xMin="142" yMin="226" xMax="842" yMax="1588">
      <contour>
        <pt x="142" y="226" on="1"/>
        <pt x="142" y="1588" on="1"/>
        <pt x="842" y="1588" on="1"/>
        <pt x="842" y="226" on="1"/>
      </contour>
      <contour>
        <pt x="284" y="368" on="1"/>
        <pt x="700" y="368" on="1"/>
        <pt x="700" y="1447" on="1"/>
        <pt x="284" y="1447" on="1"/>
      </contour>
    </TTGlyph>
    <TTGlyph name="afii57519" xMin="142" yMin="226" xMax="842" yMax="1588">
      <contour>
        <pt x="142" y="226" on="1"/>
        <pt x="142" y="1588" on="1"/>
        <pt x="842" y="1588" on="1"/>
        <pt x="842" y="226" on="1"/>
      </contour>
      <contour>
        <pt x="284" y="368" on="1"/>
        <pt x="700" y="368" on="1"/>
        <pt x="700" y="1447" on="1"/>
        <pt x="284" y="1447" on="1"/>
      </contour>
    </TTGlyph>
    <TTGlyph name="afii57534" xMin="142" yMin="226" xMax="842" yMax="1588">
      <contour>
        <pt x="142" y="226" on="1"/>
        <pt x="142" y="1588" on="1"/>
        <pt x="842" y="1588" on="1"/>
        <pt x="842" y="226" on="1"/>
      </contour>
      <contour>
        <pt x="284" y="368" on="1"/>
        <pt x="700" y="368" on="1"/>
        <pt x="700" y="1447" on="1"/>
        <pt x="284" y="1447" on="1"/>
      </contour>
    </TTGlyph>
    <TTGlyph name="afii63167" xMin="142" yMin="226" xMax="842" yMax="1588">
      <contour>
        <pt x="142" y="226" on="1"/>
        <pt x="142" y="1588" on="1"/>
        <pt x="842" y="1588" on="1"/>
        <pt x="842" y="226" on="1"/>
      </contour>
      <contour>
        <pt x="284" y="368" on="1"/>
        <pt x="700" y="368" on="1"/>
        <pt x="700" y="1447" on="1"/>
        <pt x="284" y="1447" on="1"/>
      </contour>
    </TTGlyph>
    <TTGlyph name="alefmaksurainitial" xMin="142" yMin="226" xMax="842" yMax="1588">
      <contour>
        <pt x="142" y="226" on="1"/>
        <pt x="142" y="1588" on="1"/>
        <pt x="842" y="1588" on="1"/>
        <pt x="842" y="226" on="1"/>
      </contour>
      <contour>
        <pt x="284" y="368" on="1"/>
        <pt x="700" y="368" on="1"/>
        <pt x="700" y="1447" on="1"/>
        <pt x="284" y="1447" on="1"/>
      </contour>
    </TTGlyph>
    <TTGlyph name="alefwaslafinalarabic" xMin="142" yMin="226" xMax="842" yMax="1588">
      <contour>
        <pt x="142" y="226" on="1"/>
        <pt x="142" y="1588" on="1"/>
        <pt x="842" y="1588" on="1"/>
        <pt x="842" y="226" on="1"/>
      </contour>
      <contour>
        <pt x="284" y="368" on="1"/>
        <pt x="700" y="368" on="1"/>
        <pt x="700" y="1447" on="1"/>
        <pt x="284" y="1447" on="1"/>
      </contour>
    </TTGlyph>
    <TTGlyph name="ampersand" xMin="142" yMin="226" xMax="842" yMax="1588">
      <contour>
        <pt x="142" y="226" on="1"/>
        <pt x="142" y="1588" on="1"/>
        <pt x="842" y="1588" on="1"/>
        <pt x="842" y="226" on="1"/>
      </contour>
      <contour>
        <pt x="284" y="368" on="1"/>
        <pt x="700" y="368" on="1"/>
        <pt x="700" y="1447" on="1"/>
        <pt x="284" y="1447" on="1"/>
      </contour>
    </TTGlyph>
    <TTGlyph name="asterisk" xMin="142" yMin="226" xMax="842" yMax="1588">
      <contour>
        <pt x="142" y="226" on="1"/>
        <pt x="142" y="1588" on="1"/>
        <pt x="842" y="1588" on="1"/>
        <pt x="842" y="226" on="1"/>
      </contour>
      <contour>
        <pt x="284" y="368" on="1"/>
        <pt x="700" y="368" on="1"/>
        <pt x="700" y="1447" on="1"/>
        <pt x="284" y="1447" on="1"/>
      </contour>
    </TTGlyph>
    <TTGlyph name="behmeemisolatedarabic" xMin="142" yMin="226" xMax="842" yMax="1588">
      <contour>
        <pt x="142" y="226" on="1"/>
        <pt x="142" y="1588" on="1"/>
        <pt x="842" y="1588" on="1"/>
        <pt x="842" y="226" on="1"/>
      </contour>
      <contour>
        <pt x="284" y="368" on="1"/>
        <pt x="700" y="368" on="1"/>
        <pt x="700" y="1447" on="1"/>
        <pt x="284" y="1447" on="1"/>
      </contour>
    </TTGlyph>
    <TTGlyph name="behnoonfinalarabic" xMin="142" yMin="226" xMax="842" yMax="1588">
      <contour>
        <pt x="142" y="226" on="1"/>
        <pt x="142" y="1588" on="1"/>
        <pt x="842" y="1588" on="1"/>
        <pt x="842" y="226" on="1"/>
      </contour>
      <contour>
        <pt x="284" y="368" on="1"/>
        <pt x="700" y="368" on="1"/>
        <pt x="700" y="1447" on="1"/>
        <pt x="284" y="1447" on="1"/>
      </contour>
    </TTGlyph>
    <TTGlyph name="colon" xMin="142" yMin="226" xMax="842" yMax="1588">
      <contour>
        <pt x="142" y="226" on="1"/>
        <pt x="142" y="1588" on="1"/>
        <pt x="842" y="1588" on="1"/>
        <pt x="842" y="226" on="1"/>
      </contour>
      <contour>
        <pt x="284" y="368" on="1"/>
        <pt x="700" y="368" on="1"/>
        <pt x="700" y="1447" on="1"/>
        <pt x="284" y="1447" on="1"/>
      </contour>
    </TTGlyph>
    <TTGlyph name="dagger" xMin="142" yMin="226" xMax="842" yMax="1588">
      <contour>
        <pt x="142" y="226" on="1"/>
        <pt x="142" y="1588" on="1"/>
        <pt x="842" y="1588" on="1"/>
        <pt x="842" y="226" on="1"/>
      </contour>
      <contour>
        <pt x="284" y="368" on="1"/>
        <pt x="700" y="368" on="1"/>
        <pt x="700" y="1447" on="1"/>
        <pt x="284" y="1447" on="1"/>
      </contour>
    </TTGlyph>
    <TTGlyph name="dalringfinal" xMin="142" yMin="226" xMax="842" yMax="1588">
      <contour>
        <pt x="142" y="226" on="1"/>
        <pt x="142" y="1588" on="1"/>
        <pt x="842" y="1588" on="1"/>
        <pt x="842" y="226" on="1"/>
      </contour>
      <contour>
        <pt x="284" y="368" on="1"/>
        <pt x="700" y="368" on="1"/>
        <pt x="700" y="1447" on="1"/>
        <pt x="284" y="1447" on="1"/>
      </contour>
    </TTGlyph>
    <TTGlyph name="ddalfinalarabic" xMin="142" yMin="226" xMax="842" yMax="1588">
      <contour>
        <pt x="142" y="226" on="1"/>
        <pt x="142" y="1588" on="1"/>
        <pt x="842" y="1588" on="1"/>
        <pt x="842" y="226" on="1"/>
      </contour>
      <contour>
        <pt x="284" y="368" on="1"/>
        <pt x="700" y="368" on="1"/>
        <pt x="700" y="1447" on="1"/>
        <pt x="284" y="1447" on="1"/>
      </contour>
    </TTGlyph>
    <TTGlyph name="divide" xMin="142" yMin="226" xMax="842" yMax="1588">
      <contour>
        <pt x="142" y="226" on="1"/>
        <pt x="142" y="1588" on="1"/>
        <pt x="842" y="1588" on="1"/>
        <pt x="842" y="226" on="1"/>
      </contour>
      <contour>
        <pt x="284" y="368" on="1"/>
        <pt x="700" y="368" on="1"/>
        <pt x="700" y="1447" on="1"/>
        <pt x="284" y="1447" on="1"/>
      </contour>
    </TTGlyph>
    <TTGlyph name="dollar" xMin="142" yMin="226" xMax="842" yMax="1588">
      <contour>
        <pt x="142" y="226" on="1"/>
        <pt x="142" y="1588" on="1"/>
        <pt x="842" y="1588" on="1"/>
        <pt x="842" y="226" on="1"/>
      </contour>
      <contour>
        <pt x="284" y="368" on="1"/>
        <pt x="700" y="368" on="1"/>
        <pt x="700" y="1447" on="1"/>
        <pt x="284" y="1447" on="1"/>
      </contour>
    </TTGlyph>
    <TTGlyph name="dotlessyehfinalarabic" xMin="142" yMin="226" xMax="842" yMax="1588">
      <contour>
        <pt x="142" y="226" on="1"/>
        <pt x="142" y="1588" on="1"/>
        <pt x="842" y="1588" on="1"/>
        <pt x="842" y="226" on="1"/>
      </contour>
      <contour>
        <pt x="284" y="368" on="1"/>
        <pt x="700" y="368" on="1"/>
        <pt x="700" y="1447" on="1"/>
        <pt x="284" y="1447" on="1"/>
      </contour>
    </TTGlyph>
    <TTGlyph name="dotlessyehinitialarabic" xMin="142" yMin="226" xMax="842" yMax="1588">
      <contour>
        <pt x="142" y="226" on="1"/>
        <pt x="142" y="1588" on="1"/>
        <pt x="842" y="1588" on="1"/>
        <pt x="842" y="226" on="1"/>
      </contour>
      <contour>
        <pt x="284" y="368" on="1"/>
        <pt x="700" y="368" on="1"/>
        <pt x="700" y="1447" on="1"/>
        <pt x="284" y="1447" on="1"/>
      </contour>
    </TTGlyph>
    <TTGlyph name="dotlessyehmedialarabic" xMin="142" yMin="226" xMax="842" yMax="1588">
      <contour>
        <pt x="142" y="226" on="1"/>
        <pt x="142" y="1588" on="1"/>
        <pt x="842" y="1588" on="1"/>
        <pt x="842" y="226" on="1"/>
      </contour>
      <contour>
        <pt x="284" y="368" on="1"/>
        <pt x="700" y="368" on="1"/>
        <pt x="700" y="1447" on="1"/>
        <pt x="284" y="1447" on="1"/>
      </contour>
    </TTGlyph>
    <TTGlyph name="elefmaksuramedial" xMin="142" yMin="226" xMax="842" yMax="1588">
      <contour>
        <pt x="142" y="226" on="1"/>
        <pt x="142" y="1588" on="1"/>
        <pt x="842" y="1588" on="1"/>
        <pt x="842" y="226" on="1"/>
      </contour>
      <contour>
        <pt x="284" y="368" on="1"/>
        <pt x="700" y="368" on="1"/>
        <pt x="700" y="1447" on="1"/>
        <pt x="284" y="1447" on="1"/>
      </contour>
    </TTGlyph>
    <TTGlyph name="ellipsis" xMin="142" yMin="226" xMax="842" yMax="1588">
      <contour>
        <pt x="142" y="226" on="1"/>
        <pt x="142" y="1588" on="1"/>
        <pt x="842" y="1588" on="1"/>
        <pt x="842" y="226" on="1"/>
      </contour>
      <contour>
        <pt x="284" y="368" on="1"/>
        <pt x="700" y="368" on="1"/>
        <pt x="700" y="1447" on="1"/>
        <pt x="284" y="1447" on="1"/>
      </contour>
    </TTGlyph>
    <TTGlyph name="emdash" xMin="175" yMin="-434" xMax="2223" yMax="1214">
      <contour>
        <pt x="2027" y="1132" on="1"/>
        <pt x="2027" y="1052" on="0"/>
        <pt x="1978" y="1021" on="1"/>
        <pt x="1917" y="983" on="0"/>
        <pt x="1788" y="948" on="1"/>
        <pt x="1677" y="918" on="0"/>
        <pt x="1642" y="918" on="1"/>
        <pt x="1606" y="918" on="0"/>
        <pt x="1576" y="961" on="1"/>
        <pt x="1550" y="996" on="0"/>
        <pt x="1550" y="1009" on="1"/>
        <pt x="1550" y="1033" on="0"/>
        <pt x="1579" y="1071" on="1"/>
        <pt x="1610" y="1112" on="0"/>
        <pt x="1639" y="1111" on="1"/>
        <pt x="1639" y="1088" on="0"/>
        <pt x="1643" y="1045" on="0"/>
        <pt x="1683" y="1030" on="1"/>
        <pt x="1754" y="1049" on="0"/>
        <pt x="1756" y="1145" on="0"/>
        <pt x="1812" y="1163" on="1"/>
        <pt x="1841" y="1144" on="0"/>
        <pt x="1869" y="1081" on="1"/>
        <pt x="1913" y="1088" on="0"/>
        <pt x="1927" y="1141" on="1"/>
        <pt x="1941" y="1200" on="0"/>
        <pt x="1979" y="1214" on="1"/>
        <pt x="2027" y="1172" on="0"/>
      </contour>
      <contour>
        <pt x="2223" y="-167" on="1"/>
        <pt x="2223" y="-216" on="0"/>
        <pt x="2178" y="-236" on="1"/>
        <pt x="2049" y="-294" on="0"/>
        <pt x="1849" y="-365" on="1"/>
        <pt x="1653" y="-434" on="0"/>
        <pt x="1625" y="-434" on="1"/>
        <pt x="1554" y="-434" on="1"/>
        <pt x="1536" y="-420" on="0"/>
        <pt x="1536" y="-403" on="1"/>
        <pt x="1536" y="-356" on="0"/>
        <pt x="1597" y="-335" on="1"/>
        <pt x="1787" y="-272" on="0"/>
        <pt x="2160" y="-137" on="1"/>
        <pt x="2205" y="-137" on="1"/>
        <pt x="2223" y="-150" on="0"/>
      </contour>
      <contour>
        <pt x="764" y="528" on="1"/>
        <pt x="764" y="494" on="0"/>
        <pt x="714" y="458" on="1"/>
        <pt x="668" y="426" on="0"/>
        <pt x="644" y="426" on="1"/>
        <pt x="612" y="426" on="0"/>
        <pt x="557" y="455" on="1"/>
        <pt x="497" y="487" on="0"/>
        <pt x="497" y="513" on="1"/>
        <pt x="553" y="620" on="0"/>
        <pt x="603" y="620" on="1"/>
        <pt x="647" y="620" on="0"/>
        <pt x="764" y="555" on="0"/>
      </contour>
      <contour>
        <pt x="2139" y="257" on="1"/>
        <pt x="2139" y="209" on="0"/>
        <pt x="2052" y="132" on="1"/>
        <pt x="2035" y="132" on="0"/>
        <pt x="1941" y="119" on="0"/>
        <pt x="1923" y="119" on="1"/>
        <pt x="1905" y="119" on="0"/>
        <pt x="1666" y="180" on="0"/>
        <pt x="1649" y="180" on="1"/>
        <pt x="1627" y="180" on="0"/>
        <pt x="1572" y="121" on="1"/>
        <pt x="1531" y="77" on="0"/>
        <pt x="1435" y="44" on="1"/>
        <pt x="1347" y="14" on="0"/>
        <pt x="1280" y="13" on="1"/>
        <pt x="1258" y="-11" on="0"/>
        <pt x="1232" y="-100" on="1"/>
        <pt x="1209" y="-181" on="0"/>
        <pt x="1150" y="-225" on="1"/>
        <pt x="943" y="-383" on="0"/>
        <pt x="588" y="-383" on="1"/>
        <pt x="407" y="-383" on="0"/>
        <pt x="296" y="-321" on="1"/>
        <pt x="175" y="-254" on="0"/>
        <pt x="175" y="-126" on="1"/>
        <pt x="175" y="-40" on="0"/>
        <pt x="246" y="60" on="1"/>
        <pt x="323" y="167" on="0"/>
        <pt x="420" y="201" on="1"/>
        <pt x="456" y="175" on="1"/>
        <pt x="315" y="-4" on="0"/>
        <pt x="315" y="-45" on="1"/>
        <pt x="315" y="-219" on="0"/>
        <pt x="638" y="-219" on="1"/>
        <pt x="749" y="-219" on="0"/>
        <pt x="908" y="-184" on="1"/>
        <pt x="1129" y="-135" on="0"/>
        <pt x="1129" y="-55" on="1"/>
        <pt x="1129" y="0" on="0"/>
        <pt x="1082" y="81" on="1"/>
        <pt x="1048" y="116" on="0"/>
        <pt x="992" y="183" on="1"/>
        <pt x="988" y="189" on="0"/>
        <pt x="988" y="231" on="1"/>
        <pt x="988" y="283" on="0"/>
        <pt x="1035" y="333" on="1"/>
        <pt x="1084" y="333" on="1"/>
        <pt x="1133" y="276" on="0"/>
        <pt x="1184" y="220" on="1"/>
        <pt x="1221" y="180" on="0"/>
        <pt x="1318" y="180" on="1"/>
        <pt x="1495" y="180" on="0"/>
        <pt x="1625" y="351" on="1"/>
        <pt x="1721" y="478" on="0"/>
        <pt x="1849" y="544" on="1"/>
        <pt x="1902" y="559" on="0"/>
        <pt x="1908" y="559" on="1"/>
        <pt x="1979" y="559" on="0"/>
        <pt x="2008" y="515" on="1"/>
        <pt x="2139" y="306" on="0"/>
      </contour>
      <contour>
        <pt x="1930" y="307" on="1"/>
        <pt x="1905" y="341" on="0"/>
        <pt x="1836" y="395" on="1"/>
        <pt x="1821" y="383" on="0"/>
        <pt x="1779" y="342" on="0"/>
        <pt x="1775" y="339" on="1"/>
        <pt x="1838" y="292" on="0"/>
        <pt x="1880" y="292" on="1"/>
        <pt x="1909" y="292" on="0"/>
      </contour>
    </TTGlyph>
    <TTGlyph name="endash" xMin="175" yMin="-434" xMax="1199" yMax="1214">
      <contour>
        <pt x="1101" y="1132" on="1"/>
        <pt x="1101" y="1052" on="0"/>
        <pt x="1076" y="1021" on="1"/>
        <pt x="1046" y="983" on="0"/>
        <pt x="982" y="948" on="1"/>
        <pt x="926" y="918" on="0"/>
        <pt x="908" y="918" on="1"/>
        <pt x="891" y="918" on="0"/>
        <pt x="875" y="961" on="1"/>
        <pt x="862" y="996" on="0"/>
        <pt x="862" y="1009" on="1"/>
        <pt x="862" y="1033" on="0"/>
        <pt x="877" y="1071" on="1"/>
        <pt x="893" y="1112" on="0"/>
        <pt x="907" y="1111" on="1"/>
        <pt x="907" y="1088" on="0"/>
        <pt x="909" y="1045" on="0"/>
        <pt x="929" y="1030" on="1"/>
        <pt x="965" y="1049" on="0"/>
        <pt x="965" y="1145" on="0"/>
        <pt x="993" y="1163" on="1"/>
        <pt x="1008" y="1144" on="0"/>
        <pt x="1022" y="1081" on="1"/>
        <pt x="1044" y="1088" on="0"/>
        <pt x="1051" y="1141" on="1"/>
        <pt x="1058" y="1200" on="0"/>
        <pt x="1077" y="1214" on="1"/>
        <pt x="1101" y="1172" on="0"/>
      </contour>
      <contour>
        <pt x="1199" y="-167" on="1"/>
        <pt x="1199" y="-216" on="0"/>
        <pt x="1176" y="-236" on="1"/>
        <pt x="1112" y="-294" on="0"/>
        <pt x="1012" y="-365" on="1"/>
        <pt x="914" y="-434" on="0"/>
        <pt x="900" y="-434" on="1"/>
        <pt x="865" y="-434" on="1"/>
        <pt x="856" y="-420" on="0"/>
        <pt x="856" y="-403" on="1"/>
        <pt x="856" y="-356" on="0"/>
        <pt x="886" y="-335" on="1"/>
        <pt x="981" y="-272" on="0"/>
        <pt x="1167" y="-137" on="1"/>
        <pt x="1190" y="-137" on="1"/>
        <pt x="1199" y="-150" on="0"/>
      </contour>
      <contour>
        <pt x="470" y="528" on="1"/>
        <pt x="470" y="494" on="0"/>
        <pt x="444" y="458" on="1"/>
        <pt x="422" y="426" on="0"/>
        <pt x="409" y="426" on="1"/>
        <pt x="394" y="426" on="0"/>
        <pt x="366" y="455" on="1"/>
        <pt x="336" y="487" on="0"/>
        <pt x="336" y="513" on="1"/>
        <pt x="364" y="620" on="0"/>
        <pt x="389" y="620" on="1"/>
        <pt x="411" y="620" on="0"/>
        <pt x="470" y="555" on="0"/>
      </contour>
      <contour>
        <pt x="1157" y="257" on="1"/>
        <pt x="1157" y="209" on="0"/>
        <pt x="1113" y="132" on="1"/>
        <pt x="1105" y="132" on="0"/>
        <pt x="1058" y="119" on="0"/>
        <pt x="1049" y="119" on="1"/>
        <pt x="1040" y="119" on="0"/>
        <pt x="921" y="180" on="0"/>
        <pt x="912" y="180" on="1"/>
        <pt x="901" y="180" on="0"/>
        <pt x="873" y="121" on="1"/>
        <pt x="853" y="77" on="0"/>
        <pt x="805" y="44" on="1"/>
        <pt x="761" y="14" on="0"/>
        <pt x="727" y="13" on="1"/>
        <pt x="716" y="-11" on="0"/>
        <pt x="703" y="-100" on="1"/>
        <pt x="692" y="-181" on="0"/>
        <pt x="662" y="-225" on="1"/>
        <pt x="559" y="-383" on="0"/>
        <pt x="381" y="-383" on="1"/>
        <pt x="291" y="-383" on="0"/>
        <pt x="235" y="-321" on="1"/>
        <pt x="175" y="-254" on="0"/>
        <pt x="175" y="-126" on="1"/>
        <pt x="175" y="-40" on="0"/>
        <pt x="211" y="60" on="1"/>
        <pt x="249" y="167" on="0"/>
        <pt x="298" y="201" on="1"/>
        <pt x="316" y="175" on="1"/>
        <pt x="245" y="-4" on="0"/>
        <pt x="245" y="-45" on="1"/>
        <pt x="245" y="-219" on="0"/>
        <pt x="407" y="-219" on="1"/>
        <pt x="462" y="-219" on="0"/>
        <pt x="542" y="-184" on="1"/>
        <pt x="652" y="-135" on="0"/>
        <pt x="652" y="-55" on="1"/>
        <pt x="652" y="0" on="0"/>
        <pt x="629" y="81" on="1"/>
        <pt x="612" y="116" on="0"/>
        <pt x="584" y="183" on="1"/>
        <pt x="581" y="189" on="0"/>
        <pt x="581" y="231" on="1"/>
        <pt x="581" y="283" on="0"/>
        <pt x="605" y="333" on="1"/>
        <pt x="629" y="333" on="1"/>
        <pt x="654" y="276" on="0"/>
        <pt x="679" y="220" on="1"/>
        <pt x="698" y="180" on="0"/>
        <pt x="747" y="180" on="1"/>
        <pt x="835" y="180" on="0"/>
        <pt x="900" y="351" on="1"/>
        <pt x="948" y="478" on="0"/>
        <pt x="1012" y="544" on="1"/>
        <pt x="1039" y="559" on="0"/>
        <pt x="1041" y="559" on="1"/>
        <pt x="1077" y="559" on="0"/>
        <pt x="1091" y="515" on="1"/>
        <pt x="1157" y="306" on="0"/>
      </contour>
      <contour>
        <pt x="1052" y="307" on="1"/>
        <pt x="1040" y="341" on="0"/>
        <pt x="1006" y="395" on="1"/>
        <pt x="998" y="383" on="0"/>
        <pt x="977" y="342" on="0"/>
        <pt x="975" y="339" on="1"/>
        <pt x="1006" y="292" on="0"/>
        <pt x="1028" y="292" on="1"/>
        <pt x="1042" y="292" on="0"/>
      </contour>
    </TTGlyph>
    <TTGlyph name="equal" xMin="142" yMin="226" xMax="842" yMax="1588">
      <contour>
        <pt x="142" y="226" on="1"/>
        <pt x="142" y="1588" on="1"/>
        <pt x="842" y="1588" on="1"/>
        <pt x="842" y="226" on="1"/>
      </contour>
      <contour>
        <pt x="284" y="368" on="1"/>
        <pt x="700" y="368" on="1"/>
        <pt x="700" y="1447" on="1"/>
        <pt x="284" y="1447" on="1"/>
      </contour>
    </TTGlyph>
    <TTGlyph name="exclam" xMin="142" yMin="226" xMax="842" yMax="1588">
      <contour>
        <pt x="142" y="226" on="1"/>
        <pt x="142" y="1588" on="1"/>
        <pt x="842" y="1588" on="1"/>
        <pt x="842" y="226" on="1"/>
      </contour>
      <contour>
        <pt x="284" y="368" on="1"/>
        <pt x="700" y="368" on="1"/>
        <pt x="700" y="1447" on="1"/>
        <pt x="284" y="1447" on="1"/>
      </contour>
    </TTGlyph>
    <TTGlyph name="figuredash" xMin="175" yMin="-434" xMax="1669" yMax="1214">
      <contour>
        <pt x="1526" y="1132" on="1"/>
        <pt x="1526" y="1052" on="0"/>
        <pt x="1490" y="1021" on="1"/>
        <pt x="1446" y="983" on="0"/>
        <pt x="1352" y="948" on="1"/>
        <pt x="1271" y="918" on="0"/>
        <pt x="1245" y="918" on="1"/>
        <pt x="1219" y="918" on="0"/>
        <pt x="1197" y="961" on="1"/>
        <pt x="1178" y="996" on="0"/>
        <pt x="1178" y="1009" on="1"/>
        <pt x="1178" y="1033" on="0"/>
        <pt x="1199" y="1071" on="1"/>
        <pt x="1222" y="1112" on="0"/>
        <pt x="1243" y="1111" on="1"/>
        <pt x="1243" y="1088" on="0"/>
        <pt x="1246" y="1045" on="0"/>
        <pt x="1275" y="1030" on="1"/>
        <pt x="1327" y="1049" on="0"/>
        <pt x="1328" y="1145" on="0"/>
        <pt x="1369" y="1163" on="1"/>
        <pt x="1390" y="1144" on="0"/>
        <pt x="1411" y="1081" on="1"/>
        <pt x="1443" y="1088" on="0"/>
        <pt x="1453" y="1141" on="1"/>
        <pt x="1463" y="1200" on="0"/>
        <pt x="1491" y="1214" on="1"/>
        <pt x="1526" y="1172" on="0"/>
      </contour>
      <contour>
        <pt x="1669" y="-167" on="1"/>
        <pt x="1669" y="-216" on="0"/>
        <pt x="1636" y="-236" on="1"/>
        <pt x="1542" y="-294" on="0"/>
        <pt x="1396" y="-365" on="1"/>
        <pt x="1253" y="-434" on="0"/>
        <pt x="1233" y="-434" on="1"/>
        <pt x="1181" y="-434" on="1"/>
        <pt x="1168" y="-420" on="0"/>
        <pt x="1168" y="-403" on="1"/>
        <pt x="1168" y="-356" on="0"/>
        <pt x="1212" y="-335" on="1"/>
        <pt x="1351" y="-272" on="0"/>
        <pt x="1623" y="-137" on="1"/>
        <pt x="1656" y="-137" on="1"/>
        <pt x="1669" y="-150" on="0"/>
      </contour>
      <contour>
        <pt x="605" y="528" on="1"/>
        <pt x="605" y="494" on="0"/>
        <pt x="568" y="458" on="1"/>
        <pt x="535" y="426" on="0"/>
        <pt x="517" y="426" on="1"/>
        <pt x="494" y="426" on="0"/>
        <pt x="454" y="455" on="1"/>
        <pt x="410" y="487" on="0"/>
        <pt x="410" y="513" on="1"/>
        <pt x="451" y="620" on="0"/>
        <pt x="487" y="620" on="1"/>
        <pt x="519" y="620" on="0"/>
        <pt x="605" y="555" on="0"/>
      </contour>
      <contour>
        <pt x="1608" y="257" on="1"/>
        <pt x="1608" y="209" on="0"/>
        <pt x="1544" y="132" on="1"/>
        <pt x="1532" y="132" on="0"/>
        <pt x="1463" y="119" on="0"/>
        <pt x="1450" y="119" on="1"/>
        <pt x="1437" y="119" on="0"/>
        <pt x="1263" y="180" on="0"/>
        <pt x="1250" y="180" on="1"/>
        <pt x="1234" y="180" on="0"/>
        <pt x="1194" y="121" on="1"/>
        <pt x="1164" y="77" on="0"/>
        <pt x="1094" y="44" on="1"/>
        <pt x="1030" y="14" on="0"/>
        <pt x="981" y="13" on="1"/>
        <pt x="965" y="-11" on="0"/>
        <pt x="946" y="-100" on="1"/>
        <pt x="929" y="-181" on="0"/>
        <pt x="886" y="-225" on="1"/>
        <pt x="735" y="-383" on="0"/>
        <pt x="476" y="-383" on="1"/>
        <pt x="344" y="-383" on="0"/>
        <pt x="263" y="-321" on="1"/>
        <pt x="175" y="-254" on="0"/>
        <pt x="175" y="-126" on="1"/>
        <pt x="175" y="-40" on="0"/>
        <pt x="227" y="60" on="1"/>
        <pt x="283" y="167" on="0"/>
        <pt x="354" y="201" on="1"/>
        <pt x="380" y="175" on="1"/>
        <pt x="277" y="-4" on="0"/>
        <pt x="277" y="-45" on="1"/>
        <pt x="277" y="-219" on="0"/>
        <pt x="513" y="-219" on="1"/>
        <pt x="594" y="-219" on="0"/>
        <pt x="710" y="-184" on="1"/>
        <pt x="871" y="-135" on="0"/>
        <pt x="871" y="-55" on="1"/>
        <pt x="871" y="0" on="0"/>
        <pt x="837" y="81" on="1"/>
        <pt x="812" y="116" on="0"/>
        <pt x="771" y="183" on="1"/>
        <pt x="768" y="189" on="0"/>
        <pt x="768" y="231" on="1"/>
        <pt x="768" y="283" on="0"/>
        <pt x="802" y="333" on="1"/>
        <pt x="838" y="333" on="1"/>
        <pt x="874" y="276" on="0"/>
        <pt x="911" y="220" on="1"/>
        <pt x="938" y="180" on="0"/>
        <pt x="1009" y="180" on="1"/>
        <pt x="1138" y="180" on="0"/>
        <pt x="1233" y="351" on="1"/>
        <pt x="1303" y="478" on="0"/>
        <pt x="1396" y="544" on="1"/>
        <pt x="1435" y="559" on="0"/>
        <pt x="1439" y="559" on="1"/>
        <pt x="1491" y="559" on="0"/>
        <pt x="1512" y="515" on="1"/>
        <pt x="1608" y="306" on="0"/>
      </contour>
      <contour>
        <pt x="1455" y="307" on="1"/>
        <pt x="1437" y="341" on="0"/>
        <pt x="1387" y="395" on="1"/>
        <pt x="1376" y="383" on="0"/>
        <pt x="1345" y="342" on="0"/>
        <pt x="1342" y="339" on="1"/>
        <pt x="1388" y="292" on="0"/>
        <pt x="1419" y="292" on="1"/>
        <pt x="1440" y="292" on="0"/>
      </contour>
    </TTGlyph>
    <TTGlyph name="gaffinalarabic" xMin="142" yMin="226" xMax="842" yMax="1588">
      <contour>
        <pt x="142" y="226" on="1"/>
        <pt x="142" y="1588" on="1"/>
        <pt x="842" y="1588" on="1"/>
        <pt x="842" y="226" on="1"/>
      </contour>
      <contour>
        <pt x="284" y="368" on="1"/>
        <pt x="700" y="368" on="1"/>
        <pt x="700" y="1447" on="1"/>
        <pt x="284" y="1447" on="1"/>
      </contour>
    </TTGlyph>
    <TTGlyph name="gafinitialarabic" xMin="142" yMin="226" xMax="842" yMax="1588">
      <contour>
        <pt x="142" y="226" on="1"/>
        <pt x="142" y="1588" on="1"/>
        <pt x="842" y="1588" on="1"/>
        <pt x="842" y="226" on="1"/>
      </contour>
      <contour>
        <pt x="284" y="368" on="1"/>
        <pt x="700" y="368" on="1"/>
        <pt x="700" y="1447" on="1"/>
        <pt x="284" y="1447" on="1"/>
      </contour>
    </TTGlyph>
    <TTGlyph name="gafmedialarabic" xMin="142" yMin="226" xMax="842" yMax="1588">
      <contour>
        <pt x="142" y="226" on="1"/>
        <pt x="142" y="1588" on="1"/>
        <pt x="842" y="1588" on="1"/>
        <pt x="842" y="226" on="1"/>
      </contour>
      <contour>
        <pt x="284" y="368" on="1"/>
        <pt x="700" y="368" on="1"/>
        <pt x="700" y="1447" on="1"/>
        <pt x="284" y="1447" on="1"/>
      </contour>
    </TTGlyph>
    <TTGlyph name="glyph41" xMin="142" yMin="226" xMax="842" yMax="1588">
      <contour>
        <pt x="142" y="226" on="1"/>
        <pt x="142" y="1588" on="1"/>
        <pt x="842" y="1588" on="1"/>
        <pt x="842" y="226" on="1"/>
      </contour>
      <contour>
        <pt x="284" y="368" on="1"/>
        <pt x="700" y="368" on="1"/>
        <pt x="700" y="1447" on="1"/>
        <pt x="284" y="1447" on="1"/>
      </contour>
    </TTGlyph>
    <TTGlyph name="glyph42" xMin="142" yMin="226" xMax="842" yMax="1588">
      <contour>
        <pt x="142" y="226" on="1"/>
        <pt x="142" y="1588" on="1"/>
        <pt x="842" y="1588" on="1"/>
        <pt x="842" y="226" on="1"/>
      </contour>
      <contour>
        <pt x="284" y="368" on="1"/>
        <pt x="700" y="368" on="1"/>
        <pt x="700" y="1447" on="1"/>
        <pt x="284" y="1447" on="1"/>
      </contour>
    </TTGlyph>
    <TTGlyph name="glyph43" xMin="142" yMin="226" xMax="842" yMax="1588">
      <contour>
        <pt x="142" y="226" on="1"/>
        <pt x="142" y="1588" on="1"/>
        <pt x="842" y="1588" on="1"/>
        <pt x="842" y="226" on="1"/>
      </contour>
      <contour>
        <pt x="284" y="368" on="1"/>
        <pt x="700" y="368" on="1"/>
        <pt x="700" y="1447" on="1"/>
        <pt x="284" y="1447" on="1"/>
      </contour>
    </TTGlyph>
    <TTGlyph name="glyph44" xMin="142" yMin="226" xMax="842" yMax="1588">
      <contour>
        <pt x="142" y="226" on="1"/>
        <pt x="142" y="1588" on="1"/>
        <pt x="842" y="1588" on="1"/>
        <pt x="842" y="226" on="1"/>
      </contour>
      <contour>
        <pt x="284" y="368" on="1"/>
        <pt x="700" y="368" on="1"/>
        <pt x="700" y="1447" on="1"/>
        <pt x="284" y="1447" on="1"/>
      </contour>
    </TTGlyph>
    <TTGlyph name="glyph45" xMin="142" yMin="226" xMax="842" yMax="1588">
      <contour>
        <pt x="142" y="226" on="1"/>
        <pt x="142" y="1588" on="1"/>
        <pt x="842" y="1588" on="1"/>
        <pt x="842" y="226" on="1"/>
      </contour>
      <contour>
        <pt x="284" y="368" on="1"/>
        <pt x="700" y="368" on="1"/>
        <pt x="700" y="1447" on="1"/>
        <pt x="284" y="1447" on="1"/>
      </contour>
    </TTGlyph>
    <TTGlyph name="glyph46" xMin="142" yMin="226" xMax="842" yMax="1588">
      <contour>
        <pt x="142" y="226" on="1"/>
        <pt x="142" y="1588" on="1"/>
        <pt x="842" y="1588" on="1"/>
        <pt x="842" y="226" on="1"/>
      </contour>
      <contour>
        <pt x="284" y="368" on="1"/>
        <pt x="700" y="368" on="1"/>
        <pt x="700" y="1447" on="1"/>
        <pt x="284" y="1447" on="1"/>
      </contour>
    </TTGlyph>
    <TTGlyph name="glyph47" xMin="142" yMin="226" xMax="842" yMax="1588">
      <contour>
        <pt x="142" y="226" on="1"/>
        <pt x="142" y="1588" on="1"/>
        <pt x="842" y="1588" on="1"/>
        <pt x="842" y="226" on="1"/>
      </contour>
      <contour>
        <pt x="284" y="368" on="1"/>
        <pt x="700" y="368" on="1"/>
        <pt x="700" y="1447" on="1"/>
        <pt x="284" y="1447" on="1"/>
      </contour>
    </TTGlyph>
    <TTGlyph name="glyph48" xMin="142" yMin="226" xMax="842" yMax="1588">
      <contour>
        <pt x="142" y="226" on="1"/>
        <pt x="142" y="1588" on="1"/>
        <pt x="842" y="1588" on="1"/>
        <pt x="842" y="226" on="1"/>
      </contour>
      <contour>
        <pt x="284" y="368" on="1"/>
        <pt x="700" y="368" on="1"/>
        <pt x="700" y="1447" on="1"/>
        <pt x="284" y="1447" on="1"/>
      </contour>
    </TTGlyph>
    <TTGlyph name="glyph50" xMin="142" yMin="226" xMax="842" yMax="1588">
      <contour>
        <pt x="142" y="226" on="1"/>
        <pt x="142" y="1588" on="1"/>
        <pt x="842" y="1588" on="1"/>
        <pt x="842" y="226" on="1"/>
      </contour>
      <contour>
        <pt x="284" y="368" on="1"/>
        <pt x="700" y="368" on="1"/>
        <pt x="700" y="1447" on="1"/>
        <pt x="284" y="1447" on="1"/>
      </contour>
    </TTGlyph>
    <TTGlyph name="glyph51" xMin="142" yMin="226" xMax="842" yMax="1588">
      <contour>
        <pt x="142" y="226" on="1"/>
        <pt x="142" y="1588" on="1"/>
        <pt x="842" y="1588" on="1"/>
        <pt x="842" y="226" on="1"/>
      </contour>
      <contour>
        <pt x="284" y="368" on="1"/>
        <pt x="700" y="368" on="1"/>
        <pt x="700" y="1447" on="1"/>
        <pt x="284" y="1447" on="1"/>
      </contour>
    </TTGlyph>
    <TTGlyph name="greater" xMin="142" yMin="226" xMax="842" yMax="1588">
      <contour>
        <pt x="142" y="226" on="1"/>
        <pt x="142" y="1588" on="1"/>
        <pt x="842" y="1588" on="1"/>
        <pt x="842" y="226" on="1"/>
      </contour>
      <contour>
        <pt x="284" y="368" on="1"/>
        <pt x="700" y="368" on="1"/>
        <pt x="700" y="1447" on="1"/>
        <pt x="284" y="1447" on="1"/>
      </contour>
    </TTGlyph>
    <TTGlyph name="hahhamzabovefinal" xMin="142" yMin="226" xMax="842" yMax="1588">
      <contour>
        <pt x="142" y="226" on="1"/>
        <pt x="142" y="1588" on="1"/>
        <pt x="842" y="1588" on="1"/>
        <pt x="842" y="226" on="1"/>
      </contour>
      <contour>
        <pt x="284" y="368" on="1"/>
        <pt x="700" y="368" on="1"/>
        <pt x="700" y="1447" on="1"/>
        <pt x="284" y="1447" on="1"/>
      </contour>
    </TTGlyph>
    <TTGlyph name="hahhamzaboveinitial" xMin="142" yMin="226" xMax="842" yMax="1588">
      <contour>
        <pt x="142" y="226" on="1"/>
        <pt x="142" y="1588" on="1"/>
        <pt x="842" y="1588" on="1"/>
        <pt x="842" y="226" on="1"/>
      </contour>
      <contour>
        <pt x="284" y="368" on="1"/>
        <pt x="700" y="368" on="1"/>
        <pt x="700" y="1447" on="1"/>
        <pt x="284" y="1447" on="1"/>
      </contour>
    </TTGlyph>
    <TTGlyph name="hahhamzabovemedial" xMin="142" yMin="226" xMax="842" yMax="1588">
      <contour>
        <pt x="142" y="226" on="1"/>
        <pt x="142" y="1588" on="1"/>
        <pt x="842" y="1588" on="1"/>
        <pt x="842" y="226" on="1"/>
      </contour>
      <contour>
        <pt x="284" y="368" on="1"/>
        <pt x="700" y="368" on="1"/>
        <pt x="700" y="1447" on="1"/>
        <pt x="284" y="1447" on="1"/>
      </contour>
    </TTGlyph>
    <TTGlyph name="hahthreedotsabovefinal" xMin="142" yMin="226" xMax="842" yMax="1588">
      <contour>
        <pt x="142" y="226" on="1"/>
        <pt x="142" y="1588" on="1"/>
        <pt x="842" y="1588" on="1"/>
        <pt x="842" y="226" on="1"/>
      </contour>
      <contour>
        <pt x="284" y="368" on="1"/>
        <pt x="700" y="368" on="1"/>
        <pt x="700" y="1447" on="1"/>
        <pt x="284" y="1447" on="1"/>
      </contour>
    </TTGlyph>
    <TTGlyph name="hahthreedotsaboveinitial" xMin="142" yMin="226" xMax="842" yMax="1588">
      <contour>
        <pt x="142" y="226" on="1"/>
        <pt x="142" y="1588" on="1"/>
        <pt x="842" y="1588" on="1"/>
        <pt x="842" y="226" on="1"/>
      </contour>
      <contour>
        <pt x="284" y="368" on="1"/>
        <pt x="700" y="368" on="1"/>
        <pt x="700" y="1447" on="1"/>
        <pt x="284" y="1447" on="1"/>
      </contour>
    </TTGlyph>
    <TTGlyph name="hahthreedotsabovemedial" xMin="142" yMin="226" xMax="842" yMax="1588">
      <contour>
        <pt x="142" y="226" on="1"/>
        <pt x="142" y="1588" on="1"/>
        <pt x="842" y="1588" on="1"/>
        <pt x="842" y="226" on="1"/>
      </contour>
      <contour>
        <pt x="284" y="368" on="1"/>
        <pt x="700" y="368" on="1"/>
        <pt x="700" y="1447" on="1"/>
        <pt x="284" y="1447" on="1"/>
      </contour>
    </TTGlyph>
    <TTGlyph name="hehdoachashmeefinalarabic" xMin="142" yMin="226" xMax="842" yMax="1588">
      <contour>
        <pt x="142" y="226" on="1"/>
        <pt x="142" y="1588" on="1"/>
        <pt x="842" y="1588" on="1"/>
        <pt x="842" y="226" on="1"/>
      </contour>
      <contour>
        <pt x="284" y="368" on="1"/>
        <pt x="700" y="368" on="1"/>
        <pt x="700" y="1447" on="1"/>
        <pt x="284" y="1447" on="1"/>
      </contour>
    </TTGlyph>
    <TTGlyph name="hehdoachashmeeinitialarabic" xMin="142" yMin="226" xMax="842" yMax="1588">
      <contour>
        <pt x="142" y="226" on="1"/>
        <pt x="142" y="1588" on="1"/>
        <pt x="842" y="1588" on="1"/>
        <pt x="842" y="226" on="1"/>
      </contour>
      <contour>
        <pt x="284" y="368" on="1"/>
        <pt x="700" y="368" on="1"/>
        <pt x="700" y="1447" on="1"/>
        <pt x="284" y="1447" on="1"/>
      </contour>
    </TTGlyph>
    <TTGlyph name="hehdoachashmeemedialarabic" xMin="142" yMin="226" xMax="842" yMax="1588">
      <contour>
        <pt x="142" y="226" on="1"/>
        <pt x="142" y="1588" on="1"/>
        <pt x="842" y="1588" on="1"/>
        <pt x="842" y="226" on="1"/>
      </contour>
      <contour>
        <pt x="284" y="368" on="1"/>
        <pt x="700" y="368" on="1"/>
        <pt x="700" y="1447" on="1"/>
        <pt x="284" y="1447" on="1"/>
      </contour>
    </TTGlyph>
    <TTGlyph name="hehfinalaltonearabic" xMin="142" yMin="226" xMax="842" yMax="1588">
      <contour>
        <pt x="142" y="226" on="1"/>
        <pt x="142" y="1588" on="1"/>
        <pt x="842" y="1588" on="1"/>
        <pt x="842" y="226" on="1"/>
      </contour>
      <contour>
        <pt x="284" y="368" on="1"/>
        <pt x="700" y="368" on="1"/>
        <pt x="700" y="1447" on="1"/>
        <pt x="284" y="1447" on="1"/>
      </contour>
    </TTGlyph>
    <TTGlyph name="hehhamzaabovefinalarabic" xMin="142" yMin="226" xMax="842" yMax="1588">
      <contour>
        <pt x="142" y="226" on="1"/>
        <pt x="142" y="1588" on="1"/>
        <pt x="842" y="1588" on="1"/>
        <pt x="842" y="226" on="1"/>
      </contour>
      <contour>
        <pt x="284" y="368" on="1"/>
        <pt x="700" y="368" on="1"/>
        <pt x="700" y="1447" on="1"/>
        <pt x="284" y="1447" on="1"/>
      </contour>
    </TTGlyph>
    <TTGlyph name="hehinitialaltonearabic" xMin="142" yMin="226" xMax="842" yMax="1588">
      <contour>
        <pt x="142" y="226" on="1"/>
        <pt x="142" y="1588" on="1"/>
        <pt x="842" y="1588" on="1"/>
        <pt x="842" y="226" on="1"/>
      </contour>
      <contour>
        <pt x="284" y="368" on="1"/>
        <pt x="700" y="368" on="1"/>
        <pt x="700" y="1447" on="1"/>
        <pt x="284" y="1447" on="1"/>
      </contour>
    </TTGlyph>
    <TTGlyph name="hehmedialaltonearabic" xMin="142" yMin="226" xMax="842" yMax="1588">
      <contour>
        <pt x="142" y="226" on="1"/>
        <pt x="142" y="1588" on="1"/>
        <pt x="842" y="1588" on="1"/>
        <pt x="842" y="226" on="1"/>
      </contour>
      <contour>
        <pt x="284" y="368" on="1"/>
        <pt x="700" y="368" on="1"/>
        <pt x="700" y="1447" on="1"/>
        <pt x="284" y="1447" on="1"/>
      </contour>
    </TTGlyph>
    <TTGlyph name="hyphen" xMin="175" yMin="-434" xMax="1669" yMax="1214">
      <contour>
        <pt x="1526" y="1132" on="1"/>
        <pt x="1526" y="1052" on="0"/>
        <pt x="1490" y="1021" on="1"/>
        <pt x="1446" y="983" on="0"/>
        <pt x="1352" y="948" on="1"/>
        <pt x="1271" y="918" on="0"/>
        <pt x="1245" y="918" on="1"/>
        <pt x="1219" y="918" on="0"/>
        <pt x="1197" y="961" on="1"/>
        <pt x="1178" y="996" on="0"/>
        <pt x="1178" y="1009" on="1"/>
        <pt x="1178" y="1033" on="0"/>
        <pt x="1199" y="1071" on="1"/>
        <pt x="1222" y="1112" on="0"/>
        <pt x="1243" y="1111" on="1"/>
        <pt x="1243" y="1088" on="0"/>
        <pt x="1246" y="1045" on="0"/>
        <pt x="1275" y="1030" on="1"/>
        <pt x="1327" y="1049" on="0"/>
        <pt x="1328" y="1145" on="0"/>
        <pt x="1369" y="1163" on="1"/>
        <pt x="1390" y="1144" on="0"/>
        <pt x="1411" y="1081" on="1"/>
        <pt x="1443" y="1088" on="0"/>
        <pt x="1453" y="1141" on="1"/>
        <pt x="1463" y="1200" on="0"/>
        <pt x="1491" y="1214" on="1"/>
        <pt x="1526" y="1172" on="0"/>
      </contour>
      <contour>
        <pt x="1669" y="-167" on="1"/>
        <pt x="1669" y="-216" on="0"/>
        <pt x="1636" y="-236" on="1"/>
        <pt x="1542" y="-294" on="0"/>
        <pt x="1396" y="-365" on="1"/>
        <pt x="1253" y="-434" on="0"/>
        <pt x="1233" y="-434" on="1"/>
        <pt x="1181" y="-434" on="1"/>
        <pt x="1168" y="-420" on="0"/>
        <pt x="1168" y="-403" on="1"/>
        <pt x="1168" y="-356" on="0"/>
        <pt x="1212" y="-335" on="1"/>
        <pt x="1351" y="-272" on="0"/>
        <pt x="1623" y="-137" on="1"/>
        <pt x="1656" y="-137" on="1"/>
        <pt x="1669" y="-150" on="0"/>
      </contour>
      <contour>
        <pt x="605" y="528" on="1"/>
        <pt x="605" y="494" on="0"/>
        <pt x="568" y="458" on="1"/>
        <pt x="535" y="426" on="0"/>
        <pt x="517" y="426" on="1"/>
        <pt x="494" y="426" on="0"/>
        <pt x="454" y="455" on="1"/>
        <pt x="410" y="487" on="0"/>
        <pt x="410" y="513" on="1"/>
        <pt x="451" y="620" on="0"/>
        <pt x="487" y="620" on="1"/>
        <pt x="519" y="620" on="0"/>
        <pt x="605" y="555" on="0"/>
      </contour>
      <contour>
        <pt x="1608" y="257" on="1"/>
        <pt x="1608" y="209" on="0"/>
        <pt x="1544" y="132" on="1"/>
        <pt x="1532" y="132" on="0"/>
        <pt x="1463" y="119" on="0"/>
        <pt x="1450" y="119" on="1"/>
        <pt x="1437" y="119" on="0"/>
        <pt x="1263" y="180" on="0"/>
        <pt x="1250" y="180" on="1"/>
        <pt x="1234" y="180" on="0"/>
        <pt x="1194" y="121" on="1"/>
        <pt x="1164" y="77" on="0"/>
        <pt x="1094" y="44" on="1"/>
        <pt x="1030" y="14" on="0"/>
        <pt x="981" y="13" on="1"/>
        <pt x="965" y="-11" on="0"/>
        <pt x="946" y="-100" on="1"/>
        <pt x="929" y="-181" on="0"/>
        <pt x="886" y="-225" on="1"/>
        <pt x="735" y="-383" on="0"/>
        <pt x="476" y="-383" on="1"/>
        <pt x="344" y="-383" on="0"/>
        <pt x="263" y="-321" on="1"/>
        <pt x="175" y="-254" on="0"/>
        <pt x="175" y="-126" on="1"/>
        <pt x="175" y="-40" on="0"/>
        <pt x="227" y="60" on="1"/>
        <pt x="283" y="167" on="0"/>
        <pt x="354" y="201" on="1"/>
        <pt x="380" y="175" on="1"/>
        <pt x="277" y="-4" on="0"/>
        <pt x="277" y="-45" on="1"/>
        <pt x="277" y="-219" on="0"/>
        <pt x="513" y="-219" on="1"/>
        <pt x="594" y="-219" on="0"/>
        <pt x="710" y="-184" on="1"/>
        <pt x="871" y="-135" on="0"/>
        <pt x="871" y="-55" on="1"/>
        <pt x="871" y="0" on="0"/>
        <pt x="837" y="81" on="1"/>
        <pt x="812" y="116" on="0"/>
        <pt x="771" y="183" on="1"/>
        <pt x="768" y="189" on="0"/>
        <pt x="768" y="231" on="1"/>
        <pt x="768" y="283" on="0"/>
        <pt x="802" y="333" on="1"/>
        <pt x="838" y="333" on="1"/>
        <pt x="874" y="276" on="0"/>
        <pt x="911" y="220" on="1"/>
        <pt x="938" y="180" on="0"/>
        <pt x="1009" y="180" on="1"/>
        <pt x="1138" y="180" on="0"/>
        <pt x="1233" y="351" on="1"/>
        <pt x="1303" y="478" on="0"/>
        <pt x="1396" y="544" on="1"/>
        <pt x="1435" y="559" on="0"/>
        <pt x="1439" y="559" on="1"/>
        <pt x="1491" y="559" on="0"/>
        <pt x="1512" y="515" on="1"/>
        <pt x="1608" y="306" on="0"/>
      </contour>
      <contour>
        <pt x="1455" y="307" on="1"/>
        <pt x="1437" y="341" on="0"/>
        <pt x="1387" y="395" on="1"/>
        <pt x="1376" y="383" on="0"/>
        <pt x="1345" y="342" on="0"/>
        <pt x="1342" y="339" on="1"/>
        <pt x="1388" y="292" on="0"/>
        <pt x="1419" y="292" on="1"/>
        <pt x="1440" y="292" on="0"/>
      </contour>
    </TTGlyph>
    <TTGlyph name="irghizufinal" xMin="142" yMin="226" xMax="842" yMax="1588">
      <contour>
        <pt x="142" y="226" on="1"/>
        <pt x="142" y="1588" on="1"/>
        <pt x="842" y="1588" on="1"/>
        <pt x="842" y="226" on="1"/>
      </contour>
      <contour>
        <pt x="284" y="368" on="1"/>
        <pt x="700" y="368" on="1"/>
        <pt x="700" y="1447" on="1"/>
        <pt x="284" y="1447" on="1"/>
      </contour>
    </TTGlyph>
    <TTGlyph name="jehfinalarabic" xMin="142" yMin="226" xMax="842" yMax="1588">
      <contour>
        <pt x="142" y="226" on="1"/>
        <pt x="142" y="1588" on="1"/>
        <pt x="842" y="1588" on="1"/>
        <pt x="842" y="226" on="1"/>
      </contour>
      <contour>
        <pt x="284" y="368" on="1"/>
        <pt x="700" y="368" on="1"/>
        <pt x="700" y="1447" on="1"/>
        <pt x="284" y="1447" on="1"/>
      </contour>
    </TTGlyph>
    <TTGlyph name="kafringfinal" xMin="142" yMin="226" xMax="842" yMax="1588">
      <contour>
        <pt x="142" y="226" on="1"/>
        <pt x="142" y="1588" on="1"/>
        <pt x="842" y="1588" on="1"/>
        <pt x="842" y="226" on="1"/>
      </contour>
      <contour>
        <pt x="284" y="368" on="1"/>
        <pt x="700" y="368" on="1"/>
        <pt x="700" y="1447" on="1"/>
        <pt x="284" y="1447" on="1"/>
      </contour>
    </TTGlyph>
    <TTGlyph name="kafringinitial" xMin="142" yMin="226" xMax="842" yMax="1588">
      <contour>
        <pt x="142" y="226" on="1"/>
        <pt x="142" y="1588" on="1"/>
        <pt x="842" y="1588" on="1"/>
        <pt x="842" y="226" on="1"/>
      </contour>
      <contour>
        <pt x="284" y="368" on="1"/>
        <pt x="700" y="368" on="1"/>
        <pt x="700" y="1447" on="1"/>
        <pt x="284" y="1447" on="1"/>
      </contour>
    </TTGlyph>
    <TTGlyph name="kafringmedial" xMin="142" yMin="226" xMax="842" yMax="1588">
      <contour>
        <pt x="142" y="226" on="1"/>
        <pt x="142" y="1588" on="1"/>
        <pt x="842" y="1588" on="1"/>
        <pt x="842" y="226" on="1"/>
      </contour>
      <contour>
        <pt x="284" y="368" on="1"/>
        <pt x="700" y="368" on="1"/>
        <pt x="700" y="1447" on="1"/>
        <pt x="284" y="1447" on="1"/>
      </contour>
    </TTGlyph>
    <TTGlyph name="kashidaautoarabic" xMin="142" yMin="226" xMax="842" yMax="1588">
      <contour>
        <pt x="142" y="226" on="1"/>
        <pt x="142" y="1588" on="1"/>
        <pt x="842" y="1588" on="1"/>
        <pt x="842" y="226" on="1"/>
      </contour>
      <contour>
        <pt x="284" y="368" on="1"/>
        <pt x="700" y="368" on="1"/>
        <pt x="700" y="1447" on="1"/>
        <pt x="284" y="1447" on="1"/>
      </contour>
    </TTGlyph>
    <TTGlyph name="kashidaautonosidebearingarabic" xMin="142" yMin="226" xMax="842" yMax="1588">
      <contour>
        <pt x="142" y="226" on="1"/>
        <pt x="142" y="1588" on="1"/>
        <pt x="842" y="1588" on="1"/>
        <pt x="842" y="226" on="1"/>
      </contour>
      <contour>
        <pt x="284" y="368" on="1"/>
        <pt x="700" y="368" on="1"/>
        <pt x="700" y="1447" on="1"/>
        <pt x="284" y="1447" on="1"/>
      </contour>
    </TTGlyph>
    <TTGlyph name="kehehfinalarabic" xMin="142" yMin="226" xMax="842" yMax="1588">
      <contour>
        <pt x="142" y="226" on="1"/>
        <pt x="142" y="1588" on="1"/>
        <pt x="842" y="1588" on="1"/>
        <pt x="842" y="226" on="1"/>
      </contour>
      <contour>
        <pt x="284" y="368" on="1"/>
        <pt x="700" y="368" on="1"/>
        <pt x="700" y="1447" on="1"/>
        <pt x="284" y="1447" on="1"/>
      </contour>
    </TTGlyph>
    <TTGlyph name="kehehinitialarabic" xMin="142" yMin="226" xMax="842" yMax="1588">
      <contour>
        <pt x="142" y="226" on="1"/>
        <pt x="142" y="1588" on="1"/>
        <pt x="842" y="1588" on="1"/>
        <pt x="842" y="226" on="1"/>
      </contour>
      <contour>
        <pt x="284" y="368" on="1"/>
        <pt x="700" y="368" on="1"/>
        <pt x="700" y="1447" on="1"/>
        <pt x="284" y="1447" on="1"/>
      </contour>
    </TTGlyph>
    <TTGlyph name="kehehmedialarabic" xMin="142" yMin="226" xMax="842" yMax="1588">
      <contour>
        <pt x="142" y="226" on="1"/>
        <pt x="142" y="1588" on="1"/>
        <pt x="842" y="1588" on="1"/>
        <pt x="842" y="226" on="1"/>
      </contour>
      <contour>
        <pt x="284" y="368" on="1"/>
        <pt x="700" y="368" on="1"/>
        <pt x="700" y="1447" on="1"/>
        <pt x="284" y="1447" on="1"/>
      </contour>
    </TTGlyph>
    <TTGlyph name="kirghizyifinal" xMin="142" yMin="226" xMax="842" yMax="1588">
      <contour>
        <pt x="142" y="226" on="1"/>
        <pt x="142" y="1588" on="1"/>
        <pt x="842" y="1588" on="1"/>
        <pt x="842" y="226" on="1"/>
      </contour>
      <contour>
        <pt x="284" y="368" on="1"/>
        <pt x="700" y="368" on="1"/>
        <pt x="700" y="1447" on="1"/>
        <pt x="284" y="1447" on="1"/>
      </contour>
    </TTGlyph>
    <TTGlyph name="lammeemjeeminitialarabic" xMin="142" yMin="226" xMax="842" yMax="1588">
      <contour>
        <pt x="142" y="226" on="1"/>
        <pt x="142" y="1588" on="1"/>
        <pt x="842" y="1588" on="1"/>
        <pt x="842" y="226" on="1"/>
      </contour>
      <contour>
        <pt x="284" y="368" on="1"/>
        <pt x="700" y="368" on="1"/>
        <pt x="700" y="1447" on="1"/>
        <pt x="284" y="1447" on="1"/>
      </contour>
    </TTGlyph>
    <TTGlyph name="lammeemkhahinitialarabic" xMin="142" yMin="226" xMax="842" yMax="1588">
      <contour>
        <pt x="142" y="226" on="1"/>
        <pt x="142" y="1588" on="1"/>
        <pt x="842" y="1588" on="1"/>
        <pt x="842" y="226" on="1"/>
      </contour>
      <contour>
        <pt x="284" y="368" on="1"/>
        <pt x="700" y="368" on="1"/>
        <pt x="700" y="1447" on="1"/>
        <pt x="284" y="1447" on="1"/>
      </contour>
    </TTGlyph>
    <TTGlyph name="lamthreedotsabovefinal" xMin="142" yMin="226" xMax="842" yMax="1588">
      <contour>
        <pt x="142" y="226" on="1"/>
        <pt x="142" y="1588" on="1"/>
        <pt x="842" y="1588" on="1"/>
        <pt x="842" y="226" on="1"/>
      </contour>
      <contour>
        <pt x="284" y="368" on="1"/>
        <pt x="700" y="368" on="1"/>
        <pt x="700" y="1447" on="1"/>
        <pt x="284" y="1447" on="1"/>
      </contour>
    </TTGlyph>
    <TTGlyph name="lamthreedotsaboveinitial" xMin="142" yMin="226" xMax="842" yMax="1588">
      <contour>
        <pt x="142" y="226" on="1"/>
        <pt x="142" y="1588" on="1"/>
        <pt x="842" y="1588" on="1"/>
        <pt x="842" y="226" on="1"/>
      </contour>
      <contour>
        <pt x="284" y="368" on="1"/>
        <pt x="700" y="368" on="1"/>
        <pt x="700" y="1447" on="1"/>
        <pt x="284" y="1447" on="1"/>
      </contour>
    </TTGlyph>
    <TTGlyph name="lamthreedotsabovemedial" xMin="142" yMin="226" xMax="842" yMax="1588">
      <contour>
        <pt x="142" y="226" on="1"/>
        <pt x="142" y="1588" on="1"/>
        <pt x="842" y="1588" on="1"/>
        <pt x="842" y="226" on="1"/>
      </contour>
      <contour>
        <pt x="284" y="368" on="1"/>
        <pt x="700" y="368" on="1"/>
        <pt x="700" y="1447" on="1"/>
        <pt x="284" y="1447" on="1"/>
      </contour>
    </TTGlyph>
    <TTGlyph name="less" xMin="142" yMin="226" xMax="842" yMax="1588">
      <contour>
        <pt x="142" y="226" on="1"/>
        <pt x="142" y="1588" on="1"/>
        <pt x="842" y="1588" on="1"/>
        <pt x="842" y="226" on="1"/>
      </contour>
      <contour>
        <pt x="284" y="368" on="1"/>
        <pt x="700" y="368" on="1"/>
        <pt x="700" y="1447" on="1"/>
        <pt x="284" y="1447" on="1"/>
      </contour>
    </TTGlyph>
    <TTGlyph name="meemmeemisolatedarabic" xMin="142" yMin="226" xMax="842" yMax="1588">
      <contour>
        <pt x="142" y="226" on="1"/>
        <pt x="142" y="1588" on="1"/>
        <pt x="842" y="1588" on="1"/>
        <pt x="842" y="226" on="1"/>
      </contour>
      <contour>
        <pt x="284" y="368" on="1"/>
        <pt x="700" y="368" on="1"/>
        <pt x="700" y="1447" on="1"/>
        <pt x="284" y="1447" on="1"/>
      </contour>
    </TTGlyph>
    <TTGlyph name="multiply" xMin="142" yMin="226" xMax="842" yMax="1588">
      <contour>
        <pt x="142" y="226" on="1"/>
        <pt x="142" y="1588" on="1"/>
        <pt x="842" y="1588" on="1"/>
        <pt x="842" y="226" on="1"/>
      </contour>
      <contour>
        <pt x="284" y="368" on="1"/>
        <pt x="700" y="368" on="1"/>
        <pt x="700" y="1447" on="1"/>
        <pt x="284" y="1447" on="1"/>
      </contour>
    </TTGlyph>
    <TTGlyph name="noonghunnafinalarabic" xMin="142" yMin="226" xMax="842" yMax="1588">
      <contour>
        <pt x="142" y="226" on="1"/>
        <pt x="142" y="1588" on="1"/>
        <pt x="842" y="1588" on="1"/>
        <pt x="842" y="226" on="1"/>
      </contour>
      <contour>
        <pt x="284" y="368" on="1"/>
        <pt x="700" y="368" on="1"/>
        <pt x="700" y="1447" on="1"/>
        <pt x="284" y="1447" on="1"/>
      </contour>
    </TTGlyph>
    <TTGlyph name="noonjeemisolatedarabic" xMin="142" yMin="226" xMax="842" yMax="1588">
      <contour>
        <pt x="142" y="226" on="1"/>
        <pt x="142" y="1588" on="1"/>
        <pt x="842" y="1588" on="1"/>
        <pt x="842" y="226" on="1"/>
      </contour>
      <contour>
        <pt x="284" y="368" on="1"/>
        <pt x="700" y="368" on="1"/>
        <pt x="700" y="1447" on="1"/>
        <pt x="284" y="1447" on="1"/>
      </contour>
    </TTGlyph>
    <TTGlyph name="noonmeemisolatedarabic" xMin="142" yMin="226" xMax="842" yMax="1588">
      <contour>
        <pt x="142" y="226" on="1"/>
        <pt x="142" y="1588" on="1"/>
        <pt x="842" y="1588" on="1"/>
        <pt x="842" y="226" on="1"/>
      </contour>
      <contour>
        <pt x="284" y="368" on="1"/>
        <pt x="700" y="368" on="1"/>
        <pt x="700" y="1447" on="1"/>
        <pt x="284" y="1447" on="1"/>
      </contour>
    </TTGlyph>
    <TTGlyph name="noonringfinal" xMin="142" yMin="226" xMax="842" yMax="1588">
      <contour>
        <pt x="142" y="226" on="1"/>
        <pt x="142" y="1588" on="1"/>
        <pt x="842" y="1588" on="1"/>
        <pt x="842" y="226" on="1"/>
      </contour>
      <contour>
        <pt x="284" y="368" on="1"/>
        <pt x="700" y="368" on="1"/>
        <pt x="700" y="1447" on="1"/>
        <pt x="284" y="1447" on="1"/>
      </contour>
    </TTGlyph>
    <TTGlyph name="noonringinitial" xMin="142" yMin="226" xMax="842" yMax="1588">
      <contour>
        <pt x="142" y="226" on="1"/>
        <pt x="142" y="1588" on="1"/>
        <pt x="842" y="1588" on="1"/>
        <pt x="842" y="226" on="1"/>
      </contour>
      <contour>
        <pt x="284" y="368" on="1"/>
        <pt x="700" y="368" on="1"/>
        <pt x="700" y="1447" on="1"/>
        <pt x="284" y="1447" on="1"/>
      </contour>
    </TTGlyph>
    <TTGlyph name="noonringmedial" xMin="142" yMin="226" xMax="842" yMax="1588">
      <contour>
        <pt x="142" y="226" on="1"/>
        <pt x="142" y="1588" on="1"/>
        <pt x="842" y="1588" on="1"/>
        <pt x="842" y="226" on="1"/>
      </contour>
      <contour>
        <pt x="284" y="368" on="1"/>
        <pt x="700" y="368" on="1"/>
        <pt x="700" y="1447" on="1"/>
        <pt x="284" y="1447" on="1"/>
      </contour>
    </TTGlyph>
    <TTGlyph name="numbersign" xMin="142" yMin="226" xMax="842" yMax="1588">
      <contour>
        <pt x="142" y="226" on="1"/>
        <pt x="142" y="1588" on="1"/>
        <pt x="842" y="1588" on="1"/>
        <pt x="842" y="226" on="1"/>
      </contour>
      <contour>
        <pt x="284" y="368" on="1"/>
        <pt x="700" y="368" on="1"/>
        <pt x="700" y="1447" on="1"/>
        <pt x="284" y="1447" on="1"/>
      </contour>
    </TTGlyph>
    <TTGlyph name="parenleft" xMin="142" yMin="226" xMax="842" yMax="1588">
      <contour>
        <pt x="142" y="226" on="1"/>
        <pt x="142" y="1588" on="1"/>
        <pt x="842" y="1588" on="1"/>
        <pt x="842" y="226" on="1"/>
      </contour>
      <contour>
        <pt x="284" y="368" on="1"/>
        <pt x="700" y="368" on="1"/>
        <pt x="700" y="1447" on="1"/>
        <pt x="284" y="1447" on="1"/>
      </contour>
    </TTGlyph>
    <TTGlyph name="parenright" xMin="142" yMin="226" xMax="842" yMax="1588">
      <contour>
        <pt x="142" y="226" on="1"/>
        <pt x="142" y="1588" on="1"/>
        <pt x="842" y="1588" on="1"/>
        <pt x="842" y="226" on="1"/>
      </contour>
      <contour>
        <pt x="284" y="368" on="1"/>
        <pt x="700" y="368" on="1"/>
        <pt x="700" y="1447" on="1"/>
        <pt x="284" y="1447" on="1"/>
      </contour>
    </TTGlyph>
    <TTGlyph name="pashtoefinal" xMin="142" yMin="226" xMax="842" yMax="1588">
      <contour>
        <pt x="142" y="226" on="1"/>
        <pt x="142" y="1588" on="1"/>
        <pt x="842" y="1588" on="1"/>
        <pt x="842" y="226" on="1"/>
      </contour>
      <contour>
        <pt x="284" y="368" on="1"/>
        <pt x="700" y="368" on="1"/>
        <pt x="700" y="1447" on="1"/>
        <pt x="284" y="1447" on="1"/>
      </contour>
    </TTGlyph>
    <TTGlyph name="pashtoeinitial" xMin="142" yMin="226" xMax="842" yMax="1588">
      <contour>
        <pt x="142" y="226" on="1"/>
        <pt x="142" y="1588" on="1"/>
        <pt x="842" y="1588" on="1"/>
        <pt x="842" y="226" on="1"/>
      </contour>
      <contour>
        <pt x="284" y="368" on="1"/>
        <pt x="700" y="368" on="1"/>
        <pt x="700" y="1447" on="1"/>
        <pt x="284" y="1447" on="1"/>
      </contour>
    </TTGlyph>
    <TTGlyph name="pashtoemedial" xMin="142" yMin="226" xMax="842" yMax="1588">
      <contour>
        <pt x="142" y="226" on="1"/>
        <pt x="142" y="1588" on="1"/>
        <pt x="842" y="1588" on="1"/>
        <pt x="842" y="226" on="1"/>
      </contour>
      <contour>
        <pt x="284" y="368" on="1"/>
        <pt x="700" y="368" on="1"/>
        <pt x="700" y="1447" on="1"/>
        <pt x="284" y="1447" on="1"/>
      </contour>
    </TTGlyph>
    <TTGlyph name="pehfinalarabic" xMin="142" yMin="226" xMax="842" yMax="1588">
      <contour>
        <pt x="142" y="226" on="1"/>
        <pt x="142" y="1588" on="1"/>
        <pt x="842" y="1588" on="1"/>
        <pt x="842" y="226" on="1"/>
      </contour>
      <contour>
        <pt x="284" y="368" on="1"/>
        <pt x="700" y="368" on="1"/>
        <pt x="700" y="1447" on="1"/>
        <pt x="284" y="1447" on="1"/>
      </contour>
    </TTGlyph>
    <TTGlyph name="pehinitialarabic" xMin="142" yMin="226" xMax="842" yMax="1588">
      <contour>
        <pt x="142" y="226" on="1"/>
        <pt x="142" y="1588" on="1"/>
        <pt x="842" y="1588" on="1"/>
        <pt x="842" y="226" on="1"/>
      </contour>
      <contour>
        <pt x="284" y="368" on="1"/>
        <pt x="700" y="368" on="1"/>
        <pt x="700" y="1447" on="1"/>
        <pt x="284" y="1447" on="1"/>
      </contour>
    </TTGlyph>
    <TTGlyph name="pehmedialarabic" xMin="142" yMin="226" xMax="842" yMax="1588">
      <contour>
        <pt x="142" y="226" on="1"/>
        <pt x="142" y="1588" on="1"/>
        <pt x="842" y="1588" on="1"/>
        <pt x="842" y="226" on="1"/>
      </contour>
      <contour>
        <pt x="284" y="368" on="1"/>
        <pt x="700" y="368" on="1"/>
        <pt x="700" y="1447" on="1"/>
        <pt x="284" y="1447" on="1"/>
      </contour>
    </TTGlyph>
    <TTGlyph name="percent" xMin="142" yMin="226" xMax="842" yMax="1588">
      <contour>
        <pt x="142" y="226" on="1"/>
        <pt x="142" y="1588" on="1"/>
        <pt x="842" y="1588" on="1"/>
        <pt x="842" y="226" on="1"/>
      </contour>
      <contour>
        <pt x="284" y="368" on="1"/>
        <pt x="700" y="368" on="1"/>
        <pt x="700" y="1447" on="1"/>
        <pt x="284" y="1447" on="1"/>
      </contour>
    </TTGlyph>
    <TTGlyph name="period" xMin="142" yMin="226" xMax="842" yMax="1588">
      <contour>
        <pt x="142" y="226" on="1"/>
        <pt x="142" y="1588" on="1"/>
        <pt x="842" y="1588" on="1"/>
        <pt x="842" y="226" on="1"/>
      </contour>
      <contour>
        <pt x="284" y="368" on="1"/>
        <pt x="700" y="368" on="1"/>
        <pt x="700" y="1447" on="1"/>
        <pt x="284" y="1447" on="1"/>
      </contour>
    </TTGlyph>
    <TTGlyph name="plus" xMin="142" yMin="226" xMax="842" yMax="1588">
      <contour>
        <pt x="142" y="226" on="1"/>
        <pt x="142" y="1588" on="1"/>
        <pt x="842" y="1588" on="1"/>
        <pt x="842" y="226" on="1"/>
      </contour>
      <contour>
        <pt x="284" y="368" on="1"/>
        <pt x="700" y="368" on="1"/>
        <pt x="700" y="1447" on="1"/>
        <pt x="284" y="1447" on="1"/>
      </contour>
    </TTGlyph>
    <TTGlyph name="quotedbl" xMin="142" yMin="226" xMax="842" yMax="1588">
      <contour>
        <pt x="142" y="226" on="1"/>
        <pt x="142" y="1588" on="1"/>
        <pt x="842" y="1588" on="1"/>
        <pt x="842" y="226" on="1"/>
      </contour>
      <contour>
        <pt x="284" y="368" on="1"/>
        <pt x="700" y="368" on="1"/>
        <pt x="700" y="1447" on="1"/>
        <pt x="284" y="1447" on="1"/>
      </contour>
    </TTGlyph>
    <TTGlyph name="quotesingle" xMin="142" yMin="226" xMax="842" yMax="1588">
      <contour>
        <pt x="142" y="226" on="1"/>
        <pt x="142" y="1588" on="1"/>
        <pt x="842" y="1588" on="1"/>
        <pt x="842" y="226" on="1"/>
      </contour>
      <contour>
        <pt x="284" y="368" on="1"/>
        <pt x="700" y="368" on="1"/>
        <pt x="700" y="1447" on="1"/>
        <pt x="284" y="1447" on="1"/>
      </contour>
    </TTGlyph>
    <TTGlyph name="rehdotbelowdotabovefinal" xMin="142" yMin="226" xMax="842" yMax="1588">
      <contour>
        <pt x="142" y="226" on="1"/>
        <pt x="142" y="1588" on="1"/>
        <pt x="842" y="1588" on="1"/>
        <pt x="842" y="226" on="1"/>
      </contour>
      <contour>
        <pt x="284" y="368" on="1"/>
        <pt x="700" y="368" on="1"/>
        <pt x="700" y="1447" on="1"/>
        <pt x="284" y="1447" on="1"/>
      </contour>
    </TTGlyph>
    <TTGlyph name="rehringfinal" xMin="142" yMin="226" xMax="842" yMax="1588">
      <contour>
        <pt x="142" y="226" on="1"/>
        <pt x="142" y="1588" on="1"/>
        <pt x="842" y="1588" on="1"/>
        <pt x="842" y="226" on="1"/>
      </contour>
      <contour>
        <pt x="284" y="368" on="1"/>
        <pt x="700" y="368" on="1"/>
        <pt x="700" y="1447" on="1"/>
        <pt x="284" y="1447" on="1"/>
      </contour>
    </TTGlyph>
    <TTGlyph name="rrehfinalarabic" xMin="142" yMin="226" xMax="842" yMax="1588">
      <contour>
        <pt x="142" y="226" on="1"/>
        <pt x="142" y="1588" on="1"/>
        <pt x="842" y="1588" on="1"/>
        <pt x="842" y="226" on="1"/>
      </contour>
      <contour>
        <pt x="284" y="368" on="1"/>
        <pt x="700" y="368" on="1"/>
        <pt x="700" y="1447" on="1"/>
        <pt x="284" y="1447" on="1"/>
      </contour>
    </TTGlyph>
    <TTGlyph name="seendotbelowdotabovefinal" xMin="142" yMin="226" xMax="842" yMax="1588">
      <contour>
        <pt x="142" y="226" on="1"/>
        <pt x="142" y="1588" on="1"/>
        <pt x="842" y="1588" on="1"/>
        <pt x="842" y="226" on="1"/>
      </contour>
      <contour>
        <pt x="284" y="368" on="1"/>
        <pt x="700" y="368" on="1"/>
        <pt x="700" y="1447" on="1"/>
        <pt x="284" y="1447" on="1"/>
      </contour>
    </TTGlyph>
    <TTGlyph name="seendotbelowdotaboveinitial" xMin="142" yMin="226" xMax="842" yMax="1588">
      <contour>
        <pt x="142" y="226" on="1"/>
        <pt x="142" y="1588" on="1"/>
        <pt x="842" y="1588" on="1"/>
        <pt x="842" y="226" on="1"/>
      </contour>
      <contour>
        <pt x="284" y="368" on="1"/>
        <pt x="700" y="368" on="1"/>
        <pt x="700" y="1447" on="1"/>
        <pt x="284" y="1447" on="1"/>
      </contour>
    </TTGlyph>
    <TTGlyph name="seendotbelowdotabovemedial" xMin="142" yMin="226" xMax="842" yMax="1588">
      <contour>
        <pt x="142" y="226" on="1"/>
        <pt x="142" y="1588" on="1"/>
        <pt x="842" y="1588" on="1"/>
        <pt x="842" y="226" on="1"/>
      </contour>
      <contour>
        <pt x="284" y="368" on="1"/>
        <pt x="700" y="368" on="1"/>
        <pt x="700" y="1447" on="1"/>
        <pt x="284" y="1447" on="1"/>
      </contour>
    </TTGlyph>
    <TTGlyph name="shaddadammaarabic" xMin="142" yMin="226" xMax="842" yMax="1588">
      <contour>
        <pt x="142" y="226" on="1"/>
        <pt x="142" y="1588" on="1"/>
        <pt x="842" y="1588" on="1"/>
        <pt x="842" y="226" on="1"/>
      </contour>
      <contour>
        <pt x="284" y="368" on="1"/>
        <pt x="700" y="368" on="1"/>
        <pt x="700" y="1447" on="1"/>
        <pt x="284" y="1447" on="1"/>
      </contour>
    </TTGlyph>
    <TTGlyph name="shaddadammatanarabic" xMin="142" yMin="226" xMax="842" yMax="1588">
      <contour>
        <pt x="142" y="226" on="1"/>
        <pt x="142" y="1588" on="1"/>
        <pt x="842" y="1588" on="1"/>
        <pt x="842" y="226" on="1"/>
      </contour>
      <contour>
        <pt x="284" y="368" on="1"/>
        <pt x="700" y="368" on="1"/>
        <pt x="700" y="1447" on="1"/>
        <pt x="284" y="1447" on="1"/>
      </contour>
    </TTGlyph>
    <TTGlyph name="shaddafathaarabic" xMin="142" yMin="226" xMax="842" yMax="1588">
      <contour>
        <pt x="142" y="226" on="1"/>
        <pt x="142" y="1588" on="1"/>
        <pt x="842" y="1588" on="1"/>
        <pt x="842" y="226" on="1"/>
      </contour>
      <contour>
        <pt x="284" y="368" on="1"/>
        <pt x="700" y="368" on="1"/>
        <pt x="700" y="1447" on="1"/>
        <pt x="284" y="1447" on="1"/>
      </contour>
    </TTGlyph>
    <TTGlyph name="shaddakasraarabic" xMin="142" yMin="226" xMax="842" yMax="1588">
      <contour>
        <pt x="142" y="226" on="1"/>
        <pt x="142" y="1588" on="1"/>
        <pt x="842" y="1588" on="1"/>
        <pt x="842" y="226" on="1"/>
      </contour>
      <contour>
        <pt x="284" y="368" on="1"/>
        <pt x="700" y="368" on="1"/>
        <pt x="700" y="1447" on="1"/>
        <pt x="284" y="1447" on="1"/>
      </contour>
    </TTGlyph>
    <TTGlyph name="shaddakasratanarabic" xMin="142" yMin="226" xMax="842" yMax="1588">
      <contour>
        <pt x="142" y="226" on="1"/>
        <pt x="142" y="1588" on="1"/>
        <pt x="842" y="1588" on="1"/>
        <pt x="842" y="226" on="1"/>
      </contour>
      <contour>
        <pt x="284" y="368" on="1"/>
        <pt x="700" y="368" on="1"/>
        <pt x="700" y="1447" on="1"/>
        <pt x="284" y="1447" on="1"/>
      </contour>
    </TTGlyph>
    <TTGlyph name="slash" xMin="142" yMin="226" xMax="842" yMax="1588">
      <contour>
        <pt x="142" y="226" on="1"/>
        <pt x="142" y="1588" on="1"/>
        <pt x="842" y="1588" on="1"/>
        <pt x="842" y="226" on="1"/>
      </contour>
      <contour>
        <pt x="284" y="368" on="1"/>
        <pt x="700" y="368" on="1"/>
        <pt x="700" y="1447" on="1"/>
        <pt x="284" y="1447" on="1"/>
      </contour>
    </TTGlyph>
    <TTGlyph name="space" xMin="142" yMin="226" xMax="842" yMax="1588">
      <contour>
        <pt x="142" y="226" on="1"/>
        <pt x="142" y="1588" on="1"/>
        <pt x="842" y="1588" on="1"/>
        <pt x="842" y="226" on="1"/>
      </contour>
      <contour>
        <pt x="284" y="368" on="1"/>
        <pt x="700" y="368" on="1"/>
        <pt x="700" y="1447" on="1"/>
        <pt x="284" y="1447" on="1"/>
      </contour>
    </TTGlyph>
    <TTGlyph name="tchehfinalarabic" xMin="142" yMin="226" xMax="842" yMax="1588">
      <contour>
        <pt x="142" y="226" on="1"/>
        <pt x="142" y="1588" on="1"/>
        <pt x="842" y="1588" on="1"/>
        <pt x="842" y="226" on="1"/>
      </contour>
      <contour>
        <pt x="284" y="368" on="1"/>
        <pt x="700" y="368" on="1"/>
        <pt x="700" y="1447" on="1"/>
        <pt x="284" y="1447" on="1"/>
      </contour>
    </TTGlyph>
    <TTGlyph name="tchehinitialarabic" xMin="142" yMin="226" xMax="842" yMax="1588">
      <contour>
        <pt x="142" y="226" on="1"/>
        <pt x="142" y="1588" on="1"/>
        <pt x="842" y="1588" on="1"/>
        <pt x="842" y="226" on="1"/>
      </contour>
      <contour>
        <pt x="284" y="368" on="1"/>
        <pt x="700" y="368" on="1"/>
        <pt x="700" y="1447" on="1"/>
        <pt x="284" y="1447" on="1"/>
      </contour>
    </TTGlyph>
    <TTGlyph name="tchehmedialarabic" xMin="142" yMin="226" xMax="842" yMax="1588">
      <contour>
        <pt x="142" y="226" on="1"/>
        <pt x="142" y="1588" on="1"/>
        <pt x="842" y="1588" on="1"/>
        <pt x="842" y="226" on="1"/>
      </contour>
      <contour>
        <pt x="284" y="368" on="1"/>
        <pt x="700" y="368" on="1"/>
        <pt x="700" y="1447" on="1"/>
        <pt x="284" y="1447" on="1"/>
      </contour>
    </TTGlyph>
    <TTGlyph name="tehhahisolatedarabic" xMin="142" yMin="226" xMax="842" yMax="1588">
      <contour>
        <pt x="142" y="226" on="1"/>
        <pt x="142" y="1588" on="1"/>
        <pt x="842" y="1588" on="1"/>
        <pt x="842" y="226" on="1"/>
      </contour>
      <contour>
        <pt x="284" y="368" on="1"/>
        <pt x="700" y="368" on="1"/>
        <pt x="700" y="1447" on="1"/>
        <pt x="284" y="1447" on="1"/>
      </contour>
    </TTGlyph>
    <TTGlyph name="tehjeemisolatedarabic" xMin="142" yMin="226" xMax="842" yMax="1588">
      <contour>
        <pt x="142" y="226" on="1"/>
        <pt x="142" y="1588" on="1"/>
        <pt x="842" y="1588" on="1"/>
        <pt x="842" y="226" on="1"/>
      </contour>
      <contour>
        <pt x="284" y="368" on="1"/>
        <pt x="700" y="368" on="1"/>
        <pt x="700" y="1447" on="1"/>
        <pt x="284" y="1447" on="1"/>
      </contour>
    </TTGlyph>
    <TTGlyph name="tehmeemisolatedarabic" xMin="142" yMin="226" xMax="842" yMax="1588">
      <contour>
        <pt x="142" y="226" on="1"/>
        <pt x="142" y="1588" on="1"/>
        <pt x="842" y="1588" on="1"/>
        <pt x="842" y="226" on="1"/>
      </contour>
      <contour>
        <pt x="284" y="368" on="1"/>
        <pt x="700" y="368" on="1"/>
        <pt x="700" y="1447" on="1"/>
        <pt x="284" y="1447" on="1"/>
      </contour>
    </TTGlyph>
    <TTGlyph name="tehnoonfinalarabic" xMin="142" yMin="226" xMax="842" yMax="1588">
      <contour>
        <pt x="142" y="226" on="1"/>
        <pt x="142" y="1588" on="1"/>
        <pt x="842" y="1588" on="1"/>
        <pt x="842" y="226" on="1"/>
      </contour>
      <contour>
        <pt x="284" y="368" on="1"/>
        <pt x="700" y="368" on="1"/>
        <pt x="700" y="1447" on="1"/>
        <pt x="284" y="1447" on="1"/>
      </contour>
    </TTGlyph>
    <TTGlyph name="tehringfinal" xMin="142" yMin="226" xMax="842" yMax="1588">
      <contour>
        <pt x="142" y="226" on="1"/>
        <pt x="142" y="1588" on="1"/>
        <pt x="842" y="1588" on="1"/>
        <pt x="842" y="226" on="1"/>
      </contour>
      <contour>
        <pt x="284" y="368" on="1"/>
        <pt x="700" y="368" on="1"/>
        <pt x="700" y="1447" on="1"/>
        <pt x="284" y="1447" on="1"/>
      </contour>
    </TTGlyph>
    <TTGlyph name="tehringinitial" xMin="142" yMin="226" xMax="842" yMax="1588">
      <contour>
        <pt x="142" y="226" on="1"/>
        <pt x="142" y="1588" on="1"/>
        <pt x="842" y="1588" on="1"/>
        <pt x="842" y="226" on="1"/>
      </contour>
      <contour>
        <pt x="284" y="368" on="1"/>
        <pt x="700" y="368" on="1"/>
        <pt x="700" y="1447" on="1"/>
        <pt x="284" y="1447" on="1"/>
      </contour>
    </TTGlyph>
    <TTGlyph name="tehringmedial" xMin="142" yMin="226" xMax="842" yMax="1588">
      <contour>
        <pt x="142" y="226" on="1"/>
        <pt x="142" y="1588" on="1"/>
        <pt x="842" y="1588" on="1"/>
        <pt x="842" y="226" on="1"/>
      </contour>
      <contour>
        <pt x="284" y="368" on="1"/>
        <pt x="700" y="368" on="1"/>
        <pt x="700" y="1447" on="1"/>
        <pt x="284" y="1447" on="1"/>
      </contour>
    </TTGlyph>
    <TTGlyph name="ttehfinalarabic" xMin="142" yMin="226" xMax="842" yMax="1588">
      <contour>
        <pt x="142" y="226" on="1"/>
        <pt x="142" y="1588" on="1"/>
        <pt x="842" y="1588" on="1"/>
        <pt x="842" y="226" on="1"/>
      </contour>
      <contour>
        <pt x="284" y="368" on="1"/>
        <pt x="700" y="368" on="1"/>
        <pt x="700" y="1447" on="1"/>
        <pt x="284" y="1447" on="1"/>
      </contour>
    </TTGlyph>
    <TTGlyph name="ttehinitialarabic" xMin="142" yMin="226" xMax="842" yMax="1588">
      <contour>
        <pt x="142" y="226" on="1"/>
        <pt x="142" y="1588" on="1"/>
        <pt x="842" y="1588" on="1"/>
        <pt x="842" y="226" on="1"/>
      </contour>
      <contour>
        <pt x="284" y="368" on="1"/>
        <pt x="700" y="368" on="1"/>
        <pt x="700" y="1447" on="1"/>
        <pt x="284" y="1447" on="1"/>
      </contour>
    </TTGlyph>
    <TTGlyph name="ttehmedialarabic" xMin="142" yMin="226" xMax="842" yMax="1588">
      <contour>
        <pt x="142" y="226" on="1"/>
        <pt x="142" y="1588" on="1"/>
        <pt x="842" y="1588" on="1"/>
        <pt x="842" y="226" on="1"/>
      </contour>
      <contour>
        <pt x="284" y="368" on="1"/>
        <pt x="700" y="368" on="1"/>
        <pt x="700" y="1447" on="1"/>
        <pt x="284" y="1447" on="1"/>
      </contour>
    </TTGlyph>
    <TTGlyph name="uni000D" xMin="142" yMin="226" xMax="842" yMax="1588">
      <contour>
        <pt x="142" y="226" on="1"/>
        <pt x="142" y="1588" on="1"/>
        <pt x="842" y="1588" on="1"/>
        <pt x="842" y="226" on="1"/>
      </contour>
      <contour>
        <pt x="284" y="368" on="1"/>
        <pt x="700" y="368" on="1"/>
        <pt x="700" y="1447" on="1"/>
        <pt x="284" y="1447" on="1"/>
      </contour>
    </TTGlyph>
    <TTGlyph name="uni00A0" xMin="142" yMin="226" xMax="842" yMax="1588">
      <contour>
        <pt x="142" y="226" on="1"/>
        <pt x="142" y="1588" on="1"/>
        <pt x="842" y="1588" on="1"/>
        <pt x="842" y="226" on="1"/>
      </contour>
      <contour>
        <pt x="284" y="368" on="1"/>
        <pt x="700" y="368" on="1"/>
        <pt x="700" y="1447" on="1"/>
        <pt x="284" y="1447" on="1"/>
      </contour>
    </TTGlyph>
    <TTGlyph name="uni00AD" xMin="142" yMin="226" xMax="842" yMax="1588">
      <contour>
        <pt x="142" y="226" on="1"/>
        <pt x="142" y="1588" on="1"/>
        <pt x="842" y="1588" on="1"/>
        <pt x="842" y="226" on="1"/>
      </contour>
      <contour>
        <pt x="284" y="368" on="1"/>
        <pt x="700" y="368" on="1"/>
        <pt x="700" y="1447" on="1"/>
        <pt x="284" y="1447" on="1"/>
      </contour>
    </TTGlyph>
    <TTGlyph name="uni0653" xMin="142" yMin="226" xMax="842" yMax="1588">
      <contour>
        <pt x="142" y="226" on="1"/>
        <pt x="142" y="1588" on="1"/>
        <pt x="842" y="1588" on="1"/>
        <pt x="842" y="226" on="1"/>
      </contour>
      <contour>
        <pt x="284" y="368" on="1"/>
        <pt x="700" y="368" on="1"/>
        <pt x="700" y="1447" on="1"/>
        <pt x="284" y="1447" on="1"/>
      </contour>
    </TTGlyph>
    <TTGlyph name="uni0654" xMin="142" yMin="226" xMax="842" yMax="1588">
      <contour>
        <pt x="142" y="226" on="1"/>
        <pt x="142" y="1588" on="1"/>
        <pt x="842" y="1588" on="1"/>
        <pt x="842" y="226" on="1"/>
      </contour>
      <contour>
        <pt x="284" y="368" on="1"/>
        <pt x="700" y="368" on="1"/>
        <pt x="700" y="1447" on="1"/>
        <pt x="284" y="1447" on="1"/>
      </contour>
    </TTGlyph>
    <TTGlyph name="uni0655" xMin="142" yMin="226" xMax="842" yMax="1588">
      <contour>
        <pt x="142" y="226" on="1"/>
        <pt x="142" y="1588" on="1"/>
        <pt x="842" y="1588" on="1"/>
        <pt x="842" y="226" on="1"/>
      </contour>
      <contour>
        <pt x="284" y="368" on="1"/>
        <pt x="700" y="368" on="1"/>
        <pt x="700" y="1447" on="1"/>
        <pt x="284" y="1447" on="1"/>
      </contour>
    </TTGlyph>
    <TTGlyph name="uni066B" xMin="142" yMin="226" xMax="842" yMax="1588">
      <contour>
        <pt x="142" y="226" on="1"/>
        <pt x="142" y="1588" on="1"/>
        <pt x="842" y="1588" on="1"/>
        <pt x="842" y="226" on="1"/>
      </contour>
      <contour>
        <pt x="284" y="368" on="1"/>
        <pt x="700" y="368" on="1"/>
        <pt x="700" y="1447" on="1"/>
        <pt x="284" y="1447" on="1"/>
      </contour>
    </TTGlyph>
    <TTGlyph name="uni066C" xMin="142" yMin="226" xMax="842" yMax="1588">
      <contour>
        <pt x="142" y="226" on="1"/>
        <pt x="142" y="1588" on="1"/>
        <pt x="842" y="1588" on="1"/>
        <pt x="842" y="226" on="1"/>
      </contour>
      <contour>
        <pt x="284" y="368" on="1"/>
        <pt x="700" y="368" on="1"/>
        <pt x="700" y="1447" on="1"/>
        <pt x="284" y="1447" on="1"/>
      </contour>
    </TTGlyph>
    <TTGlyph name="uni0671" xMin="142" yMin="226" xMax="842" yMax="1588">
      <contour>
        <pt x="142" y="226" on="1"/>
        <pt x="142" y="1588" on="1"/>
        <pt x="842" y="1588" on="1"/>
        <pt x="842" y="226" on="1"/>
      </contour>
      <contour>
        <pt x="284" y="368" on="1"/>
        <pt x="700" y="368" on="1"/>
        <pt x="700" y="1447" on="1"/>
        <pt x="284" y="1447" on="1"/>
      </contour>
    </TTGlyph>
    <TTGlyph name="uni067C" xMin="142" yMin="226" xMax="842" yMax="1588">
      <contour>
        <pt x="142" y="226" on="1"/>
        <pt x="142" y="1588" on="1"/>
        <pt x="842" y="1588" on="1"/>
        <pt x="842" y="226" on="1"/>
      </contour>
      <contour>
        <pt x="284" y="368" on="1"/>
        <pt x="700" y="368" on="1"/>
        <pt x="700" y="1447" on="1"/>
        <pt x="284" y="1447" on="1"/>
      </contour>
    </TTGlyph>
    <TTGlyph name="uni0681" xMin="142" yMin="226" xMax="842" yMax="1588">
      <contour>
        <pt x="142" y="226" on="1"/>
        <pt x="142" y="1588" on="1"/>
        <pt x="842" y="1588" on="1"/>
        <pt x="842" y="226" on="1"/>
      </contour>
      <contour>
        <pt x="284" y="368" on="1"/>
        <pt x="700" y="368" on="1"/>
        <pt x="700" y="1447" on="1"/>
        <pt x="284" y="1447" on="1"/>
      </contour>
    </TTGlyph>
    <TTGlyph name="uni0685" xMin="142" yMin="226" xMax="842" yMax="1588">
      <contour>
        <pt x="142" y="226" on="1"/>
        <pt x="142" y="1588" on="1"/>
        <pt x="842" y="1588" on="1"/>
        <pt x="842" y="226" on="1"/>
      </contour>
      <contour>
        <pt x="284" y="368" on="1"/>
        <pt x="700" y="368" on="1"/>
        <pt x="700" y="1447" on="1"/>
        <pt x="284" y="1447" on="1"/>
      </contour>
    </TTGlyph>
    <TTGlyph name="uni0689" xMin="142" yMin="226" xMax="842" yMax="1588">
      <contour>
        <pt x="142" y="226" on="1"/>
        <pt x="142" y="1588" on="1"/>
        <pt x="842" y="1588" on="1"/>
        <pt x="842" y="226" on="1"/>
      </contour>
      <contour>
        <pt x="284" y="368" on="1"/>
        <pt x="700" y="368" on="1"/>
        <pt x="700" y="1447" on="1"/>
        <pt x="284" y="1447" on="1"/>
      </contour>
    </TTGlyph>
    <TTGlyph name="uni0693" xMin="142" yMin="226" xMax="842" yMax="1588">
      <contour>
        <pt x="142" y="226" on="1"/>
        <pt x="142" y="1588" on="1"/>
        <pt x="842" y="1588" on="1"/>
        <pt x="842" y="226" on="1"/>
      </contour>
      <contour>
        <pt x="284" y="368" on="1"/>
        <pt x="700" y="368" on="1"/>
        <pt x="700" y="1447" on="1"/>
        <pt x="284" y="1447" on="1"/>
      </contour>
    </TTGlyph>
    <TTGlyph name="uni0696" xMin="142" yMin="226" xMax="842" yMax="1588">
      <contour>
        <pt x="142" y="226" on="1"/>
        <pt x="142" y="1588" on="1"/>
        <pt x="842" y="1588" on="1"/>
        <pt x="842" y="226" on="1"/>
      </contour>
      <contour>
        <pt x="284" y="368" on="1"/>
        <pt x="700" y="368" on="1"/>
        <pt x="700" y="1447" on="1"/>
        <pt x="284" y="1447" on="1"/>
      </contour>
    </TTGlyph>
    <TTGlyph name="uni069A" xMin="142" yMin="226" xMax="842" yMax="1588">
      <contour>
        <pt x="142" y="226" on="1"/>
        <pt x="142" y="1588" on="1"/>
        <pt x="842" y="1588" on="1"/>
        <pt x="842" y="226" on="1"/>
      </contour>
      <contour>
        <pt x="284" y="368" on="1"/>
        <pt x="700" y="368" on="1"/>
        <pt x="700" y="1447" on="1"/>
        <pt x="284" y="1447" on="1"/>
      </contour>
    </TTGlyph>
    <TTGlyph name="uni06A9" xMin="142" yMin="226" xMax="842" yMax="1588">
      <contour>
        <pt x="142" y="226" on="1"/>
        <pt x="142" y="1588" on="1"/>
        <pt x="842" y="1588" on="1"/>
        <pt x="842" y="226" on="1"/>
      </contour>
      <contour>
        <pt x="284" y="368" on="1"/>
        <pt x="700" y="368" on="1"/>
        <pt x="700" y="1447" on="1"/>
        <pt x="284" y="1447" on="1"/>
      </contour>
    </TTGlyph>
    <TTGlyph name="uni06AB" xMin="142" yMin="226" xMax="842" yMax="1588">
      <contour>
        <pt x="142" y="226" on="1"/>
        <pt x="142" y="1588" on="1"/>
        <pt x="842" y="1588" on="1"/>
        <pt x="842" y="226" on="1"/>
      </contour>
      <contour>
        <pt x="284" y="368" on="1"/>
        <pt x="700" y="368" on="1"/>
        <pt x="700" y="1447" on="1"/>
        <pt x="284" y="1447" on="1"/>
      </contour>
    </TTGlyph>
    <TTGlyph name="uni06B7" xMin="142" yMin="226" xMax="842" yMax="1588">
      <contour>
        <pt x="142" y="226" on="1"/>
        <pt x="142" y="1588" on="1"/>
        <pt x="842" y="1588" on="1"/>
        <pt x="842" y="226" on="1"/>
      </contour>
      <contour>
        <pt x="284" y="368" on="1"/>
        <pt x="700" y="368" on="1"/>
        <pt x="700" y="1447" on="1"/>
        <pt x="284" y="1447" on="1"/>
      </contour>
    </TTGlyph>
    <TTGlyph name="uni06BC" xMin="142" yMin="226" xMax="842" yMax="1588">
      <contour>
        <pt x="142" y="226" on="1"/>
        <pt x="142" y="1588" on="1"/>
        <pt x="842" y="1588" on="1"/>
        <pt x="842" y="226" on="1"/>
      </contour>
      <contour>
        <pt x="284" y="368" on="1"/>
        <pt x="700" y="368" on="1"/>
        <pt x="700" y="1447" on="1"/>
        <pt x="284" y="1447" on="1"/>
      </contour>
    </TTGlyph>
    <TTGlyph name="uni06BE" xMin="142" yMin="226" xMax="842" yMax="1588">
      <contour>
        <pt x="142" y="226" on="1"/>
        <pt x="142" y="1588" on="1"/>
        <pt x="842" y="1588" on="1"/>
        <pt x="842" y="226" on="1"/>
      </contour>
      <contour>
        <pt x="284" y="368" on="1"/>
        <pt x="700" y="368" on="1"/>
        <pt x="700" y="1447" on="1"/>
        <pt x="284" y="1447" on="1"/>
      </contour>
    </TTGlyph>
    <TTGlyph name="uni06C2" xMin="142" yMin="226" xMax="842" yMax="1588">
      <contour>
        <pt x="142" y="226" on="1"/>
        <pt x="142" y="1588" on="1"/>
        <pt x="842" y="1588" on="1"/>
        <pt x="842" y="226" on="1"/>
      </contour>
      <contour>
        <pt x="284" y="368" on="1"/>
        <pt x="700" y="368" on="1"/>
        <pt x="700" y="1447" on="1"/>
        <pt x="284" y="1447" on="1"/>
      </contour>
    </TTGlyph>
    <TTGlyph name="uni06C7" xMin="142" yMin="226" xMax="842" yMax="1588">
      <contour>
        <pt x="142" y="226" on="1"/>
        <pt x="142" y="1588" on="1"/>
        <pt x="842" y="1588" on="1"/>
        <pt x="842" y="226" on="1"/>
      </contour>
      <contour>
        <pt x="284" y="368" on="1"/>
        <pt x="700" y="368" on="1"/>
        <pt x="700" y="1447" on="1"/>
        <pt x="284" y="1447" on="1"/>
      </contour>
    </TTGlyph>
    <TTGlyph name="uni06C9" xMin="142" yMin="226" xMax="842" yMax="1588">
      <contour>
        <pt x="142" y="226" on="1"/>
        <pt x="142" y="1588" on="1"/>
        <pt x="842" y="1588" on="1"/>
        <pt x="842" y="226" on="1"/>
      </contour>
      <contour>
        <pt x="284" y="368" on="1"/>
        <pt x="700" y="368" on="1"/>
        <pt x="700" y="1447" on="1"/>
        <pt x="284" y="1447" on="1"/>
      </contour>
    </TTGlyph>
    <TTGlyph name="uni06CC" xMin="142" yMin="226" xMax="842" yMax="1588">
      <contour>
        <pt x="142" y="226" on="1"/>
        <pt x="142" y="1588" on="1"/>
        <pt x="842" y="1588" on="1"/>
        <pt x="842" y="226" on="1"/>
      </contour>
      <contour>
        <pt x="284" y="368" on="1"/>
        <pt x="700" y="368" on="1"/>
        <pt x="700" y="1447" on="1"/>
        <pt x="284" y="1447" on="1"/>
      </contour>
    </TTGlyph>
    <TTGlyph name="uni06CD" xMin="142" yMin="226" xMax="842" yMax="1588">
      <contour>
        <pt x="142" y="226" on="1"/>
        <pt x="142" y="1588" on="1"/>
        <pt x="842" y="1588" on="1"/>
        <pt x="842" y="226" on="1"/>
      </contour>
      <contour>
        <pt x="284" y="368" on="1"/>
        <pt x="700" y="368" on="1"/>
        <pt x="700" y="1447" on="1"/>
        <pt x="284" y="1447" on="1"/>
      </contour>
    </TTGlyph>
    <TTGlyph name="uni06D0" xMin="142" yMin="226" xMax="842" yMax="1588">
      <contour>
        <pt x="142" y="226" on="1"/>
        <pt x="142" y="1588" on="1"/>
        <pt x="842" y="1588" on="1"/>
        <pt x="842" y="226" on="1"/>
      </contour>
      <contour>
        <pt x="284" y="368" on="1"/>
        <pt x="700" y="368" on="1"/>
        <pt x="700" y="1447" on="1"/>
        <pt x="284" y="1447" on="1"/>
      </contour>
    </TTGlyph>
    <TTGlyph name="uni06D1" xMin="142" yMin="226" xMax="842" yMax="1588">
      <contour>
        <pt x="142" y="226" on="1"/>
        <pt x="142" y="1588" on="1"/>
        <pt x="842" y="1588" on="1"/>
        <pt x="842" y="226" on="1"/>
      </contour>
      <contour>
        <pt x="284" y="368" on="1"/>
        <pt x="700" y="368" on="1"/>
        <pt x="700" y="1447" on="1"/>
        <pt x="284" y="1447" on="1"/>
      </contour>
    </TTGlyph>
    <TTGlyph name="uni06D3" xMin="142" yMin="226" xMax="842" yMax="1588">
      <contour>
        <pt x="142" y="226" on="1"/>
        <pt x="142" y="1588" on="1"/>
        <pt x="842" y="1588" on="1"/>
        <pt x="842" y="226" on="1"/>
      </contour>
      <contour>
        <pt x="284" y="368" on="1"/>
        <pt x="700" y="368" on="1"/>
        <pt x="700" y="1447" on="1"/>
        <pt x="284" y="1447" on="1"/>
      </contour>
    </TTGlyph>
    <TTGlyph name="uni06D4" xMin="142" yMin="226" xMax="842" yMax="1588">
      <contour>
        <pt x="142" y="226" on="1"/>
        <pt x="142" y="1588" on="1"/>
        <pt x="842" y="1588" on="1"/>
        <pt x="842" y="226" on="1"/>
      </contour>
      <contour>
        <pt x="284" y="368" on="1"/>
        <pt x="700" y="368" on="1"/>
        <pt x="700" y="1447" on="1"/>
        <pt x="284" y="1447" on="1"/>
      </contour>
    </TTGlyph>
    <TTGlyph name="uni06F0" xMin="142" yMin="226" xMax="842" yMax="1588">
      <contour>
        <pt x="142" y="226" on="1"/>
        <pt x="142" y="1588" on="1"/>
        <pt x="842" y="1588" on="1"/>
        <pt x="842" y="226" on="1"/>
      </contour>
      <contour>
        <pt x="284" y="368" on="1"/>
        <pt x="700" y="368" on="1"/>
        <pt x="700" y="1447" on="1"/>
        <pt x="284" y="1447" on="1"/>
      </contour>
    </TTGlyph>
    <TTGlyph name="uni06F1" xMin="142" yMin="226" xMax="842" yMax="1588">
      <contour>
        <pt x="142" y="226" on="1"/>
        <pt x="142" y="1588" on="1"/>
        <pt x="842" y="1588" on="1"/>
        <pt x="842" y="226" on="1"/>
      </contour>
      <contour>
        <pt x="284" y="368" on="1"/>
        <pt x="700" y="368" on="1"/>
        <pt x="700" y="1447" on="1"/>
        <pt x="284" y="1447" on="1"/>
      </contour>
    </TTGlyph>
    <TTGlyph name="uni06F2" xMin="142" yMin="226" xMax="842" yMax="1588">
      <contour>
        <pt x="142" y="226" on="1"/>
        <pt x="142" y="1588" on="1"/>
        <pt x="842" y="1588" on="1"/>
        <pt x="842" y="226" on="1"/>
      </contour>
      <contour>
        <pt x="284" y="368" on="1"/>
        <pt x="700" y="368" on="1"/>
        <pt x="700" y="1447" on="1"/>
        <pt x="284" y="1447" on="1"/>
      </contour>
    </TTGlyph>
    <TTGlyph name="uni06F3" xMin="142" yMin="226" xMax="842" yMax="1588">
      <contour>
        <pt x="142" y="226" on="1"/>
        <pt x="142" y="1588" on="1"/>
        <pt x="842" y="1588" on="1"/>
        <pt x="842" y="226" on="1"/>
      </contour>
      <contour>
        <pt x="284" y="368" on="1"/>
        <pt x="700" y="368" on="1"/>
        <pt x="700" y="1447" on="1"/>
        <pt x="284" y="1447" on="1"/>
      </contour>
    </TTGlyph>
    <TTGlyph name="uni06F4" xMin="142" yMin="226" xMax="842" yMax="1588">
      <contour>
        <pt x="142" y="226" on="1"/>
        <pt x="142" y="1588" on="1"/>
        <pt x="842" y="1588" on="1"/>
        <pt x="842" y="226" on="1"/>
      </contour>
      <contour>
        <pt x="284" y="368" on="1"/>
        <pt x="700" y="368" on="1"/>
        <pt x="700" y="1447" on="1"/>
        <pt x="284" y="1447" on="1"/>
      </contour>
    </TTGlyph>
    <TTGlyph name="uni06F5" xMin="142" yMin="226" xMax="842" yMax="1588">
      <contour>
        <pt x="142" y="226" on="1"/>
        <pt x="142" y="1588" on="1"/>
        <pt x="842" y="1588" on="1"/>
        <pt x="842" y="226" on="1"/>
      </contour>
      <contour>
        <pt x="284" y="368" on="1"/>
        <pt x="700" y="368" on="1"/>
        <pt x="700" y="1447" on="1"/>
        <pt x="284" y="1447" on="1"/>
      </contour>
    </TTGlyph>
    <TTGlyph name="uni06F6" xMin="142" yMin="226" xMax="842" yMax="1588">
      <contour>
        <pt x="142" y="226" on="1"/>
        <pt x="142" y="1588" on="1"/>
        <pt x="842" y="1588" on="1"/>
        <pt x="842" y="226" on="1"/>
      </contour>
      <contour>
        <pt x="284" y="368" on="1"/>
        <pt x="700" y="368" on="1"/>
        <pt x="700" y="1447" on="1"/>
        <pt x="284" y="1447" on="1"/>
      </contour>
    </TTGlyph>
    <TTGlyph name="uni06F7" xMin="142" yMin="226" xMax="842" yMax="1588">
      <contour>
        <pt x="142" y="226" on="1"/>
        <pt x="142" y="1588" on="1"/>
        <pt x="842" y="1588" on="1"/>
        <pt x="842" y="226" on="1"/>
      </contour>
      <contour>
        <pt x="284" y="368" on="1"/>
        <pt x="700" y="368" on="1"/>
        <pt x="700" y="1447" on="1"/>
        <pt x="284" y="1447" on="1"/>
      </contour>
    </TTGlyph>
    <TTGlyph name="uni06F8" xMin="142" yMin="226" xMax="842" yMax="1588">
      <contour>
        <pt x="142" y="226" on="1"/>
        <pt x="142" y="1588" on="1"/>
        <pt x="842" y="1588" on="1"/>
        <pt x="842" y="226" on="1"/>
      </contour>
      <contour>
        <pt x="284" y="368" on="1"/>
        <pt x="700" y="368" on="1"/>
        <pt x="700" y="1447" on="1"/>
        <pt x="284" y="1447" on="1"/>
      </contour>
    </TTGlyph>
    <TTGlyph name="uni06F9" xMin="142" yMin="226" xMax="842" yMax="1588">
      <contour>
        <pt x="142" y="226" on="1"/>
        <pt x="142" y="1588" on="1"/>
        <pt x="842" y="1588" on="1"/>
        <pt x="842" y="226" on="1"/>
      </contour>
      <contour>
        <pt x="284" y="368" on="1"/>
        <pt x="700" y="368" on="1"/>
        <pt x="700" y="1447" on="1"/>
        <pt x="284" y="1447" on="1"/>
      </contour>
    </TTGlyph>
    <TTGlyph name="uni2010" xMin="175" yMin="-434" xMax="1669" yMax="1214">
      <contour>
        <pt x="1526" y="1132" on="1"/>
        <pt x="1526" y="1052" on="0"/>
        <pt x="1490" y="1021" on="1"/>
        <pt x="1446" y="983" on="0"/>
        <pt x="1352" y="948" on="1"/>
        <pt x="1271" y="918" on="0"/>
        <pt x="1245" y="918" on="1"/>
        <pt x="1219" y="918" on="0"/>
        <pt x="1197" y="961" on="1"/>
        <pt x="1178" y="996" on="0"/>
        <pt x="1178" y="1009" on="1"/>
        <pt x="1178" y="1033" on="0"/>
        <pt x="1199" y="1071" on="1"/>
        <pt x="1222" y="1112" on="0"/>
        <pt x="1243" y="1111" on="1"/>
        <pt x="1243" y="1088" on="0"/>
        <pt x="1246" y="1045" on="0"/>
        <pt x="1275" y="1030" on="1"/>
        <pt x="1327" y="1049" on="0"/>
        <pt x="1328" y="1145" on="0"/>
        <pt x="1369" y="1163" on="1"/>
        <pt x="1390" y="1144" on="0"/>
        <pt x="1411" y="1081" on="1"/>
        <pt x="1443" y="1088" on="0"/>
        <pt x="1453" y="1141" on="1"/>
        <pt x="1463" y="1200" on="0"/>
        <pt x="1491" y="1214" on="1"/>
        <pt x="1526" y="1172" on="0"/>
      </contour>
      <contour>
        <pt x="1669" y="-167" on="1"/>
        <pt x="1669" y="-216" on="0"/>
        <pt x="1636" y="-236" on="1"/>
        <pt x="1542" y="-294" on="0"/>
        <pt x="1396" y="-365" on="1"/>
        <pt x="1253" y="-434" on="0"/>
        <pt x="1233" y="-434" on="1"/>
        <pt x="1181" y="-434" on="1"/>
        <pt x="1168" y="-420" on="0"/>
        <pt x="1168" y="-403" on="1"/>
        <pt x="1168" y="-356" on="0"/>
        <pt x="1212" y="-335" on="1"/>
        <pt x="1351" y="-272" on="0"/>
        <pt x="1623" y="-137" on="1"/>
        <pt x="1656" y="-137" on="1"/>
        <pt x="1669" y="-150" on="0"/>
      </contour>
      <contour>
        <pt x="605" y="528" on="1"/>
        <pt x="605" y="494" on="0"/>
        <pt x="568" y="458" on="1"/>
        <pt x="535" y="426" on="0"/>
        <pt x="517" y="426" on="1"/>
        <pt x="494" y="426" on="0"/>
        <pt x="454" y="455" on="1"/>
        <pt x="410" y="487" on="0"/>
        <pt x="410" y="513" on="1"/>
        <pt x="451" y="620" on="0"/>
        <pt x="487" y="620" on="1"/>
        <pt x="519" y="620" on="0"/>
        <pt x="605" y="555" on="0"/>
      </contour>
      <contour>
        <pt x="1608" y="257" on="1"/>
        <pt x="1608" y="209" on="0"/>
        <pt x="1544" y="132" on="1"/>
        <pt x="1532" y="132" on="0"/>
        <pt x="1463" y="119" on="0"/>
        <pt x="1450" y="119" on="1"/>
        <pt x="1437" y="119" on="0"/>
        <pt x="1263" y="180" on="0"/>
        <pt x="1250" y="180" on="1"/>
        <pt x="1234" y="180" on="0"/>
        <pt x="1194" y="121" on="1"/>
        <pt x="1164" y="77" on="0"/>
        <pt x="1094" y="44" on="1"/>
        <pt x="1030" y="14" on="0"/>
        <pt x="981" y="13" on="1"/>
        <pt x="965" y="-11" on="0"/>
        <pt x="946" y="-100" on="1"/>
        <pt x="929" y="-181" on="0"/>
        <pt x="886" y="-225" on="1"/>
        <pt x="735" y="-383" on="0"/>
        <pt x="476" y="-383" on="1"/>
        <pt x="344" y="-383" on="0"/>
        <pt x="263" y="-321" on="1"/>
        <pt x="175" y="-254" on="0"/>
        <pt x="175" y="-126" on="1"/>
        <pt x="175" y="-40" on="0"/>
        <pt x="227" y="60" on="1"/>
        <pt x="283" y="167" on="0"/>
        <pt x="354" y="201" on="1"/>
        <pt x="380" y="175" on="1"/>
        <pt x="277" y="-4" on="0"/>
        <pt x="277" y="-45" on="1"/>
        <pt x="277" y="-219" on="0"/>
        <pt x="513" y="-219" on="1"/>
        <pt x="594" y="-219" on="0"/>
        <pt x="710" y="-184" on="1"/>
        <pt x="871" y="-135" on="0"/>
        <pt x="871" y="-55" on="1"/>
        <pt x="871" y="0" on="0"/>
        <pt x="837" y="81" on="1"/>
        <pt x="812" y="116" on="0"/>
        <pt x="771" y="183" on="1"/>
        <pt x="768" y="189" on="0"/>
        <pt x="768" y="231" on="1"/>
        <pt x="768" y="283" on="0"/>
        <pt x="802" y="333" on="1"/>
        <pt x="838" y="333" on="1"/>
        <pt x="874" y="276" on="0"/>
        <pt x="911" y="220" on="1"/>
        <pt x="938" y="180" on="0"/>
        <pt x="1009" y="180" on="1"/>
        <pt x="1138" y="180" on="0"/>
        <pt x="1233" y="351" on="1"/>
        <pt x="1303" y="478" on="0"/>
        <pt x="1396" y="544" on="1"/>
        <pt x="1435" y="559" on="0"/>
        <pt x="1439" y="559" on="1"/>
        <pt x="1491" y="559" on="0"/>
        <pt x="1512" y="515" on="1"/>
        <pt x="1608" y="306" on="0"/>
      </contour>
      <contour>
        <pt x="1455" y="307" on="1"/>
        <pt x="1437" y="341" on="0"/>
        <pt x="1387" y="395" on="1"/>
        <pt x="1376" y="383" on="0"/>
        <pt x="1345" y="342" on="0"/>
        <pt x="1342" y="339" on="1"/>
        <pt x="1388" y="292" on="0"/>
        <pt x="1419" y="292" on="1"/>
        <pt x="1440" y="292" on="0"/>
      </contour>
    </TTGlyph>
    <TTGlyph name="uni2011" xMin="175" yMin="-434" xMax="1669" yMax="1214">
      <contour>
        <pt x="1526" y="1132" on="1"/>
        <pt x="1526" y="1052" on="0"/>
        <pt x="1490" y="1021" on="1"/>
        <pt x="1446" y="983" on="0"/>
        <pt x="1352" y="948" on="1"/>
        <pt x="1271" y="918" on="0"/>
        <pt x="1245" y="918" on="1"/>
        <pt x="1219" y="918" on="0"/>
        <pt x="1197" y="961" on="1"/>
        <pt x="1178" y="996" on="0"/>
        <pt x="1178" y="1009" on="1"/>
        <pt x="1178" y="1033" on="0"/>
        <pt x="1199" y="1071" on="1"/>
        <pt x="1222" y="1112" on="0"/>
        <pt x="1243" y="1111" on="1"/>
        <pt x="1243" y="1088" on="0"/>
        <pt x="1246" y="1045" on="0"/>
        <pt x="1275" y="1030" on="1"/>
        <pt x="1327" y="1049" on="0"/>
        <pt x="1328" y="1145" on="0"/>
        <pt x="1369" y="1163" on="1"/>
        <pt x="1390" y="1144" on="0"/>
        <pt x="1411" y="1081" on="1"/>
        <pt x="1443" y="1088" on="0"/>
        <pt x="1453" y="1141" on="1"/>
        <pt x="1463" y="1200" on="0"/>
        <pt x="1491" y="1214" on="1"/>
        <pt x="1526" y="1172" on="0"/>
      </contour>
      <contour>
        <pt x="1669" y="-167" on="1"/>
        <pt x="1669" y="-216" on="0"/>
        <pt x="1636" y="-236" on="1"/>
        <pt x="1542" y="-294" on="0"/>
        <pt x="1396" y="-365" on="1"/>
        <pt x="1253" y="-434" on="0"/>
        <pt x="1233" y="-434" on="1"/>
        <pt x="1181" y="-434" on="1"/>
        <pt x="1168" y="-420" on="0"/>
        <pt x="1168" y="-403" on="1"/>
        <pt x="1168" y="-356" on="0"/>
        <pt x="1212" y="-335" on="1"/>
        <pt x="1351" y="-272" on="0"/>
        <pt x="1623" y="-137" on="1"/>
        <pt x="1656" y="-137" on="1"/>
        <pt x="1669" y="-150" on="0"/>
      </contour>
      <contour>
        <pt x="605" y="528" on="1"/>
        <pt x="605" y="494" on="0"/>
        <pt x="568" y="458" on="1"/>
        <pt x="535" y="426" on="0"/>
        <pt x="517" y="426" on="1"/>
        <pt x="494" y="426" on="0"/>
        <pt x="454" y="455" on="1"/>
        <pt x="410" y="487" on="0"/>
        <pt x="410" y="513" on="1"/>
        <pt x="451" y="620" on="0"/>
        <pt x="487" y="620" on="1"/>
        <pt x="519" y="620" on="0"/>
        <pt x="605" y="555" on="0"/>
      </contour>
      <contour>
        <pt x="1608" y="257" on="1"/>
        <pt x="1608" y="209" on="0"/>
        <pt x="1544" y="132" on="1"/>
        <pt x="1532" y="132" on="0"/>
        <pt x="1463" y="119" on="0"/>
        <pt x="1450" y="119" on="1"/>
        <pt x="1437" y="119" on="0"/>
        <pt x="1263" y="180" on="0"/>
        <pt x="1250" y="180" on="1"/>
        <pt x="1234" y="180" on="0"/>
        <pt x="1194" y="121" on="1"/>
        <pt x="1164" y="77" on="0"/>
        <pt x="1094" y="44" on="1"/>
        <pt x="1030" y="14" on="0"/>
        <pt x="981" y="13" on="1"/>
        <pt x="965" y="-11" on="0"/>
        <pt x="946" y="-100" on="1"/>
        <pt x="929" y="-181" on="0"/>
        <pt x="886" y="-225" on="1"/>
        <pt x="735" y="-383" on="0"/>
        <pt x="476" y="-383" on="1"/>
        <pt x="344" y="-383" on="0"/>
        <pt x="263" y="-321" on="1"/>
        <pt x="175" y="-254" on="0"/>
        <pt x="175" y="-126" on="1"/>
        <pt x="175" y="-40" on="0"/>
        <pt x="227" y="60" on="1"/>
        <pt x="283" y="167" on="0"/>
        <pt x="354" y="201" on="1"/>
        <pt x="380" y="175" on="1"/>
        <pt x="277" y="-4" on="0"/>
        <pt x="277" y="-45" on="1"/>
        <pt x="277" y="-219" on="0"/>
        <pt x="513" y="-219" on="1"/>
        <pt x="594" y="-219" on="0"/>
        <pt x="710" y="-184" on="1"/>
        <pt x="871" y="-135" on="0"/>
        <pt x="871" y="-55" on="1"/>
        <pt x="871" y="0" on="0"/>
        <pt x="837" y="81" on="1"/>
        <pt x="812" y="116" on="0"/>
        <pt x="771" y="183" on="1"/>
        <pt x="768" y="189" on="0"/>
        <pt x="768" y="231" on="1"/>
        <pt x="768" y="283" on="0"/>
        <pt x="802" y="333" on="1"/>
        <pt x="838" y="333" on="1"/>
        <pt x="874" y="276" on="0"/>
        <pt x="911" y="220" on="1"/>
        <pt x="938" y="180" on="0"/>
        <pt x="1009" y="180" on="1"/>
        <pt x="1138" y="180" on="0"/>
        <pt x="1233" y="351" on="1"/>
        <pt x="1303" y="478" on="0"/>
        <pt x="1396" y="544" on="1"/>
        <pt x="1435" y="559" on="0"/>
        <pt x="1439" y="559" on="1"/>
        <pt x="1491" y="559" on="0"/>
        <pt x="1512" y="515" on="1"/>
        <pt x="1608" y="306" on="0"/>
      </contour>
      <contour>
        <pt x="1455" y="307" on="1"/>
        <pt x="1437" y="341" on="0"/>
        <pt x="1387" y="395" on="1"/>
        <pt x="1376" y="383" on="0"/>
        <pt x="1345" y="342" on="0"/>
        <pt x="1342" y="339" on="1"/>
        <pt x="1388" y="292" on="0"/>
        <pt x="1419" y="292" on="1"/>
        <pt x="1440" y="292" on="0"/>
      </contour>
    </TTGlyph>
    <TTGlyph name="uniE000" xMin="0" yMin="0" xMax="1910" yMax="1910">
      <contour>
        <pt x="0" y="1910" on="1"/>
        <pt x="1910" y="1910" on="1"/>
        <pt x="1910" y="0" on="1"/>
        <pt x="0" y="0" on="1"/>
      </contour>
    </TTGlyph>
    <TTGlyph name="uniFB51" xMin="226" yMin="-593" xMax="2129" yMax="1238">
      <contour>
        <pt x="1985" y="1180" on="1"/>
        <pt x="1914" y="1114" on="0"/>
        <pt x="1770" y="1042" on="1"/>
        <pt x="1651" y="982" on="0"/>
        <pt x="1532" y="922" on="1"/>
        <pt x="1496" y="922" on="1"/>
        <pt x="1496" y="926" on="0"/>
        <pt x="1484" y="943" on="0"/>
        <pt x="1484" y="957" on="1"/>
        <pt x="1484" y="992" on="0"/>
        <pt x="1688" y="1104" on="1"/>
        <pt x="1814" y="1171" on="0"/>
        <pt x="1938" y="1238" on="1"/>
        <pt x="1985" y="1238" on="1"/>
      </contour>
      <contour>
        <pt x="2129" y="164" on="1"/>
        <pt x="2129" y="75" on="0"/>
        <pt x="2043" y="-86" on="1"/>
        <pt x="1948" y="-263" on="0"/>
        <pt x="1850" y="-314" on="1"/>
        <pt x="1745" y="-368" on="0"/>
        <pt x="1607" y="-368" on="1"/>
        <pt x="1490" y="-368" on="0"/>
        <pt x="1375" y="-345" on="1"/>
        <pt x="1322" y="-335" on="0"/>
        <pt x="1279" y="-292" on="1"/>
        <pt x="1307" y="-262" on="0"/>
        <pt x="1352" y="-262" on="1"/>
        <pt x="1372" y="-262" on="0"/>
        <pt x="1451" y="-276" on="0"/>
        <pt x="1469" y="-276" on="1"/>
        <pt x="1850" y="-276" on="0"/>
        <pt x="2027" y="87" on="1"/>
        <pt x="2032" y="93" on="0"/>
        <pt x="2022" y="102" on="1"/>
        <pt x="1964" y="41" on="0"/>
        <pt x="1919" y="41" on="1"/>
        <pt x="1871" y="41" on="0"/>
        <pt x="1828" y="82" on="1"/>
        <pt x="1781" y="125" on="0"/>
        <pt x="1781" y="179" on="1"/>
        <pt x="1781" y="228" on="0"/>
        <pt x="1822" y="315" on="1"/>
        <pt x="1855" y="390" on="0"/>
        <pt x="1900" y="440" on="0"/>
        <pt x="1945" y="440" on="1"/>
        <pt x="2004" y="440" on="0"/>
        <pt x="2071" y="312" on="1"/>
        <pt x="2129" y="202" on="0"/>
      </contour>
      <contour>
        <pt x="1248" y="174" on="1"/>
        <pt x="1248" y="81" on="0"/>
        <pt x="1170" y="20" on="1"/>
        <pt x="1044" y="957" on="1"/>
        <pt x="1036" y="1007" on="0"/>
        <pt x="1088" y="1109" on="0"/>
        <pt x="1134" y="1126" on="1"/>
      </contour>
      <contour>
        <pt x="706" y="809" on="1"/>
        <pt x="706" y="774" on="0"/>
        <pt x="641" y="717" on="0"/>
        <pt x="614" y="717" on="1"/>
        <pt x="584" y="717" on="0"/>
        <pt x="522" y="756" on="0"/>
        <pt x="522" y="778" on="1"/>
        <pt x="522" y="803" on="0"/>
        <pt x="562" y="848" on="1"/>
        <pt x="600" y="890" on="0"/>
        <pt x="609" y="890" on="1"/>
        <pt x="641" y="890" on="0"/>
        <pt x="706" y="831" on="0"/>
      </contour>
      <contour>
        <pt x="1269" y="-186" on="1"/>
        <pt x="1252" y="-217" on="0"/>
        <pt x="1189" y="-241" on="1"/>
        <pt x="1145" y="-255" on="0"/>
        <pt x="1102" y="-269" on="1"/>
        <pt x="1089" y="-274" on="0"/>
        <pt x="957" y="-327" on="1"/>
        <pt x="942" y="-315" on="0"/>
        <pt x="932" y="-315" on="1"/>
        <pt x="950" y="-275" on="0"/>
        <pt x="972" y="-250" on="1"/>
        <pt x="931" y="-209" on="0"/>
        <pt x="931" y="-179" on="1"/>
        <pt x="931" y="-133" on="0"/>
        <pt x="997" y="-69" on="1"/>
        <pt x="1058" y="-10" on="0"/>
        <pt x="1090" y="-10" on="1"/>
        <pt x="1117" y="-10" on="0"/>
        <pt x="1144" y="-36" on="1"/>
        <pt x="1166" y="-60" on="0"/>
        <pt x="1166" y="-72" on="1"/>
        <pt x="1166" y="-100" on="0"/>
        <pt x="1144" y="-118" on="1"/>
        <pt x="1126" y="-133" on="0"/>
        <pt x="1111" y="-133" on="1"/>
        <pt x="1102" y="-133" on="0"/>
        <pt x="1074" y="-122" on="1"/>
        <pt x="1050" y="-114" on="0"/>
        <pt x="1033" y="-120" on="1"/>
        <pt x="1037" y="-174" on="0"/>
        <pt x="1111" y="-174" on="1"/>
        <pt x="1114" y="-174" on="0"/>
      </contour>
      <contour>
        <pt x="911" y="220" on="1"/>
        <pt x="911" y="126" on="0"/>
        <pt x="855" y="46" on="1"/>
        <pt x="840" y="25" on="0"/>
        <pt x="602" y="-40" on="0"/>
        <pt x="547" y="-40" on="1"/>
        <pt x="430" y="-40" on="0"/>
        <pt x="430" y="36" on="1"/>
        <pt x="430" y="32" on="0"/>
        <pt x="463" y="132" on="1"/>
        <pt x="552" y="112" on="0"/>
        <pt x="553" y="112" on="1"/>
        <pt x="628" y="112" on="0"/>
        <pt x="720" y="146" on="1"/>
        <pt x="765" y="162" on="0"/>
        <pt x="808" y="191" on="1"/>
        <pt x="790" y="239" on="0"/>
        <pt x="775" y="257" on="1"/>
        <pt x="699" y="348" on="0"/>
        <pt x="625" y="390" on="1"/>
        <pt x="625" y="532" on="0"/>
        <pt x="676" y="532" on="1"/>
        <pt x="750" y="532" on="0"/>
        <pt x="824" y="428" on="1"/>
        <pt x="852" y="388" on="0"/>
        <pt x="882" y="312" on="1"/>
        <pt x="911" y="242" on="0"/>
      </contour>
      <contour>
        <pt x="1371" y="-404" on="1"/>
        <pt x="1371" y="-441" on="0"/>
        <pt x="1317" y="-467" on="1"/>
        <pt x="1246" y="-503" on="0"/>
        <pt x="1006" y="-593" on="0"/>
        <pt x="986" y="-593" on="1"/>
        <pt x="933" y="-593" on="1"/>
        <pt x="933" y="-589" on="0"/>
        <pt x="922" y="-577" on="0"/>
        <pt x="922" y="-563" on="1"/>
        <pt x="922" y="-546" on="0"/>
        <pt x="971" y="-489" on="0"/>
        <pt x="986" y="-485" on="1"/>
        <pt x="1053" y="-466" on="0"/>
        <pt x="1347" y="-368" on="1"/>
        <pt x="1371" y="-393" on="0"/>
      </contour>
      <contour>
        <pt x="696" y="-286" on="1"/>
        <pt x="696" y="-325" on="0"/>
        <pt x="516" y="-402" on="1"/>
        <pt x="389" y="-451" on="0"/>
        <pt x="262" y="-500" on="1"/>
        <pt x="226" y="-500" on="1"/>
        <pt x="226" y="-443" on="1"/>
        <pt x="232" y="-431" on="0"/>
        <pt x="248" y="-413" on="1"/>
        <pt x="298" y="-395" on="0"/>
        <pt x="479" y="-319" on="1"/>
        <pt x="631" y="-256" on="0"/>
        <pt x="641" y="-256" on="1"/>
        <pt x="683" y="-256" on="1"/>
        <pt x="696" y="-269" on="0"/>
      </contour>
      <contour>
        <pt x="1965" y="218" on="1"/>
        <pt x="1965" y="252" on="1"/>
        <pt x="1932" y="286" on="0"/>
        <pt x="1907" y="286" on="1"/>
        <pt x="1883" y="262" on="0"/>
        <pt x="1883" y="246" on="1"/>
        <pt x="1883" y="213" on="0"/>
        <pt x="1931" y="194" on="1"/>
        <pt x="1942" y="201" on="0"/>
      </contour>
    </TTGlyph>
    <TTGlyph name="uniFB52" xMin="314" yMin="-886" xMax="6464" yMax="1648">
      <contour>
        <pt x="6464" y="1418" on="1"/>
        <pt x="6464" y="1348" on="0"/>
        <pt x="6369" y="1289" on="1"/>
        <pt x="6288" y="1239" on="0"/>
        <pt x="6228" y="1239" on="1"/>
        <pt x="6217" y="1239" on="0"/>
        <pt x="6129" y="1259" on="0"/>
        <pt x="6116" y="1259" on="1"/>
        <pt x="6108" y="1259" on="0"/>
        <pt x="5986" y="1198" on="1"/>
        <pt x="5972" y="1199" on="0"/>
        <pt x="5972" y="1223" on="1"/>
        <pt x="5972" y="1261" on="0"/>
        <pt x="6047" y="1318" on="1"/>
        <pt x="6116" y="1372" on="0"/>
        <pt x="6146" y="1372" on="1"/>
        <pt x="6159" y="1372" on="0"/>
        <pt x="6179" y="1362" on="0"/>
        <pt x="6193" y="1362" on="1"/>
        <pt x="6213" y="1362" on="0"/>
        <pt x="6338" y="1505" on="0"/>
        <pt x="6382" y="1505" on="1"/>
        <pt x="6414" y="1505" on="0"/>
        <pt x="6440" y="1474" on="1"/>
        <pt x="6464" y="1445" on="0"/>
      </contour>
      <contour>
        <pt x="5849" y="1307" on="1"/>
        <pt x="5851" y="1270" on="0"/>
        <pt x="5735" y="1202" on="1"/>
        <pt x="5622" y="1136" on="0"/>
        <pt x="5573" y="1136" on="1"/>
        <pt x="5536" y="1136" on="0"/>
        <pt x="5512" y="1160" on="1"/>
        <pt x="5514" y="1188" on="0"/>
        <pt x="5571" y="1209" on="1"/>
        <pt x="5641" y="1236" on="0"/>
        <pt x="5665" y="1264" on="1"/>
        <pt x="5643" y="1290" on="0"/>
        <pt x="5608" y="1290" on="1"/>
        <pt x="5595" y="1290" on="0"/>
        <pt x="5557" y="1274" on="1"/>
        <pt x="5510" y="1254" on="0"/>
        <pt x="5492" y="1250" on="1"/>
        <pt x="5492" y="1286" on="1"/>
        <pt x="5506" y="1314" on="0"/>
        <pt x="5562" y="1352" on="1"/>
        <pt x="5622" y="1393" on="0"/>
        <pt x="5660" y="1393" on="1"/>
        <pt x="5675" y="1393" on="0"/>
        <pt x="5754" y="1359" on="1"/>
        <pt x="5838" y="1324" on="0"/>
      </contour>
      <contour>
        <pt x="6320" y="153" on="1"/>
        <pt x="6320" y="116" on="0"/>
        <pt x="6293" y="52" on="1"/>
        <pt x="6265" y="-16" on="0"/>
        <pt x="6241" y="-30" on="1"/>
        <pt x="6116" y="926" on="1"/>
        <pt x="6113" y="938" on="0"/>
        <pt x="6113" y="951" on="1"/>
        <pt x="6113" y="1020" on="0"/>
        <pt x="6170" y="1085" on="1"/>
        <pt x="6179" y="1085" on="0"/>
        <pt x="6212" y="1062" on="0"/>
        <pt x="6214" y="1050" on="1"/>
      </contour>
      <contour>
        <pt x="5255" y="1607" on="1"/>
        <pt x="5255" y="1564" on="0"/>
        <pt x="5085" y="1466" on="1"/>
        <pt x="4969" y="1404" on="0"/>
        <pt x="4852" y="1342" on="1"/>
        <pt x="4817" y="1342" on="1"/>
        <pt x="4805" y="1343" on="0"/>
        <pt x="4805" y="1366" on="1"/>
        <pt x="4805" y="1407" on="0"/>
        <pt x="4914" y="1473" on="1"/>
        <pt x="4974" y="1505" on="0"/>
        <pt x="5033" y="1538" on="1"/>
        <pt x="5101" y="1578" on="0"/>
        <pt x="5231" y="1648" on="1"/>
        <pt x="5255" y="1624" on="0"/>
      </contour>
      <contour>
        <pt x="5225" y="1034" on="1"/>
        <pt x="5225" y="1009" on="0"/>
        <pt x="5140" y="942" on="0"/>
        <pt x="5117" y="942" on="1"/>
        <pt x="5106" y="942" on="0"/>
        <pt x="5066" y="972" on="0"/>
        <pt x="5056" y="972" on="1"/>
        <pt x="5043" y="972" on="0"/>
        <pt x="4966" y="911" on="0"/>
        <pt x="4953" y="911" on="1"/>
        <pt x="4912" y="911" on="0"/>
        <pt x="4856" y="964" on="1"/>
        <pt x="4856" y="977" on="0"/>
        <pt x="4886" y="1027" on="1"/>
        <pt x="4920" y="1085" on="0"/>
        <pt x="4948" y="1085" on="1"/>
        <pt x="4974" y="1085" on="0"/>
        <pt x="5035" y="1044" on="1"/>
        <pt x="5047" y="1052" on="0"/>
        <pt x="5083" y="1093" on="1"/>
        <pt x="5113" y="1126" on="0"/>
        <pt x="5128" y="1126" on="1"/>
        <pt x="5157" y="1126" on="0"/>
        <pt x="5192" y="1089" on="1"/>
        <pt x="5225" y="1054" on="0"/>
      </contour>
      <contour>
        <pt x="4775" y="1582" on="1"/>
        <pt x="4775" y="1545" on="0"/>
        <pt x="4584" y="1428" on="1"/>
        <pt x="4467" y="1359" on="0"/>
        <pt x="4351" y="1290" on="1"/>
        <pt x="4316" y="1290" on="1"/>
        <pt x="4304" y="1292" on="0"/>
        <pt x="4304" y="1316" on="1"/>
        <pt x="4304" y="1367" on="0"/>
        <pt x="4508" y="1493" on="1"/>
        <pt x="4637" y="1573" on="0"/>
        <pt x="4727" y="1617" on="1"/>
        <pt x="4761" y="1617" on="1"/>
        <pt x="4775" y="1604" on="0"/>
      </contour>
      <contour>
        <pt x="4184" y="1512" on="1"/>
        <pt x="4150" y="1468" on="0"/>
        <pt x="4063" y="1428" on="1"/>
        <pt x="3994" y="1397" on="0"/>
        <pt x="3924" y="1366" on="1"/>
        <pt x="3848" y="1378" on="1"/>
        <pt x="3848" y="1415" on="1"/>
        <pt x="3915" y="1442" on="0"/>
        <pt x="4000" y="1495" on="1"/>
        <pt x="3989" y="1520" on="0"/>
        <pt x="3949" y="1520" on="1"/>
        <pt x="3936" y="1520" on="0"/>
        <pt x="3903" y="1508" on="1"/>
        <pt x="3862" y="1494" on="0"/>
        <pt x="3837" y="1489" on="1"/>
        <pt x="3837" y="1523" on="1"/>
        <pt x="3837" y="1552" on="0"/>
        <pt x="3901" y="1588" on="1"/>
        <pt x="3960" y="1621" on="0"/>
        <pt x="3985" y="1621" on="1"/>
        <pt x="4056" y="1621" on="0"/>
        <pt x="4184" y="1558" on="1"/>
      </contour>
      <contour>
        <pt x="4702" y="718" on="1"/>
        <pt x="4647" y="665" on="0"/>
        <pt x="4605" y="665" on="1"/>
        <pt x="4571" y="665" on="0"/>
        <pt x="4508" y="703" on="0"/>
        <pt x="4508" y="727" on="1"/>
        <pt x="4508" y="743" on="0"/>
        <pt x="4575" y="829" on="0"/>
        <pt x="4595" y="829" on="1"/>
        <pt x="4618" y="829" on="0"/>
        <pt x="4702" y="777" on="1"/>
      </contour>
      <contour>
        <pt x="5992" y="290" on="1"/>
        <pt x="5992" y="278" on="0"/>
        <pt x="5978" y="260" on="1"/>
        <pt x="5957" y="233" on="0"/>
        <pt x="5953" y="228" on="1"/>
        <pt x="5898" y="123" on="0"/>
        <pt x="5785" y="75" on="1"/>
        <pt x="5739" y="54" on="0"/>
        <pt x="5640" y="23" on="1"/>
        <pt x="5430" y="-20" on="0"/>
        <pt x="5353" y="-20" on="1"/>
        <pt x="5151" y="-20" on="0"/>
        <pt x="5109" y="250" on="1"/>
        <pt x="5102" y="288" on="0"/>
        <pt x="5076" y="328" on="1"/>
        <pt x="5028" y="291" on="0"/>
        <pt x="4950" y="207" on="1"/>
        <pt x="4938" y="189" on="0"/>
        <pt x="4920" y="63" on="0"/>
        <pt x="4903" y="34" on="1"/>
        <pt x="4761" y="-224" on="0"/>
        <pt x="4627" y="-263" on="1"/>
        <pt x="4582" y="-276" on="0"/>
        <pt x="4462" y="-276" on="1"/>
        <pt x="4377" y="-276" on="0"/>
        <pt x="4276" y="-245" on="1"/>
        <pt x="4159" y="-209" on="0"/>
        <pt x="4129" y="-158" on="1"/>
        <pt x="4154" y="-133" on="0"/>
        <pt x="4165" y="-133" on="1"/>
        <pt x="4173" y="-133" on="0"/>
        <pt x="4367" y="-174" on="0"/>
        <pt x="4381" y="-174" on="1"/>
        <pt x="4495" y="-174" on="0"/>
        <pt x="4612" y="-99" on="1"/>
        <pt x="4745" y="-15" on="0"/>
        <pt x="4833" y="141" on="1"/>
        <pt x="4847" y="166" on="0"/>
        <pt x="4847" y="208" on="1"/>
        <pt x="4775" y="244" on="0"/>
        <pt x="4775" y="301" on="1"/>
        <pt x="4775" y="330" on="0"/>
        <pt x="4825" y="389" on="0"/>
        <pt x="4846" y="389" on="1"/>
        <pt x="4857" y="389" on="0"/>
        <pt x="4889" y="378" on="0"/>
        <pt x="4902" y="378" on="1"/>
        <pt x="4970" y="378" on="0"/>
        <pt x="5013" y="441" on="1"/>
        <pt x="5036" y="473" on="0"/>
        <pt x="5083" y="593" on="1"/>
        <pt x="5131" y="593" on="1"/>
        <pt x="5135" y="565" on="0"/>
        <pt x="5146" y="519" on="1"/>
        <pt x="5167" y="420" on="0"/>
        <pt x="5217" y="232" on="1"/>
        <pt x="5227" y="200" on="0"/>
        <pt x="5294" y="155" on="1"/>
        <pt x="5312" y="143" on="0"/>
        <pt x="5344" y="143" on="1"/>
        <pt x="5400" y="143" on="1"/>
        <pt x="5401" y="206" on="0"/>
        <pt x="5423" y="324" on="1"/>
        <pt x="5445" y="387" on="0"/>
        <pt x="5516" y="481" on="1"/>
        <pt x="5608" y="604" on="0"/>
        <pt x="5676" y="604" on="1"/>
        <pt x="5718" y="604" on="0"/>
        <pt x="5845" y="523" on="0"/>
        <pt x="5870" y="477" on="1"/>
        <pt x="5870" y="430" on="0"/>
        <pt x="5834" y="430" on="1"/>
        <pt x="5821" y="430" on="0"/>
        <pt x="5765" y="471" on="0"/>
        <pt x="5752" y="471" on="1"/>
        <pt x="5679" y="471" on="0"/>
        <pt x="5532" y="367" on="0"/>
        <pt x="5532" y="317" on="1"/>
        <pt x="5532" y="280" on="0"/>
        <pt x="5629" y="174" on="0"/>
        <pt x="5660" y="174" on="1"/>
        <pt x="5712" y="174" on="0"/>
        <pt x="5834" y="251" on="1"/>
        <pt x="5983" y="343" on="0"/>
        <pt x="5992" y="347" on="1"/>
      </contour>
      <contour>
        <pt x="3580" y="1320" on="1"/>
        <pt x="3580" y="1287" on="0"/>
        <pt x="3556" y="1263" on="1"/>
        <pt x="3525" y="1263" on="1"/>
        <pt x="3512" y="1263" on="0"/>
        <pt x="3445" y="1315" on="0"/>
        <pt x="3432" y="1315" on="1"/>
        <pt x="3429" y="1315" on="0"/>
        <pt x="3371" y="1261" on="1"/>
        <pt x="3302" y="1194" on="0"/>
        <pt x="3239" y="1154" on="1"/>
        <pt x="3144" y="1094" on="0"/>
        <pt x="3052" y="1079" on="1"/>
        <pt x="3027" y="1105" on="1"/>
        <pt x="3137" y="1182" on="0"/>
        <pt x="3345" y="1351" on="1"/>
        <pt x="3334" y="1366" on="0"/>
        <pt x="3284" y="1405" on="1"/>
        <pt x="3243" y="1437" on="0"/>
        <pt x="3243" y="1452" on="1"/>
        <pt x="3243" y="1483" on="0"/>
        <pt x="3310" y="1555" on="1"/>
        <pt x="3380" y="1632" on="0"/>
        <pt x="3422" y="1632" on="1"/>
        <pt x="3465" y="1632" on="0"/>
        <pt x="3475" y="1556" on="1"/>
        <pt x="3477" y="1500" on="0"/>
        <pt x="3479" y="1443" on="1"/>
        <pt x="3479" y="1438" on="0"/>
        <pt x="3480" y="1434" on="1"/>
        <pt x="3493" y="1416" on="0"/>
        <pt x="3546" y="1381" on="1"/>
        <pt x="3580" y="1358" on="0"/>
      </contour>
      <contour>
        <pt x="3632" y="674" on="1"/>
        <pt x="3632" y="648" on="0"/>
        <pt x="3588" y="616" on="1"/>
        <pt x="3548" y="587" on="0"/>
        <pt x="3529" y="587" on="1"/>
        <pt x="3519" y="587" on="0"/>
        <pt x="3461" y="618" on="0"/>
        <pt x="3447" y="618" on="1"/>
        <pt x="3434" y="618" on="0"/>
        <pt x="3352" y="546" on="0"/>
        <pt x="3340" y="546" on="1"/>
        <pt x="3329" y="546" on="0"/>
        <pt x="3233" y="611" on="1"/>
        <pt x="3235" y="630" on="0"/>
        <pt x="3269" y="677" on="1"/>
        <pt x="3306" y="731" on="0"/>
        <pt x="3329" y="731" on="1"/>
        <pt x="3367" y="731" on="0"/>
        <pt x="3421" y="690" on="1"/>
        <pt x="3500" y="772" on="0"/>
        <pt x="3519" y="772" on="1"/>
        <pt x="3561" y="772" on="0"/>
        <pt x="3598" y="735" on="1"/>
        <pt x="3632" y="702" on="0"/>
      </contour>
      <contour>
        <pt x="2904" y="1213" on="1"/>
        <pt x="2898" y="1204" on="0"/>
        <pt x="2892" y="1194" on="1"/>
        <pt x="2884" y="1181" on="0"/>
        <pt x="2869" y="1181" on="1"/>
        <pt x="2854" y="1181" on="0"/>
        <pt x="2777" y="1233" on="1"/>
        <pt x="2731" y="1183" on="0"/>
        <pt x="2636" y="1093" on="1"/>
        <pt x="2566" y="1035" on="0"/>
        <pt x="2429" y="976" on="1"/>
        <pt x="2332" y="991" on="1"/>
        <pt x="2417" y="1047" on="0"/>
        <pt x="2502" y="1103" on="1"/>
        <pt x="2605" y="1173" on="0"/>
        <pt x="2690" y="1258" on="1"/>
        <pt x="2663" y="1294" on="0"/>
        <pt x="2615" y="1321" on="1"/>
        <pt x="2587" y="1338" on="0"/>
        <pt x="2587" y="1381" on="1"/>
        <pt x="2587" y="1431" on="0"/>
        <pt x="2641" y="1493" on="1"/>
        <pt x="2699" y="1561" on="0"/>
        <pt x="2756" y="1561" on="1"/>
        <pt x="2807" y="1561" on="0"/>
        <pt x="2817" y="1460" on="1"/>
        <pt x="2817" y="1407" on="0"/>
        <pt x="2818" y="1352" on="1"/>
        <pt x="2860" y="1299" on="0"/>
        <pt x="2904" y="1272" on="1"/>
      </contour>
      <contour>
        <pt x="4133" y="260" on="1"/>
        <pt x="4131" y="221" on="0"/>
        <pt x="4118" y="161" on="1"/>
        <pt x="4070" y="66" on="0"/>
        <pt x="4028" y="38" on="1"/>
        <pt x="3977" y="4" on="0"/>
        <pt x="3872" y="4" on="1"/>
        <pt x="3801" y="4" on="0"/>
        <pt x="3773" y="11" on="1"/>
        <pt x="3715" y="28" on="0"/>
        <pt x="3617" y="96" on="1"/>
        <pt x="3523" y="-36" on="0"/>
        <pt x="3258" y="-36" on="1"/>
        <pt x="3247" y="-36" on="0"/>
        <pt x="3163" y="-16" on="0"/>
        <pt x="3150" y="-16" on="1"/>
        <pt x="3112" y="-16" on="0"/>
        <pt x="3069" y="-98" on="0"/>
        <pt x="3048" y="-98" on="1"/>
        <pt x="2980" y="-98" on="0"/>
        <pt x="2876" y="-54" on="1"/>
        <pt x="2761" y="-5" on="0"/>
        <pt x="2744" y="45" on="1"/>
        <pt x="2710" y="16" on="0"/>
        <pt x="2646" y="-33" on="1"/>
        <pt x="2632" y="-43" on="0"/>
        <pt x="2524" y="-80" on="1"/>
        <pt x="2399" y="-349" on="0"/>
        <pt x="2286" y="-434" on="1"/>
        <pt x="2189" y="-507" on="0"/>
        <pt x="1997" y="-507" on="1"/>
        <pt x="1887" y="-507" on="1"/>
        <pt x="1836" y="-507" on="0"/>
        <pt x="1728" y="-464" on="1"/>
        <pt x="1728" y="-429" on="1"/>
        <pt x="1751" y="-405" on="0"/>
        <pt x="1804" y="-405" on="1"/>
        <pt x="1816" y="-405" on="0"/>
        <pt x="1909" y="-416" on="0"/>
        <pt x="1922" y="-416" on="1"/>
        <pt x="2048" y="-416" on="0"/>
        <pt x="2186" y="-334" on="1"/>
        <pt x="2337" y="-244" on="0"/>
        <pt x="2404" y="-105" on="1"/>
        <pt x="2265" y="-84" on="0"/>
        <pt x="2247" y="-78" on="1"/>
        <pt x="2147" y="-45" on="0"/>
        <pt x="2147" y="34" on="1"/>
        <pt x="2147" y="96" on="0"/>
        <pt x="2203" y="193" on="1"/>
        <pt x="2265" y="301" on="0"/>
        <pt x="2321" y="301" on="1"/>
        <pt x="2377" y="301" on="0"/>
        <pt x="2434" y="202" on="1"/>
        <pt x="2464" y="144" on="0"/>
        <pt x="2492" y="85" on="1"/>
        <pt x="2570" y="83" on="0"/>
        <pt x="2612" y="88" on="1"/>
        <pt x="2645" y="93" on="0"/>
        <pt x="2681" y="118" on="1"/>
        <pt x="2686" y="122" on="0"/>
        <pt x="2795" y="240" on="1"/>
        <pt x="2879" y="332" on="0"/>
        <pt x="2931" y="332" on="1"/>
        <pt x="2941" y="332" on="0"/>
        <pt x="3005" y="269" on="1"/>
        <pt x="3077" y="197" on="0"/>
        <pt x="3107" y="180" on="1"/>
        <pt x="3171" y="143" on="0"/>
        <pt x="3216" y="134" on="1"/>
        <pt x="3251" y="127" on="0"/>
        <pt x="3340" y="127" on="1"/>
        <pt x="3417" y="127" on="0"/>
        <pt x="3513" y="150" on="1"/>
        <pt x="3548" y="158" on="0"/>
        <pt x="3586" y="206" on="1"/>
        <pt x="3619" y="250" on="0"/>
        <pt x="3657" y="250" on="1"/>
        <pt x="3696" y="250" on="0"/>
        <pt x="3727" y="215" on="1"/>
        <pt x="3761" y="177" on="0"/>
        <pt x="3792" y="170" on="1"/>
        <pt x="3850" y="157" on="0"/>
        <pt x="3892" y="157" on="1"/>
        <pt x="3982" y="157" on="0"/>
        <pt x="4032" y="194" on="1"/>
        <pt x="3974" y="673" on="0"/>
        <pt x="3935" y="899" on="1"/>
        <pt x="3931" y="922" on="0"/>
        <pt x="3908" y="981" on="1"/>
        <pt x="3887" y="1035" on="0"/>
        <pt x="3887" y="1049" on="1"/>
        <pt x="3887" y="1081" on="0"/>
        <pt x="3962" y="1239" on="0"/>
        <pt x="3985" y="1253" on="1"/>
        <pt x="4014" y="1232" on="0"/>
        <pt x="4019" y="1187" on="1"/>
        <pt x="4021" y="1152" on="0"/>
        <pt x="4023" y="1117" on="1"/>
        <pt x="4052" y="1102" on="0"/>
        <pt x="4102" y="1066" on="1"/>
        <pt x="4077" y="999" on="0"/>
        <pt x="4041" y="874" on="1"/>
      </contour>
      <contour>
        <pt x="1686" y="1222" on="1"/>
        <pt x="1686" y="1208" on="0"/>
        <pt x="1673" y="1191" on="1"/>
        <pt x="1654" y="1165" on="0"/>
        <pt x="1653" y="1162" on="1"/>
        <pt x="1596" y="1180" on="0"/>
        <pt x="1548" y="1212" on="1"/>
        <pt x="1520" y="1194" on="0"/>
        <pt x="1407" y="1082" on="1"/>
        <pt x="1309" y="986" on="0"/>
        <pt x="1253" y="969" on="1"/>
        <pt x="1239" y="963" on="0"/>
        <pt x="1226" y="956" on="1"/>
        <pt x="1204" y="946" on="0"/>
        <pt x="1188" y="947" on="1"/>
        <pt x="1145" y="947" on="1"/>
        <pt x="1145" y="984" on="1"/>
        <pt x="1247" y="1061" on="0"/>
        <pt x="1462" y="1239" on="1"/>
        <pt x="1462" y="1269" on="0"/>
        <pt x="1422" y="1282" on="1"/>
        <pt x="1373" y="1298" on="0"/>
        <pt x="1359" y="1316" on="1"/>
        <pt x="1357" y="1325" on="0"/>
        <pt x="1357" y="1336" on="1"/>
        <pt x="1357" y="1396" on="0"/>
        <pt x="1424" y="1466" on="1"/>
        <pt x="1487" y="1532" on="0"/>
        <pt x="1540" y="1539" on="1"/>
        <pt x="1577" y="1501" on="0"/>
        <pt x="1582" y="1441" on="1"/>
        <pt x="1584" y="1386" on="0"/>
        <pt x="1585" y="1332" on="1"/>
        <pt x="1686" y="1252" on="0"/>
      </contour>
      <contour>
        <pt x="826" y="1263" on="1"/>
        <pt x="826" y="1208" on="0"/>
        <pt x="681" y="1139" on="1"/>
        <pt x="556" y="1079" on="0"/>
        <pt x="519" y="1079" on="1"/>
        <pt x="474" y="1079" on="0"/>
        <pt x="437" y="1116" on="1"/>
        <pt x="450" y="1123" on="0"/>
        <pt x="622" y="1209" on="1"/>
        <pt x="615" y="1233" on="0"/>
        <pt x="580" y="1233" on="1"/>
        <pt x="568" y="1233" on="0"/>
        <pt x="505" y="1192" on="0"/>
        <pt x="493" y="1193" on="1"/>
        <pt x="439" y="1193" on="1"/>
        <pt x="439" y="1191" on="0"/>
        <pt x="451" y="1240" on="1"/>
        <pt x="567" y="1345" on="0"/>
        <pt x="611" y="1345" on="1"/>
        <pt x="624" y="1345" on="0"/>
        <pt x="696" y="1328" on="1"/>
        <pt x="778" y="1307" on="0"/>
        <pt x="815" y="1303" on="1"/>
        <pt x="815" y="1299" on="0"/>
        <pt x="826" y="1278" on="0"/>
      </contour>
      <contour>
        <pt x="1870" y="234" on="1"/>
        <pt x="1870" y="170" on="0"/>
        <pt x="1838" y="88" on="1"/>
        <pt x="1796" y="-16" on="0"/>
        <pt x="1732" y="-16" on="1"/>
        <pt x="1720" y="-16" on="0"/>
        <pt x="1515" y="34" on="0"/>
        <pt x="1502" y="34" on="1"/>
        <pt x="1490" y="34" on="0"/>
        <pt x="1121" y="-36" on="0"/>
        <pt x="1108" y="-36" on="1"/>
        <pt x="1096" y="-36" on="0"/>
        <pt x="971" y="-27" on="0"/>
        <pt x="960" y="-27" on="1"/>
        <pt x="966" y="-27" on="0"/>
        <pt x="896" y="-40" on="1"/>
        <pt x="895" y="-41" on="0"/>
        <pt x="856" y="-164" on="1"/>
        <pt x="826" y="-262" on="0"/>
        <pt x="785" y="-262" on="1"/>
        <pt x="756" y="-262" on="0"/>
        <pt x="676" y="-167" on="1"/>
        <pt x="642" y="-128" on="0"/>
        <pt x="642" y="-41" on="1"/>
        <pt x="642" y="57" on="0"/>
        <pt x="624" y="97" on="1"/>
        <pt x="498" y="88" on="0"/>
        <pt x="461" y="67" on="1"/>
        <pt x="407" y="37" on="0"/>
        <pt x="407" y="-57" on="1"/>
        <pt x="478" y="-733" on="1"/>
        <pt x="478" y="-809" on="0"/>
        <pt x="420" y="-886" on="1"/>
        <pt x="314" y="-88" on="1"/>
        <pt x="344" y="128" on="0"/>
        <pt x="460" y="214" on="1"/>
        <pt x="487" y="234" on="0"/>
        <pt x="577" y="251" on="1"/>
        <pt x="659" y="267" on="0"/>
        <pt x="687" y="301" on="1"/>
        <pt x="702" y="296" on="0"/>
        <pt x="734" y="265" on="1"/>
        <pt x="777" y="223" on="0"/>
        <pt x="793" y="211" on="1"/>
        <pt x="875" y="148" on="0"/>
        <pt x="955" y="129" on="1"/>
        <pt x="1010" y="116" on="0"/>
        <pt x="1068" y="116" on="1"/>
        <pt x="1106" y="116" on="1"/>
        <pt x="1172" y="116" on="0"/>
        <pt x="1258" y="138" on="1"/>
        <pt x="1291" y="238" on="0"/>
        <pt x="1355" y="441" on="1"/>
        <pt x="1356" y="445" on="0"/>
        <pt x="1356" y="453" on="1"/>
        <pt x="1356" y="462" on="0"/>
        <pt x="1351" y="530" on="0"/>
        <pt x="1351" y="551" on="1"/>
        <pt x="1351" y="669" on="0"/>
        <pt x="1420" y="669" on="1"/>
        <pt x="1441" y="669" on="0"/>
        <pt x="1808" y="376" on="0"/>
        <pt x="1835" y="340" on="1"/>
        <pt x="1870" y="292" on="0"/>
      </contour>
      <contour>
        <pt x="6350" y="1363" on="1"/>
        <pt x="6350" y="1392" on="0"/>
        <pt x="6334" y="1392" on="1"/>
        <pt x="6291" y="1371" on="0"/>
        <pt x="6291" y="1352" on="1"/>
        <pt x="6309" y="1352" on="0"/>
        <pt x="6347" y="1363" on="0"/>
      </contour>
      <contour>
        <pt x="3405" y="1470" on="1"/>
        <pt x="3405" y="1501" on="0"/>
        <pt x="3367" y="1519" on="1"/>
        <pt x="3367" y="1481" on="1"/>
        <pt x="3378" y="1470" on="0"/>
      </contour>
      <contour>
        <pt x="2739" y="1387" on="1"/>
        <pt x="2739" y="1436" on="1"/>
        <pt x="2702" y="1436" on="1"/>
        <pt x="2690" y="1399" on="1"/>
      </contour>
      <contour>
        <pt x="2944" y="97" on="1"/>
        <pt x="2944" y="133" on="1"/>
        <pt x="2928" y="161" on="0"/>
        <pt x="2901" y="208" on="1"/>
        <pt x="2874" y="197" on="0"/>
        <pt x="2854" y="151" on="1"/>
        <pt x="2913" y="111" on="0"/>
      </contour>
      <contour>
        <pt x="1522" y="1382" on="1"/>
        <pt x="1505" y="1416" on="0"/>
        <pt x="1484" y="1416" on="1"/>
        <pt x="1472" y="1379" on="1"/>
        <pt x="1486" y="1371" on="0"/>
        <pt x="1504" y="1373" on="1"/>
        <pt x="1522" y="1375" on="0"/>
      </contour>
      <contour>
        <pt x="2341" y="78" on="1"/>
        <pt x="2318" y="125" on="0"/>
        <pt x="2293" y="137" on="1"/>
        <pt x="2281" y="88" on="1"/>
        <pt x="2291" y="88" on="0"/>
        <pt x="2330" y="78" on="0"/>
      </contour>
      <contour>
        <pt x="1778" y="170" on="1"/>
        <pt x="1778" y="206" on="1"/>
        <pt x="1672" y="311" on="0"/>
        <pt x="1639" y="310" on="1"/>
        <pt x="1606" y="310" on="1"/>
        <pt x="1606" y="201" on="1"/>
        <pt x="1691" y="157" on="0"/>
        <pt x="1748" y="157" on="1"/>
        <pt x="1765" y="157" on="0"/>
      </contour>
      <contour>
        <pt x="1512" y="265" on="1"/>
        <pt x="1512" y="335" on="0"/>
        <pt x="1435" y="362" on="1"/>
        <pt x="1386" y="320" on="0"/>
        <pt x="1390" y="241" on="1"/>
        <pt x="1435" y="198" on="0"/>
        <pt x="1472" y="198" on="1"/>
        <pt x="1486" y="198" on="0"/>
        <pt x="1497" y="211" on="0"/>
        <pt x="1500" y="211" on="1"/>
        <pt x="1500" y="220" on="0"/>
        <pt x="1512" y="253" on="0"/>
      </contour>
    </TTGlyph>
    <TTGlyph name="uniFB53" xMin="244" yMin="-367" xMax="1923" yMax="1456">
      <contour>
        <pt x="1861" y="1425" on="1"/>
        <pt x="1861" y="1409" on="0"/>
        <pt x="1846" y="1378" on="1"/>
        <pt x="1575" y="1186" on="0"/>
        <pt x="1313" y="1077" on="1"/>
        <pt x="1305" y="1082" on="0"/>
        <pt x="1288" y="1092" on="0"/>
        <pt x="1288" y="1108" on="1"/>
        <pt x="1288" y="1172" on="0"/>
        <pt x="1598" y="1325" on="1"/>
        <pt x="1670" y="1370" on="0"/>
        <pt x="1814" y="1456" on="1"/>
        <pt x="1848" y="1456" on="1"/>
        <pt x="1861" y="1442" on="0"/>
      </contour>
      <contour>
        <pt x="1155" y="1415" on="1"/>
        <pt x="1155" y="1363" on="0"/>
        <pt x="957" y="1240" on="1"/>
        <pt x="824" y="1164" on="0"/>
        <pt x="690" y="1088" on="1"/>
        <pt x="656" y="1088" on="1"/>
        <pt x="643" y="1101" on="0"/>
        <pt x="643" y="1123" on="1"/>
        <pt x="643" y="1165" on="0"/>
        <pt x="847" y="1287" on="1"/>
        <pt x="982" y="1366" on="0"/>
        <pt x="1117" y="1445" on="1"/>
        <pt x="1155" y="1445" on="0"/>
      </contour>
      <contour>
        <pt x="1923" y="206" on="1"/>
        <pt x="1923" y="194" on="0"/>
        <pt x="1915" y="173" on="1"/>
        <pt x="1903" y="101" on="0"/>
        <pt x="1888" y="35" on="1"/>
        <pt x="1808" y="-126" on="0"/>
        <pt x="1695" y="-235" on="1"/>
        <pt x="1556" y="-367" on="0"/>
        <pt x="1411" y="-367" on="1"/>
        <pt x="1307" y="-367" on="0"/>
        <pt x="1167" y="-341" on="1"/>
        <pt x="1012" y="-312" on="0"/>
        <pt x="991" y="-279" on="1"/>
        <pt x="998" y="-267" on="0"/>
        <pt x="1016" y="-247" on="1"/>
        <pt x="1140" y="-274" on="0"/>
        <pt x="1232" y="-274" on="1"/>
        <pt x="1389" y="-274" on="0"/>
        <pt x="1554" y="-164" on="1"/>
        <pt x="1728" y="-48" on="0"/>
        <pt x="1831" y="141" on="1"/>
        <pt x="1823" y="187" on="1"/>
        <pt x="1807" y="166" on="0"/>
        <pt x="1774" y="129" on="1"/>
        <pt x="1739" y="94" on="0"/>
        <pt x="1692" y="94" on="1"/>
        <pt x="1633" y="94" on="0"/>
        <pt x="1544" y="180" on="0"/>
        <pt x="1544" y="233" on="1"/>
        <pt x="1544" y="287" on="0"/>
        <pt x="1584" y="386" on="1"/>
        <pt x="1635" y="514" on="0"/>
        <pt x="1703" y="514" on="1"/>
        <pt x="1787" y="514" on="0"/>
        <pt x="1860" y="383" on="1"/>
        <pt x="1923" y="274" on="0"/>
      </contour>
      <contour>
        <pt x="1125" y="233" on="1"/>
        <pt x="1125" y="94" on="0"/>
        <pt x="996" y="94" on="1"/>
        <pt x="913" y="94" on="0"/>
        <pt x="782" y="145" on="1"/>
        <pt x="759" y="103" on="0"/>
        <pt x="681" y="25" on="1"/>
        <pt x="645" y="2" on="0"/>
        <pt x="525" y="2" on="1"/>
        <pt x="514" y="2" on="0"/>
        <pt x="517" y="-8" on="0"/>
        <pt x="505" y="-8" on="1"/>
        <pt x="353" y="-8" on="0"/>
        <pt x="326" y="146" on="1"/>
        <pt x="319" y="281" on="0"/>
        <pt x="312" y="416" on="1"/>
        <pt x="292" y="561" on="0"/>
        <pt x="266" y="833" on="1"/>
        <pt x="244" y="1073" on="0"/>
        <pt x="244" y="1103" on="1"/>
        <pt x="244" y="1118" on="0"/>
        <pt x="297" y="1199" on="1"/>
        <pt x="328" y="1199" on="0"/>
        <pt x="341" y="1176" on="1"/>
        <pt x="377" y="1024" on="0"/>
        <pt x="377" y="971" on="1"/>
        <pt x="377" y="641" on="1"/>
        <pt x="377" y="587" on="0"/>
        <pt x="391" y="448" on="1"/>
        <pt x="412" y="261" on="0"/>
        <pt x="441" y="193" on="1"/>
        <pt x="456" y="156" on="0"/>
        <pt x="556" y="156" on="1"/>
        <pt x="648" y="156" on="0"/>
        <pt x="676" y="178" on="1"/>
        <pt x="696" y="193" on="0"/>
        <pt x="814" y="378" on="1"/>
        <pt x="914" y="534" on="0"/>
        <pt x="976" y="534" on="1"/>
        <pt x="1009" y="534" on="0"/>
        <pt x="1017" y="522" on="1"/>
        <pt x="1052" y="472" on="0"/>
        <pt x="1059" y="449" on="1"/>
        <pt x="1125" y="240" on="0"/>
      </contour>
      <contour>
        <pt x="1759" y="283" on="1"/>
        <pt x="1728" y="350" on="0"/>
        <pt x="1680" y="350" on="1"/>
        <pt x="1644" y="314" on="0"/>
        <pt x="1647" y="292" on="1"/>
        <pt x="1681" y="258" on="0"/>
        <pt x="1713" y="258" on="1"/>
        <pt x="1734" y="258" on="0"/>
      </contour>
      <contour>
        <pt x="970" y="269" on="1"/>
        <pt x="970" y="305" on="1"/>
        <pt x="952" y="344" on="0"/>
        <pt x="926" y="370" on="1"/>
        <pt x="892" y="357" on="0"/>
        <pt x="868" y="303" on="1"/>
        <pt x="903" y="268" on="0"/>
        <pt x="926" y="269" on="1"/>
      </contour>
    </TTGlyph>
    <TTGlyph name="uniFB54" xMin="315" yMin="-421" xMax="6419" yMax="1554">
      <contour>
        <pt x="6378" y="1447" on="1"/>
        <pt x="6378" y="1403" on="0"/>
        <pt x="6186" y="1288" on="1"/>
        <pt x="6060" y="1217" on="0"/>
        <pt x="5934" y="1145" on="1"/>
        <pt x="5887" y="1145" on="1"/>
        <pt x="5887" y="1189" on="1"/>
        <pt x="5886" y="1217" on="0"/>
        <pt x="5989" y="1278" on="1"/>
        <pt x="6046" y="1309" on="0"/>
        <pt x="6104" y="1341" on="1"/>
        <pt x="6257" y="1429" on="0"/>
        <pt x="6363" y="1482" on="1"/>
        <pt x="6378" y="1468" on="0"/>
      </contour>
      <contour>
        <pt x="5753" y="1313" on="1"/>
        <pt x="5753" y="1247" on="0"/>
        <pt x="5619" y="1185" on="1"/>
        <pt x="5510" y="1135" on="0"/>
        <pt x="5467" y="1135" on="1"/>
        <pt x="5417" y="1135" on="0"/>
        <pt x="5365" y="1170" on="1"/>
        <pt x="5384" y="1188" on="0"/>
        <pt x="5491" y="1218" on="1"/>
        <pt x="5534" y="1231" on="0"/>
        <pt x="5579" y="1263" on="1"/>
        <pt x="5549" y="1308" on="0"/>
        <pt x="5502" y="1308" on="1"/>
        <pt x="5470" y="1308" on="0"/>
        <pt x="5389" y="1247" on="1"/>
        <pt x="5365" y="1272" on="1"/>
        <pt x="5373" y="1297" on="0"/>
        <pt x="5396" y="1338" on="1"/>
        <pt x="5469" y="1411" on="0"/>
        <pt x="5528" y="1411" on="1"/>
        <pt x="5546" y="1411" on="0"/>
        <pt x="5740" y="1345" on="1"/>
        <pt x="5753" y="1337" on="0"/>
      </contour>
      <contour>
        <pt x="6419" y="-232" on="1"/>
        <pt x="6419" y="-267" on="0"/>
        <pt x="6375" y="-300" on="1"/>
        <pt x="6336" y="-330" on="0"/>
        <pt x="6312" y="-330" on="1"/>
        <pt x="6298" y="-330" on="0"/>
        <pt x="6242" y="-289" on="0"/>
        <pt x="6230" y="-289" on="1"/>
        <pt x="6217" y="-289" on="0"/>
        <pt x="6125" y="-350" on="0"/>
        <pt x="6112" y="-350" on="1"/>
        <pt x="6085" y="-350" on="0"/>
        <pt x="6009" y="-274" on="1"/>
        <pt x="6052" y="-203" on="0"/>
        <pt x="6055" y="-200" on="1"/>
        <pt x="6082" y="-166" on="0"/>
        <pt x="6117" y="-166" on="1"/>
        <pt x="6136" y="-166" on="0"/>
        <pt x="6209" y="-217" on="1"/>
        <pt x="6216" y="-212" on="0"/>
        <pt x="6265" y="-168" on="1"/>
        <pt x="6302" y="-135" on="0"/>
        <pt x="6316" y="-135" on="1"/>
        <pt x="6348" y="-135" on="0"/>
        <pt x="6385" y="-178" on="1"/>
        <pt x="6419" y="-217" on="0"/>
      </contour>
      <contour>
        <pt x="4841" y="1135" on="1"/>
        <pt x="4838" y="1135" on="0"/>
        <pt x="4816" y="1124" on="0"/>
        <pt x="4801" y="1124" on="1"/>
        <pt x="4789" y="1124" on="0"/>
        <pt x="4723" y="1176" on="0"/>
        <pt x="4703" y="1176" on="1"/>
        <pt x="4693" y="1176" on="0"/>
        <pt x="4631" y="1112" on="1"/>
        <pt x="4559" y="1039" on="0"/>
        <pt x="4522" y="1015" on="1"/>
        <pt x="4421" y="949" on="0"/>
        <pt x="4261" y="909" on="1"/>
        <pt x="4248" y="911" on="0"/>
        <pt x="4248" y="935" on="1"/>
        <pt x="4248" y="950" on="0"/>
        <pt x="4410" y="1056" on="1"/>
        <pt x="4581" y="1167" on="0"/>
        <pt x="4607" y="1230" on="1"/>
        <pt x="4573" y="1248" on="0"/>
        <pt x="4504" y="1300" on="1"/>
        <pt x="4502" y="1371" on="0"/>
        <pt x="4528" y="1408" on="1"/>
        <pt x="4553" y="1443" on="0"/>
        <pt x="4644" y="1524" on="0"/>
        <pt x="4662" y="1524" on="1"/>
        <pt x="4721" y="1524" on="0"/>
        <pt x="4736" y="1416" on="1"/>
        <pt x="4739" y="1356" on="0"/>
        <pt x="4742" y="1295" on="1"/>
        <pt x="4794" y="1257" on="0"/>
        <pt x="4841" y="1213" on="1"/>
      </contour>
      <contour>
        <pt x="6347" y="300" on="1"/>
        <pt x="6347" y="242" on="0"/>
        <pt x="6309" y="155" on="1"/>
        <pt x="6272" y="71" on="0"/>
        <pt x="6242" y="52" on="1"/>
        <pt x="6189" y="18" on="0"/>
        <pt x="6045" y="18" on="1"/>
        <pt x="5942" y="18" on="0"/>
        <pt x="5901" y="52" on="1"/>
        <pt x="5819" y="120" on="0"/>
        <pt x="5809" y="120" on="1"/>
        <pt x="5800" y="120" on="0"/>
        <pt x="5723" y="87" on="1"/>
        <pt x="5641" y="49" on="0"/>
        <pt x="5606" y="42" on="1"/>
        <pt x="5282" y="-32" on="0"/>
        <pt x="4970" y="-32" on="1"/>
        <pt x="4809" y="-32" on="0"/>
        <pt x="4763" y="-23" on="1"/>
        <pt x="4670" y="-4" on="0"/>
        <pt x="4549" y="79" on="1"/>
        <pt x="4531" y="59" on="0"/>
        <pt x="4482" y="12" on="1"/>
        <pt x="4419" y="-43" on="0"/>
        <pt x="4315" y="-43" on="1"/>
        <pt x="4215" y="-43" on="0"/>
        <pt x="4098" y="68" on="0"/>
        <pt x="4057" y="203" on="1"/>
        <pt x="4046" y="198" on="0"/>
        <pt x="4040" y="175" on="1"/>
        <pt x="4032" y="148" on="0"/>
        <pt x="4028" y="143" on="1"/>
        <pt x="3996" y="97" on="0"/>
        <pt x="3938" y="62" on="1"/>
        <pt x="3893" y="36" on="0"/>
        <pt x="3809" y="10" on="1"/>
        <pt x="3734" y="-12" on="0"/>
        <pt x="3710" y="-12" on="1"/>
        <pt x="3610" y="-12" on="1"/>
        <pt x="3563" y="-12" on="0"/>
        <pt x="3506" y="20" on="1"/>
        <pt x="3439" y="58" on="0"/>
        <pt x="3439" y="106" on="1"/>
        <pt x="3439" y="125" on="0"/>
        <pt x="3493" y="233" on="1"/>
        <pt x="3503" y="233" on="0"/>
        <pt x="3526" y="211" on="1"/>
        <pt x="3557" y="182" on="0"/>
        <pt x="3571" y="174" on="1"/>
        <pt x="3604" y="152" on="0"/>
        <pt x="3675" y="152" on="1"/>
        <pt x="3768" y="152" on="0"/>
        <pt x="3885" y="195" on="1"/>
        <pt x="4035" y="251" on="0"/>
        <pt x="4033" y="335" on="1"/>
        <pt x="3961" y="714" on="1"/>
        <pt x="3961" y="750" on="0"/>
        <pt x="4005" y="836" on="1"/>
        <pt x="4042" y="836" on="1"/>
        <pt x="4054" y="769" on="0"/>
        <pt x="4111" y="496" on="1"/>
        <pt x="4156" y="279" on="0"/>
        <pt x="4160" y="270" on="1"/>
        <pt x="4209" y="120" on="0"/>
        <pt x="4305" y="120" on="1"/>
        <pt x="4371" y="120" on="1"/>
        <pt x="4441" y="120" on="0"/>
        <pt x="4561" y="254" on="0"/>
        <pt x="4596" y="254" on="1"/>
        <pt x="4608" y="254" on="0"/>
        <pt x="4641" y="220" on="1"/>
        <pt x="4678" y="182" on="0"/>
        <pt x="4696" y="174" on="1"/>
        <pt x="4808" y="120" on="0"/>
        <pt x="5012" y="120" on="1"/>
        <pt x="5158" y="120" on="1"/>
        <pt x="5215" y="120" on="0"/>
        <pt x="5415" y="156" on="1"/>
        <pt x="5641" y="197" on="0"/>
        <pt x="5692" y="230" on="1"/>
        <pt x="5679" y="267" on="0"/>
        <pt x="5605" y="274" on="1"/>
        <pt x="5586" y="274" on="0"/>
        <pt x="5586" y="264" on="1"/>
        <pt x="5569" y="266" on="0"/>
        <pt x="5569" y="290" on="1"/>
        <pt x="5569" y="324" on="0"/>
        <pt x="5643" y="391" on="1"/>
        <pt x="5707" y="449" on="0"/>
        <pt x="5726" y="455" on="1"/>
        <pt x="5775" y="469" on="0"/>
        <pt x="5809" y="469" on="1"/>
        <pt x="5881" y="469" on="0"/>
        <pt x="5953" y="438" on="1"/>
        <pt x="6050" y="396" on="0"/>
        <pt x="6050" y="320" on="1"/>
        <pt x="6050" y="278" on="0"/>
        <pt x="5978" y="206" on="1"/>
        <pt x="5978" y="205" on="0"/>
        <pt x="6006" y="184" on="1"/>
        <pt x="6025" y="184" on="0"/>
        <pt x="6071" y="178" on="1"/>
        <pt x="6114" y="172" on="0"/>
        <pt x="6127" y="172" on="1"/>
        <pt x="6176" y="172" on="0"/>
        <pt x="6255" y="229" on="1"/>
        <pt x="6251" y="287" on="0"/>
        <pt x="6201" y="350" on="1"/>
        <pt x="6153" y="410" on="0"/>
        <pt x="6153" y="453" on="1"/>
        <pt x="6153" y="484" on="0"/>
        <pt x="6174" y="548" on="1"/>
        <pt x="6186" y="561" on="0"/>
        <pt x="6203" y="561" on="1"/>
        <pt x="6238" y="561" on="0"/>
        <pt x="6322" y="415" on="1"/>
        <pt x="6347" y="372" on="0"/>
      </contour>
      <contour>
        <pt x="4125" y="1217" on="1"/>
        <pt x="4125" y="1155" on="0"/>
        <pt x="4090" y="1155" on="1"/>
        <pt x="4077" y="1155" on="0"/>
        <pt x="4000" y="1217" on="0"/>
        <pt x="3987" y="1217" on="1"/>
        <pt x="3976" y="1217" on="0"/>
        <pt x="3917" y="1158" on="1"/>
        <pt x="3847" y="1087" on="0"/>
        <pt x="3816" y="1066" on="1"/>
        <pt x="3767" y="1032" on="0"/>
        <pt x="3685" y="995" on="1"/>
        <pt x="3607" y="960" on="0"/>
        <pt x="3587" y="961" on="1"/>
        <pt x="3543" y="961" on="1"/>
        <pt x="3543" y="999" on="1"/>
        <pt x="3638" y="1059" on="0"/>
        <pt x="3732" y="1120" on="1"/>
        <pt x="3879" y="1217" on="0"/>
        <pt x="3879" y="1247" on="1"/>
        <pt x="3879" y="1257" on="0"/>
        <pt x="3791" y="1321" on="1"/>
        <pt x="3788" y="1334" on="0"/>
        <pt x="3788" y="1360" on="1"/>
        <pt x="3788" y="1422" on="0"/>
        <pt x="3833" y="1461" on="1"/>
        <pt x="3888" y="1507" on="0"/>
        <pt x="3944" y="1554" on="1"/>
        <pt x="3987" y="1552" on="0"/>
        <pt x="4019" y="1448" on="1"/>
        <pt x="4014" y="1410" on="0"/>
        <pt x="4025" y="1336" on="1"/>
        <pt x="4038" y="1307" on="0"/>
        <pt x="4087" y="1280" on="1"/>
        <pt x="4125" y="1259" on="0"/>
      </contour>
      <contour>
        <pt x="4607" y="-324" on="1"/>
        <pt x="4607" y="-360" on="0"/>
        <pt x="4557" y="-394" on="1"/>
        <pt x="4517" y="-421" on="0"/>
        <pt x="4504" y="-421" on="1"/>
        <pt x="4490" y="-421" on="0"/>
        <pt x="4402" y="-367" on="1"/>
        <pt x="4448" y="-248" on="0"/>
        <pt x="4504" y="-248" on="1"/>
        <pt x="4541" y="-248" on="0"/>
        <pt x="4576" y="-280" on="1"/>
        <pt x="4607" y="-308" on="0"/>
      </contour>
      <contour>
        <pt x="3355" y="229" on="1"/>
        <pt x="3355" y="71" on="0"/>
        <pt x="3263" y="-90" on="1"/>
        <pt x="3159" y="-271" on="0"/>
        <pt x="3004" y="-321" on="1"/>
        <pt x="2962" y="-334" on="0"/>
        <pt x="2782" y="-334" on="1"/>
        <pt x="2810" y="-334" on="0"/>
        <pt x="2487" y="-301" on="1"/>
        <pt x="2487" y="-296" on="0"/>
        <pt x="2475" y="-260" on="0"/>
        <pt x="2475" y="-255" on="1"/>
        <pt x="2499" y="-231" on="0"/>
        <pt x="2536" y="-231" on="1"/>
        <pt x="2549" y="-231" on="0"/>
        <pt x="2703" y="-252" on="0"/>
        <pt x="2715" y="-252" on="1"/>
        <pt x="2897" y="-252" on="0"/>
        <pt x="3064" y="-114" on="1"/>
        <pt x="3211" y="7" on="0"/>
        <pt x="3263" y="152" on="1"/>
        <pt x="3267" y="158" on="0"/>
        <pt x="3258" y="168" on="1"/>
        <pt x="3220" y="124" on="0"/>
        <pt x="3186" y="106" on="0"/>
        <pt x="3145" y="106" on="1"/>
        <pt x="3078" y="106" on="0"/>
        <pt x="3040" y="160" on="1"/>
        <pt x="3007" y="207" on="0"/>
        <pt x="3007" y="275" on="1"/>
        <pt x="3007" y="342" on="0"/>
        <pt x="3043" y="432" on="1"/>
        <pt x="3089" y="546" on="0"/>
        <pt x="3156" y="546" on="1"/>
        <pt x="3253" y="546" on="0"/>
        <pt x="3312" y="413" on="1"/>
        <pt x="3355" y="314" on="0"/>
      </contour>
      <contour>
        <pt x="2506" y="1443" on="1"/>
        <pt x="2506" y="1423" on="0"/>
        <pt x="2488" y="1389" on="1"/>
        <pt x="2469" y="1349" on="0"/>
        <pt x="2447" y="1338" on="1"/>
        <pt x="2315" y="1281" on="0"/>
        <pt x="2103" y="1188" on="1"/>
        <pt x="1172" y="763" on="0"/>
        <pt x="669" y="496" on="1"/>
        <pt x="633" y="496" on="1"/>
        <pt x="633" y="500" on="0"/>
        <pt x="621" y="522" on="0"/>
        <pt x="621" y="537" on="1"/>
        <pt x="621" y="546" on="0"/>
        <pt x="686" y="632" on="0"/>
        <pt x="706" y="645" on="1"/>
        <pt x="784" y="694" on="0"/>
        <pt x="952" y="774" on="1"/>
        <pt x="1146" y="873" on="0"/>
        <pt x="1536" y="1064" on="1"/>
        <pt x="2036" y="1299" on="0"/>
        <pt x="2459" y="1467" on="1"/>
        <pt x="2493" y="1467" on="1"/>
        <pt x="2506" y="1466" on="0"/>
      </contour>
      <contour>
        <pt x="1799" y="403" on="1"/>
        <pt x="1799" y="353" on="0"/>
        <pt x="1697" y="311" on="1"/>
        <pt x="1677" y="311" on="0"/>
        <pt x="1595" y="369" on="0"/>
        <pt x="1595" y="387" on="1"/>
        <pt x="1595" y="410" on="0"/>
        <pt x="1672" y="496" on="0"/>
        <pt x="1691" y="496" on="1"/>
        <pt x="1717" y="496" on="0"/>
        <pt x="1799" y="428" on="0"/>
      </contour>
      <contour>
        <pt x="2772" y="378" on="1"/>
        <pt x="2772" y="45" on="0"/>
        <pt x="2203" y="-106" on="1"/>
        <pt x="1850" y="-200" on="0"/>
        <pt x="1466" y="-200" on="1"/>
        <pt x="1456" y="-200" on="0"/>
        <pt x="1137" y="-190" on="0"/>
        <pt x="1110" y="-190" on="0"/>
        <pt x="1088" y="-183" on="1"/>
        <pt x="1064" y="-174" on="0"/>
        <pt x="1056" y="-173" on="1"/>
        <pt x="784" y="-140" on="0"/>
        <pt x="614" y="-44" on="1"/>
        <pt x="573" y="-3" on="0"/>
        <pt x="491" y="62" on="1"/>
        <pt x="336" y="156" on="0"/>
        <pt x="315" y="233" on="1"/>
        <pt x="315" y="270" on="1"/>
        <pt x="349" y="270" on="1"/>
        <pt x="357" y="270" on="0"/>
        <pt x="414" y="228" on="1"/>
        <pt x="478" y="181" on="0"/>
        <pt x="506" y="170" on="1"/>
        <pt x="1024" y="-36" on="0"/>
        <pt x="1215" y="-36" on="1"/>
        <pt x="1226" y="-36" on="0"/>
        <pt x="1498" y="-47" on="0"/>
        <pt x="1513" y="-47" on="1"/>
        <pt x="1709" y="-47" on="0"/>
        <pt x="1990" y="2" on="1"/>
        <pt x="2298" y="57" on="0"/>
        <pt x="2457" y="133" on="1"/>
        <pt x="2514" y="158" on="0"/>
        <pt x="2569" y="183" on="1"/>
        <pt x="2669" y="238" on="0"/>
        <pt x="2669" y="291" on="1"/>
        <pt x="2669" y="301" on="0"/>
        <pt x="2567" y="462" on="0"/>
        <pt x="2567" y="475" on="1"/>
        <pt x="2567" y="506" on="0"/>
        <pt x="2621" y="587" on="1"/>
        <pt x="2656" y="587" on="1"/>
        <pt x="2772" y="434" on="0"/>
      </contour>
      <contour>
        <pt x="441" y="113" on="1"/>
        <pt x="441" y="222" on="1"/>
      </contour>
      <contour>
        <pt x="4667" y="1340" on="1"/>
        <pt x="4667" y="1388" on="0"/>
        <pt x="4643" y="1411" on="1"/>
        <pt x="4608" y="1393" on="0"/>
        <pt x="4608" y="1362" on="1"/>
        <pt x="4650" y="1340" on="0"/>
      </contour>
      <contour>
        <pt x="3938" y="1360" on="1"/>
        <pt x="3938" y="1378" on="0"/>
        <pt x="3928" y="1428" on="0"/>
        <pt x="3928" y="1430" on="1"/>
        <pt x="3895" y="1414" on="0"/>
        <pt x="3891" y="1382" on="1"/>
        <pt x="3916" y="1382" on="0"/>
      </contour>
      <contour>
        <pt x="3222" y="317" on="1"/>
        <pt x="3159" y="380" on="0"/>
        <pt x="3134" y="392" on="1"/>
        <pt x="3131" y="389" on="0"/>
        <pt x="3113" y="364" on="1"/>
        <pt x="3099" y="347" on="0"/>
        <pt x="3099" y="332" on="1"/>
        <pt x="3099" y="313" on="0"/>
        <pt x="3146" y="270" on="0"/>
        <pt x="3166" y="270" on="1"/>
        <pt x="3197" y="270" on="0"/>
      </contour>
    </TTGlyph>
    <TTGlyph name="uniFB55" xMin="330" yMin="-577" xMax="2031" yMax="1908">
      <contour>
        <pt x="1346" y="1874" on="1"/>
        <pt x="1346" y="1838" on="0"/>
        <pt x="1138" y="1733" on="1"/>
        <pt x="940" y="1633" on="0"/>
        <pt x="919" y="1635" on="1"/>
        <pt x="876" y="1635" on="1"/>
        <pt x="876" y="1703" on="1"/>
        <pt x="983" y="1759" on="0"/>
        <pt x="1090" y="1814" on="1"/>
        <pt x="1216" y="1875" on="0"/>
        <pt x="1317" y="1900" on="1"/>
        <pt x="1325" y="1908" on="0"/>
        <pt x="1335" y="1901" on="1"/>
        <pt x="1346" y="1892" on="0"/>
      </contour>
      <contour>
        <pt x="1365" y="1526" on="1"/>
        <pt x="1365" y="1505" on="0"/>
        <pt x="1343" y="1459" on="1"/>
        <pt x="1318" y="1408" on="0"/>
        <pt x="1292" y="1392" on="1"/>
        <pt x="1243" y="1380" on="0"/>
        <pt x="1158" y="1354" on="1"/>
        <pt x="1069" y="1316" on="0"/>
        <pt x="1069" y="1316" on="1"/>
        <pt x="998" y="1316" on="0"/>
        <pt x="998" y="1389" on="1"/>
        <pt x="998" y="1411" on="0"/>
        <pt x="1016" y="1446" on="1"/>
        <pt x="1039" y="1488" on="0"/>
        <pt x="1071" y="1500" on="1"/>
        <pt x="1070" y="1478" on="0"/>
        <pt x="1077" y="1428" on="1"/>
        <pt x="1080" y="1428" on="0"/>
        <pt x="1090" y="1419" on="0"/>
        <pt x="1105" y="1419" on="1"/>
        <pt x="1130" y="1419" on="0"/>
        <pt x="1156" y="1473" on="1"/>
        <pt x="1188" y="1539" on="0"/>
        <pt x="1202" y="1552" on="1"/>
        <pt x="1222" y="1527" on="0"/>
        <pt x="1222" y="1488" on="1"/>
        <pt x="1240" y="1470" on="0"/>
        <pt x="1256" y="1470" on="1"/>
        <pt x="1271" y="1490" on="0"/>
        <pt x="1314" y="1583" on="0"/>
        <pt x="1329" y="1603" on="1"/>
        <pt x="1365" y="1584" on="0"/>
      </contour>
      <contour>
        <pt x="1775" y="262" on="1"/>
        <pt x="1775" y="138" on="0"/>
        <pt x="1722" y="48" on="1"/>
        <pt x="1714" y="47" on="0"/>
        <pt x="1687" y="79" on="0"/>
        <pt x="1686" y="93" on="1"/>
        <pt x="1581" y="899" on="0"/>
        <pt x="1581" y="963" on="1"/>
        <pt x="1581" y="1022" on="0"/>
        <pt x="1646" y="1112" on="1"/>
        <pt x="1692" y="1090" on="0"/>
        <pt x="1692" y="927" on="1"/>
        <pt x="1693" y="887" on="0"/>
        <pt x="1696" y="862" on="1"/>
        <pt x="1775" y="215" on="0"/>
      </contour>
      <contour>
        <pt x="1918" y="-183" on="1"/>
        <pt x="1918" y="-217" on="0"/>
        <pt x="1862" y="-240" on="1"/>
        <pt x="1822" y="-252" on="0"/>
        <pt x="1782" y="-263" on="1"/>
        <pt x="1655" y="-307" on="0"/>
        <pt x="1531" y="-362" on="1"/>
        <pt x="1531" y="-327" on="1"/>
        <pt x="1530" y="-317" on="0"/>
        <pt x="1581" y="-266" on="0"/>
        <pt x="1581" y="-254" on="1"/>
        <pt x="1581" y="-245" on="0"/>
        <pt x="1540" y="-202" on="0"/>
        <pt x="1540" y="-188" on="1"/>
        <pt x="1540" y="-151" on="0"/>
        <pt x="1677" y="-24" on="0"/>
        <pt x="1719" y="-24" on="1"/>
        <pt x="1750" y="-24" on="0"/>
        <pt x="1796" y="-67" on="1"/>
        <pt x="1796" y="-114" on="1"/>
        <pt x="1777" y="-147" on="0"/>
        <pt x="1740" y="-147" on="1"/>
        <pt x="1726" y="-147" on="0"/>
        <pt x="1679" y="-116" on="0"/>
        <pt x="1670" y="-116" on="1"/>
        <pt x="1652" y="-133" on="1"/>
        <pt x="1675" y="-172" on="0"/>
        <pt x="1695" y="-177" on="1"/>
        <pt x="1696" y="-178" on="0"/>
        <pt x="1750" y="-178" on="1"/>
        <pt x="1767" y="-178" on="0"/>
        <pt x="1906" y="-158" on="1"/>
        <pt x="1918" y="-159" on="0"/>
      </contour>
      <contour>
        <pt x="1335" y="984" on="1"/>
        <pt x="1335" y="970" on="0"/>
        <pt x="1317" y="938" on="1"/>
        <pt x="1293" y="895" on="0"/>
        <pt x="1287" y="882" on="0"/>
        <pt x="1245" y="858" on="1"/>
        <pt x="1232" y="736" on="0"/>
        <pt x="1198" y="522" on="1"/>
        <pt x="1190" y="487" on="0"/>
        <pt x="1154" y="397" on="1"/>
        <pt x="1121" y="315" on="0"/>
        <pt x="1121" y="308" on="1"/>
        <pt x="1121" y="311" on="0"/>
        <pt x="1198" y="125" on="1"/>
        <pt x="1202" y="115" on="0"/>
        <pt x="1202" y="83" on="1"/>
        <pt x="1202" y="16" on="0"/>
        <pt x="1158" y="-21" on="1"/>
        <pt x="757" y="-86" on="0"/>
        <pt x="711" y="-86" on="1"/>
        <pt x="609" y="-86" on="0"/>
        <pt x="609" y="21" on="1"/>
        <pt x="609" y="42" on="0"/>
        <pt x="653" y="108" on="1"/>
        <pt x="713" y="88" on="0"/>
        <pt x="746" y="88" on="1"/>
        <pt x="785" y="88" on="0"/>
        <pt x="877" y="160" on="1"/>
        <pt x="977" y="237" on="0"/>
        <pt x="977" y="288" on="1"/>
        <pt x="977" y="319" on="0"/>
        <pt x="813" y="517" on="1"/>
        <pt x="644" y="723" on="0"/>
        <pt x="593" y="723" on="1"/>
        <pt x="580" y="723" on="0"/>
        <pt x="565" y="713" on="0"/>
        <pt x="552" y="713" on="1"/>
        <pt x="415" y="713" on="0"/>
        <pt x="368" y="795" on="1"/>
        <pt x="330" y="859" on="0"/>
        <pt x="332" y="1018" on="1"/>
        <pt x="333" y="1019" on="0"/>
        <pt x="350" y="1038" on="1"/>
        <pt x="363" y="1050" on="0"/>
        <pt x="378" y="1050" on="1"/>
        <pt x="429" y="1050" on="0"/>
        <pt x="521" y="973" on="1"/>
        <pt x="875" y="677" on="0"/>
        <pt x="1035" y="405" on="1"/>
        <pt x="1054" y="405" on="0"/>
        <pt x="1066" y="423" on="1"/>
        <pt x="1084" y="464" on="0"/>
        <pt x="1106" y="544" on="1"/>
        <pt x="1151" y="896" on="0"/>
        <pt x="1151" y="881" on="1"/>
        <pt x="1151" y="889" on="0"/>
        <pt x="1110" y="965" on="0"/>
        <pt x="1110" y="989" on="1"/>
        <pt x="1110" y="1022" on="0"/>
        <pt x="1157" y="1113" on="1"/>
        <pt x="1198" y="1195" on="0"/>
        <pt x="1216" y="1213" on="1"/>
        <pt x="1252" y="1213" on="1"/>
        <pt x="1253" y="1207" on="0"/>
        <pt x="1253" y="1086" on="1"/>
        <pt x="1253" y="1058" on="0"/>
        <pt x="1320" y="1014" on="1"/>
        <pt x="1335" y="988" on="0"/>
      </contour>
      <contour>
        <pt x="2031" y="-326" on="1"/>
        <pt x="2009" y="-380" on="0"/>
        <pt x="1987" y="-389" on="1"/>
        <pt x="1898" y="-434" on="0"/>
        <pt x="1758" y="-489" on="1"/>
        <pt x="1641" y="-533" on="0"/>
        <pt x="1524" y="-577" on="1"/>
        <pt x="1510" y="-565" on="1"/>
        <pt x="1510" y="-507" on="1"/>
        <pt x="1930" y="-301" on="0"/>
        <pt x="1966" y="-301" on="1"/>
        <pt x="2008" y="-301" on="1"/>
      </contour>
      <contour>
        <pt x="1078" y="131" on="1"/>
        <pt x="1078" y="136" on="0"/>
        <pt x="1068" y="174" on="0"/>
        <pt x="1068" y="179" on="1"/>
        <pt x="1031" y="179" on="1"/>
        <pt x="1020" y="161" on="0"/>
        <pt x="998" y="131" on="1"/>
      </contour>
    </TTGlyph>
    <TTGlyph name="uniFB56" xMin="217" yMin="-69" xMax="1947" yMax="1610">
      <contour>
        <pt x="1947" y="1517" on="1"/>
        <pt x="1947" y="1441" on="0"/>
        <pt x="1860" y="1373" on="1"/>
        <pt x="1783" y="1312" on="0"/>
        <pt x="1722" y="1312" on="1"/>
        <pt x="1710" y="1312" on="0"/>
        <pt x="1615" y="1353" on="0"/>
        <pt x="1605" y="1353" on="1"/>
        <pt x="1558" y="1353" on="0"/>
        <pt x="1525" y="1263" on="1"/>
        <pt x="1488" y="1263" on="1"/>
        <pt x="1502" y="1307" on="0"/>
        <pt x="1517" y="1351" on="1"/>
        <pt x="1536" y="1396" on="0"/>
        <pt x="1570" y="1420" on="1"/>
        <pt x="1583" y="1430" on="0"/>
        <pt x="1662" y="1440" on="0"/>
        <pt x="1674" y="1448" on="1"/>
        <pt x="1690" y="1458" on="0"/>
        <pt x="1772" y="1543" on="1"/>
        <pt x="1837" y="1610" on="0"/>
        <pt x="1871" y="1610" on="1"/>
        <pt x="1907" y="1610" on="0"/>
        <pt x="1929" y="1576" on="1"/>
        <pt x="1947" y="1548" on="0"/>
      </contour>
      <contour>
        <pt x="1292" y="1543" on="1"/>
        <pt x="1292" y="1510" on="0"/>
        <pt x="1259" y="1490" on="1"/>
        <pt x="1252" y="1486" on="0"/>
        <pt x="1002" y="1328" on="1"/>
        <pt x="847" y="1230" on="0"/>
        <pt x="831" y="1230" on="1"/>
        <pt x="818" y="1230" on="0"/>
        <pt x="802" y="1242" on="0"/>
        <pt x="792" y="1242" on="1"/>
        <pt x="792" y="1245" on="0"/>
        <pt x="781" y="1267" on="0"/>
        <pt x="781" y="1282" on="1"/>
        <pt x="781" y="1318" on="0"/>
        <pt x="813" y="1339" on="1"/>
        <pt x="1005" y="1455" on="0"/>
        <pt x="1257" y="1599" on="1"/>
        <pt x="1292" y="1564" on="0"/>
      </contour>
      <contour>
        <pt x="1824" y="176" on="1"/>
        <pt x="1824" y="124" on="0"/>
        <pt x="1782" y="44" on="1"/>
        <pt x="1755" y="34" on="1"/>
        <pt x="1619" y="1020" on="1"/>
        <pt x="1616" y="1060" on="0"/>
        <pt x="1637" y="1109" on="1"/>
        <pt x="1663" y="1168" on="0"/>
        <pt x="1710" y="1189" on="1"/>
      </contour>
      <contour>
        <pt x="1210" y="1153" on="1"/>
        <pt x="1210" y="1135" on="0"/>
        <pt x="1186" y="1091" on="1"/>
        <pt x="1160" y="1045" on="0"/>
        <pt x="1136" y="1029" on="1"/>
        <pt x="1123" y="1020" on="0"/>
        <pt x="1012" y="991" on="1"/>
        <pt x="1003" y="989" on="0"/>
        <pt x="962" y="970" on="1"/>
        <pt x="929" y="954" on="0"/>
        <pt x="908" y="954" on="1"/>
        <pt x="877" y="954" on="0"/>
        <pt x="857" y="987" on="1"/>
        <pt x="841" y="1013" on="0"/>
        <pt x="841" y="1036" on="1"/>
        <pt x="841" y="1086" on="0"/>
        <pt x="894" y="1149" on="1"/>
        <pt x="899" y="1140" on="0"/>
        <pt x="913" y="1090" on="1"/>
        <pt x="920" y="1067" on="0"/>
        <pt x="949" y="1067" on="1"/>
        <pt x="985" y="1067" on="0"/>
        <pt x="994" y="1108" on="1"/>
        <pt x="1008" y="1180" on="0"/>
        <pt x="1018" y="1198" on="1"/>
        <pt x="1055" y="1198" on="1"/>
        <pt x="1055" y="1126" on="0"/>
        <pt x="1083" y="1108" on="1"/>
        <pt x="1123" y="1117" on="0"/>
        <pt x="1123" y="1154" on="1"/>
        <pt x="1123" y="1162" on="0"/>
        <pt x="1117" y="1203" on="0"/>
        <pt x="1117" y="1212" on="1"/>
        <pt x="1117" y="1244" on="0"/>
        <pt x="1142" y="1261" on="1"/>
        <pt x="1177" y="1261" on="1"/>
        <pt x="1210" y="1211" on="0"/>
      </contour>
      <contour>
        <pt x="658" y="1169" on="1"/>
        <pt x="658" y="1113" on="0"/>
        <pt x="591" y="1078" on="1"/>
        <pt x="541" y="1055" on="0"/>
        <pt x="491" y="1033" on="1"/>
        <pt x="465" y="1017" on="0"/>
        <pt x="265" y="904" on="1"/>
        <pt x="228" y="904" on="1"/>
        <pt x="228" y="908" on="0"/>
        <pt x="217" y="924" on="0"/>
        <pt x="217" y="939" on="1"/>
        <pt x="217" y="979" on="0"/>
        <pt x="403" y="1085" on="1"/>
        <pt x="512" y="1142" on="0"/>
        <pt x="620" y="1199" on="1"/>
        <pt x="658" y="1199" on="0"/>
      </contour>
      <contour>
        <pt x="1466" y="233" on="1"/>
        <pt x="1466" y="146" on="0"/>
        <pt x="1433" y="79" on="1"/>
        <pt x="1388" y="-8" on="0"/>
        <pt x="1298" y="-8" on="1"/>
        <pt x="1266" y="-8" on="0"/>
        <pt x="1194" y="26" on="1"/>
        <pt x="1119" y="63" on="0"/>
        <pt x="1093" y="94" on="1"/>
        <pt x="1008" y="-12" on="0"/>
        <pt x="976" y="-37" on="1"/>
        <pt x="935" y="-69" on="0"/>
        <pt x="867" y="-69" on="1"/>
        <pt x="773" y="-69" on="0"/>
        <pt x="738" y="3" on="1"/>
        <pt x="710" y="69" on="0"/>
        <pt x="682" y="135" on="1"/>
        <pt x="648" y="103" on="0"/>
        <pt x="583" y="57" on="1"/>
        <pt x="535" y="33" on="0"/>
        <pt x="492" y="33" on="1"/>
        <pt x="423" y="33" on="1"/>
        <pt x="369" y="33" on="0"/>
        <pt x="278" y="78" on="0"/>
        <pt x="278" y="104" on="1"/>
        <pt x="278" y="107" on="0"/>
        <pt x="306" y="163" on="1"/>
        <pt x="353" y="259" on="0"/>
        <pt x="482" y="329" on="1"/>
        <pt x="634" y="411" on="0"/>
        <pt x="675" y="461" on="1"/>
        <pt x="681" y="469" on="0"/>
        <pt x="702" y="534" on="1"/>
        <pt x="718" y="587" on="0"/>
        <pt x="746" y="596" on="1"/>
        <pt x="769" y="555" on="0"/>
        <pt x="772" y="467" on="1"/>
        <pt x="770" y="522" on="0"/>
        <pt x="770" y="324" on="1"/>
        <pt x="770" y="239" on="0"/>
        <pt x="798" y="177" on="1"/>
        <pt x="835" y="94" on="0"/>
        <pt x="908" y="94" on="1"/>
        <pt x="948" y="94" on="0"/>
        <pt x="999" y="133" on="1"/>
        <pt x="1057" y="175" on="0"/>
        <pt x="1057" y="222" on="1"/>
        <pt x="1057" y="235" on="0"/>
        <pt x="1005" y="604" on="0"/>
        <pt x="1005" y="616" on="1"/>
        <pt x="1005" y="673" on="0"/>
        <pt x="1017" y="748" on="1"/>
        <pt x="1022" y="748" on="0"/>
        <pt x="1060" y="759" on="0"/>
        <pt x="1065" y="759" on="1"/>
        <pt x="1070" y="734" on="0"/>
        <pt x="1100" y="510" on="1"/>
        <pt x="1121" y="349" on="0"/>
        <pt x="1151" y="265" on="1"/>
        <pt x="1163" y="229" on="0"/>
        <pt x="1221" y="191" on="1"/>
        <pt x="1273" y="156" on="0"/>
        <pt x="1298" y="156" on="1"/>
        <pt x="1357" y="156" on="1"/>
        <pt x="1359" y="157" on="0"/>
        <pt x="1370" y="160" on="1"/>
        <pt x="1374" y="161" on="0"/>
        <pt x="1374" y="176" on="1"/>
        <pt x="1374" y="182" on="0"/>
        <pt x="1336" y="301" on="1"/>
        <pt x="1293" y="437" on="0"/>
        <pt x="1275" y="528" on="1"/>
        <pt x="1251" y="643" on="0"/>
        <pt x="1251" y="662" on="1"/>
        <pt x="1251" y="693" on="0"/>
        <pt x="1294" y="779" on="1"/>
        <pt x="1331" y="779" on="1"/>
        <pt x="1347" y="709" on="0"/>
        <pt x="1414" y="450" on="1"/>
        <pt x="1466" y="247" on="0"/>
      </contour>
      <contour>
        <pt x="1854" y="1458" on="1"/>
        <pt x="1854" y="1496" on="1"/>
        <pt x="1807" y="1496" on="1"/>
        <pt x="1767" y="1457" on="0"/>
        <pt x="1765" y="1426" on="1"/>
        <pt x="1800" y="1437" on="0"/>
      </contour>
      <contour>
        <pt x="688" y="241" on="1"/>
        <pt x="675" y="329" on="1"/>
        <pt x="645" y="314" on="0"/>
        <pt x="504" y="228" on="0"/>
        <pt x="473" y="213" on="1"/>
        <pt x="500" y="186" on="0"/>
        <pt x="524" y="186" on="1"/>
        <pt x="547" y="186" on="0"/>
        <pt x="623" y="199" on="1"/>
        <pt x="656" y="205" on="0"/>
      </contour>
    </TTGlyph>
    <TTGlyph name="uniFB57" xMin="294" yMin="-299" xMax="2681" yMax="1994">
      <contour>
        <pt x="2148" y="1863" on="1"/>
        <pt x="2109" y="1831" on="0"/>
        <pt x="2034" y="1786" on="1"/>
        <pt x="1955" y="1738" on="0"/>
        <pt x="1937" y="1738" on="1"/>
        <pt x="1875" y="1738" on="1"/>
        <pt x="1852" y="1762" on="0"/>
        <pt x="1852" y="1787" on="1"/>
        <pt x="1860" y="1795" on="0"/>
        <pt x="1965" y="1849" on="1"/>
        <pt x="1968" y="1880" on="0"/>
        <pt x="1927" y="1888" on="1"/>
        <pt x="1929" y="1889" on="0"/>
        <pt x="1929" y="1889" on="1"/>
        <pt x="1931" y="1890" on="0"/>
        <pt x="1924" y="1892" on="0"/>
        <pt x="1913" y="1892" on="1"/>
        <pt x="1899" y="1892" on="0"/>
        <pt x="1869" y="1881" on="1"/>
        <pt x="1829" y="1866" on="0"/>
        <pt x="1814" y="1862" on="1"/>
        <pt x="1812" y="1865" on="0"/>
        <pt x="1812" y="1870" on="1"/>
        <pt x="1812" y="1903" on="0"/>
        <pt x="1869" y="1950" on="1"/>
        <pt x="1924" y="1994" on="0"/>
        <pt x="1954" y="1994" on="1"/>
        <pt x="1968" y="1994" on="0"/>
        <pt x="2037" y="1965" on="1"/>
        <pt x="2122" y="1930" on="0"/>
        <pt x="2148" y="1922" on="1"/>
      </contour>
      <contour>
        <pt x="2620" y="1554" on="1"/>
        <pt x="2620" y="1511" on="0"/>
        <pt x="2484" y="1439" on="1"/>
        <pt x="2364" y="1373" on="0"/>
        <pt x="2132" y="1257" on="1"/>
        <pt x="2118" y="1271" on="0"/>
        <pt x="2118" y="1293" on="1"/>
        <pt x="2118" y="1340" on="0"/>
        <pt x="2346" y="1462" on="1"/>
        <pt x="2553" y="1573" on="0"/>
        <pt x="2607" y="1584" on="1"/>
        <pt x="2607" y="1580" on="0"/>
        <pt x="2620" y="1569" on="0"/>
      </contour>
      <contour>
        <pt x="2096" y="1424" on="1"/>
        <pt x="2052" y="1384" on="0"/>
        <pt x="1973" y="1356" on="1"/>
        <pt x="1882" y="1322" on="0"/>
        <pt x="1848" y="1299" on="1"/>
        <pt x="1812" y="1299" on="1"/>
        <pt x="1812" y="1339" on="0"/>
        <pt x="1780" y="1413" on="0"/>
        <pt x="1780" y="1426" on="1"/>
        <pt x="1780" y="1452" on="0"/>
        <pt x="1909" y="1595" on="0"/>
        <pt x="1939" y="1595" on="1"/>
        <pt x="1967" y="1595" on="0"/>
        <pt x="2014" y="1545" on="0"/>
        <pt x="2014" y="1515" on="1"/>
        <pt x="2014" y="1488" on="0"/>
        <pt x="1995" y="1468" on="1"/>
        <pt x="2027" y="1455" on="0"/>
        <pt x="2096" y="1461" on="1"/>
      </contour>
      <contour>
        <pt x="2425" y="945" on="1"/>
        <pt x="2425" y="925" on="0"/>
        <pt x="2392" y="882" on="1"/>
        <pt x="2358" y="837" on="0"/>
        <pt x="2338" y="837" on="1"/>
        <pt x="2307" y="837" on="0"/>
        <pt x="2251" y="890" on="1"/>
        <pt x="2250" y="929" on="0"/>
        <pt x="2303" y="1022" on="0"/>
        <pt x="2333" y="1022" on="1"/>
        <pt x="2378" y="1022" on="0"/>
        <pt x="2404" y="991" on="1"/>
        <pt x="2425" y="968" on="0"/>
      </contour>
      <contour>
        <pt x="2681" y="264" on="1"/>
        <pt x="2681" y="76" on="0"/>
        <pt x="2539" y="13" on="1"/>
        <pt x="2458" y="-22" on="0"/>
        <pt x="2281" y="-22" on="1"/>
        <pt x="2145" y="-22" on="1"/>
        <pt x="2099" y="-22" on="0"/>
        <pt x="2059" y="20" on="1"/>
        <pt x="2024" y="57" on="0"/>
        <pt x="2018" y="94" on="1"/>
        <pt x="1973" y="374" on="0"/>
        <pt x="1936" y="781" on="1"/>
        <pt x="1913" y="1040" on="0"/>
        <pt x="1913" y="1083" on="1"/>
        <pt x="1913" y="1116" on="0"/>
        <pt x="1934" y="1177" on="1"/>
        <pt x="1960" y="1253" on="0"/>
        <pt x="1992" y="1266" on="1"/>
        <pt x="2005" y="1205" on="0"/>
        <pt x="2014" y="1075" on="1"/>
        <pt x="2025" y="898" on="0"/>
        <pt x="2028" y="863" on="1"/>
        <pt x="2050" y="734" on="0"/>
        <pt x="2083" y="495" on="1"/>
        <pt x="2086" y="417" on="0"/>
        <pt x="2090" y="339" on="1"/>
        <pt x="2096" y="233" on="0"/>
        <pt x="2130" y="179" on="1"/>
        <pt x="2161" y="131" on="0"/>
        <pt x="2317" y="131" on="1"/>
        <pt x="2371" y="131" on="0"/>
        <pt x="2468" y="152" on="1"/>
        <pt x="2599" y="181" on="0"/>
        <pt x="2599" y="223" on="1"/>
        <pt x="2599" y="261" on="0"/>
        <pt x="2563" y="315" on="1"/>
        <pt x="2474" y="223" on="0"/>
        <pt x="2415" y="223" on="1"/>
        <pt x="2367" y="223" on="0"/>
        <pt x="2315" y="267" on="1"/>
        <pt x="2261" y="312" on="0"/>
        <pt x="2261" y="361" on="1"/>
        <pt x="2261" y="404" on="0"/>
        <pt x="2315" y="527" on="1"/>
        <pt x="2380" y="673" on="0"/>
        <pt x="2440" y="673" on="1"/>
        <pt x="2485" y="673" on="0"/>
        <pt x="2512" y="641" on="1"/>
        <pt x="2613" y="519" on="0"/>
        <pt x="2648" y="438" on="1"/>
        <pt x="2681" y="364" on="0"/>
      </contour>
      <contour>
        <pt x="1647" y="1124" on="1"/>
        <pt x="1647" y="1097" on="0"/>
        <pt x="1624" y="1073" on="1"/>
        <pt x="1582" y="1073" on="1"/>
        <pt x="1569" y="1073" on="0"/>
        <pt x="1537" y="1103" on="0"/>
        <pt x="1524" y="1103" on="1"/>
        <pt x="1509" y="1103" on="0"/>
        <pt x="1502" y="1101" on="1"/>
        <pt x="1457" y="1043" on="0"/>
        <pt x="1426" y="1015" on="1"/>
        <pt x="1380" y="975" on="0"/>
        <pt x="1230" y="889" on="0"/>
        <pt x="1211" y="890" on="1"/>
        <pt x="1146" y="890" on="1"/>
        <pt x="1146" y="927" on="1"/>
        <pt x="1313" y="1039" on="0"/>
        <pt x="1433" y="1131" on="1"/>
        <pt x="1433" y="1157" on="1"/>
        <pt x="1398" y="1165" on="0"/>
        <pt x="1340" y="1221" on="0"/>
        <pt x="1340" y="1247" on="1"/>
        <pt x="1340" y="1280" on="0"/>
        <pt x="1386" y="1346" on="1"/>
        <pt x="1439" y="1421" on="0"/>
        <pt x="1488" y="1421" on="1"/>
        <pt x="1528" y="1421" on="0"/>
        <pt x="1541" y="1376" on="1"/>
        <pt x="1543" y="1316" on="0"/>
        <pt x="1567" y="1213" on="1"/>
        <pt x="1569" y="1208" on="0"/>
        <pt x="1611" y="1177" on="1"/>
        <pt x="1647" y="1151" on="0"/>
      </contour>
      <contour>
        <pt x="531" y="1442" on="1"/>
        <pt x="531" y="1368" on="0"/>
        <pt x="473" y="1315" on="1"/>
        <pt x="422" y="1267" on="0"/>
        <pt x="367" y="1267" on="1"/>
        <pt x="341" y="1267" on="0"/>
        <pt x="296" y="1309" on="1"/>
        <pt x="294" y="1316" on="0"/>
        <pt x="294" y="1325" on="1"/>
        <pt x="294" y="1387" on="0"/>
        <pt x="334" y="1463" on="1"/>
        <pt x="382" y="1554" on="0"/>
        <pt x="444" y="1554" on="1"/>
        <pt x="484" y="1554" on="0"/>
        <pt x="510" y="1511" on="1"/>
        <pt x="531" y="1475" on="0"/>
      </contour>
      <contour>
        <pt x="1289" y="495" on="1"/>
        <pt x="1289" y="451" on="0"/>
        <pt x="1175" y="410" on="1"/>
        <pt x="1081" y="377" on="0"/>
        <pt x="1043" y="377" on="1"/>
        <pt x="1031" y="377" on="0"/>
        <pt x="881" y="418" on="0"/>
        <pt x="869" y="418" on="1"/>
        <pt x="857" y="418" on="0"/>
        <pt x="835" y="401" on="1"/>
        <pt x="808" y="379" on="0"/>
        <pt x="802" y="377" on="1"/>
        <pt x="795" y="378" on="0"/>
        <pt x="777" y="392" on="1"/>
        <pt x="843" y="510" on="0"/>
        <pt x="884" y="510" on="1"/>
        <pt x="897" y="510" on="0"/>
        <pt x="1040" y="469" on="0"/>
        <pt x="1053" y="469" on="1"/>
        <pt x="1151" y="469" on="0"/>
        <pt x="1275" y="519" on="1"/>
        <pt x="1289" y="519" on="0"/>
      </contour>
      <contour>
        <pt x="1739" y="229" on="1"/>
        <pt x="1739" y="88" on="0"/>
        <pt x="1494" y="-234" on="0"/>
        <pt x="1347" y="-285" on="1"/>
        <pt x="1309" y="-299" on="0"/>
        <pt x="1197" y="-299" on="1"/>
        <pt x="1179" y="-299" on="0"/>
        <pt x="935" y="-255" on="1"/>
        <pt x="892" y="-248" on="0"/>
        <pt x="817" y="-192" on="1"/>
        <pt x="825" y="-179" on="0"/>
        <pt x="842" y="-159" on="1"/>
        <pt x="876" y="-162" on="0"/>
        <pt x="965" y="-175" on="1"/>
        <pt x="1046" y="-186" on="0"/>
        <pt x="1058" y="-186" on="1"/>
        <pt x="1100" y="-186" on="0"/>
        <pt x="1207" y="-166" on="1"/>
        <pt x="1304" y="-147" on="0"/>
        <pt x="1311" y="-143" on="1"/>
        <pt x="1362" y="-117" on="0"/>
        <pt x="1491" y="-9" on="1"/>
        <pt x="1657" y="130" on="0"/>
        <pt x="1657" y="193" on="1"/>
        <pt x="1657" y="217" on="0"/>
        <pt x="1641" y="233" on="1"/>
        <pt x="1620" y="223" on="0"/>
        <pt x="1570" y="175" on="1"/>
        <pt x="1535" y="141" on="0"/>
        <pt x="1493" y="141" on="1"/>
        <pt x="1443" y="141" on="0"/>
        <pt x="1399" y="197" on="1"/>
        <pt x="1361" y="247" on="0"/>
        <pt x="1361" y="284" on="1"/>
        <pt x="1361" y="358" on="0"/>
        <pt x="1407" y="451" on="1"/>
        <pt x="1462" y="561" on="0"/>
        <pt x="1534" y="561" on="1"/>
        <pt x="1615" y="561" on="0"/>
        <pt x="1683" y="419" on="1"/>
        <pt x="1739" y="301" on="0"/>
      </contour>
      <contour>
        <pt x="562" y="315" on="1"/>
        <pt x="562" y="168" on="0"/>
        <pt x="504" y="101" on="1"/>
        <pt x="367" y="1089" on="1"/>
        <pt x="382" y="1149" on="0"/>
        <pt x="421" y="1226" on="1"/>
        <pt x="434" y="1226" on="0"/>
        <pt x="455" y="1193" on="1"/>
        <pt x="473" y="1031" on="0"/>
        <pt x="523" y="679" on="1"/>
        <pt x="562" y="445" on="0"/>
      </contour>
      <contour>
        <pt x="1125" y="152" on="1"/>
        <pt x="1125" y="72" on="0"/>
        <pt x="1071" y="-2" on="1"/>
        <pt x="1012" y="-84" on="0"/>
        <pt x="935" y="-84" on="1"/>
        <pt x="847" y="-84" on="0"/>
        <pt x="787" y="-31" on="1"/>
        <pt x="855" y="-18" on="0"/>
        <pt x="924" y="-3" on="1"/>
        <pt x="1017" y="20" on="0"/>
        <pt x="1053" y="103" on="1"/>
        <pt x="1021" y="110" on="0"/>
        <pt x="966" y="134" on="1"/>
        <pt x="940" y="153" on="0"/>
        <pt x="940" y="193" on="1"/>
        <pt x="940" y="219" on="0"/>
        <pt x="1002" y="325" on="0"/>
        <pt x="1022" y="325" on="1"/>
        <pt x="1066" y="325" on="0"/>
        <pt x="1098" y="257" on="1"/>
        <pt x="1125" y="200" on="0"/>
      </contour>
      <contour>
        <pt x="1954" y="1456" on="1"/>
        <pt x="1932" y="1478" on="0"/>
        <pt x="1932" y="1492" on="1"/>
        <pt x="1895" y="1492" on="1"/>
        <pt x="1886" y="1473" on="0"/>
        <pt x="1894" y="1457" on="1"/>
        <pt x="1896" y="1456" on="0"/>
        <pt x="1914" y="1442" on="0"/>
        <pt x="1928" y="1442" on="1"/>
        <pt x="1952" y="1442" on="0"/>
      </contour>
      <contour>
        <pt x="2485" y="398" on="1"/>
        <pt x="2485" y="455" on="1"/>
        <pt x="2444" y="499" on="0"/>
        <pt x="2417" y="499" on="1"/>
        <pt x="2394" y="453" on="0"/>
        <pt x="2394" y="438" on="1"/>
        <pt x="2394" y="387" on="0"/>
        <pt x="2440" y="387" on="1"/>
        <pt x="2455" y="387" on="0"/>
        <pt x="2482" y="398" on="0"/>
      </contour>
      <contour>
        <pt x="1482" y="1258" on="1"/>
        <pt x="1482" y="1295" on="1"/>
        <pt x="1471" y="1307" on="0"/>
        <pt x="1443" y="1307" on="1"/>
        <pt x="1443" y="1293" on="0"/>
        <pt x="1473" y="1258" on="0"/>
      </contour>
      <contour>
        <pt x="1563" y="327" on="1"/>
        <pt x="1569" y="369" on="0"/>
        <pt x="1508" y="397" on="1"/>
        <pt x="1483" y="373" on="0"/>
        <pt x="1483" y="351" on="1"/>
        <pt x="1483" y="339" on="0"/>
        <pt x="1506" y="315" on="1"/>
        <pt x="1524" y="315" on="0"/>
        <pt x="1560" y="327" on="0"/>
      </contour>
      <contour>
        <pt x="447" y="1392" on="1"/>
        <pt x="447" y="1397" on="0"/>
        <pt x="437" y="1434" on="0"/>
        <pt x="437" y="1440" on="1"/>
        <pt x="390" y="1440" on="1"/>
        <pt x="379" y="1418" on="0"/>
        <pt x="379" y="1381" on="1"/>
        <pt x="403" y="1381" on="0"/>
        <pt x="446" y="1392" on="0"/>
      </contour>
    </TTGlyph>
    <TTGlyph name="uniFB58" xMin="227" yMin="-491" xMax="1814" yMax="1679">
      <contour>
        <pt x="1169" y="1653" on="1"/>
        <pt x="1169" y="1611" on="0"/>
        <pt x="1136" y="1590" on="1"/>
        <pt x="996" y="1507" on="0"/>
        <pt x="723" y="1341" on="1"/>
        <pt x="709" y="1353" on="1"/>
        <pt x="709" y="1422" on="1"/>
        <pt x="842" y="1512" on="0"/>
        <pt x="1122" y="1679" on="1"/>
        <pt x="1157" y="1679" on="1"/>
        <pt x="1169" y="1677" on="0"/>
      </contour>
      <contour>
        <pt x="1589" y="307" on="1"/>
        <pt x="1589" y="236" on="0"/>
        <pt x="1564" y="147" on="1"/>
        <pt x="1544" y="116" on="0"/>
        <pt x="1520" y="103" on="1"/>
        <pt x="1374" y="1054" on="1"/>
        <pt x="1374" y="1117" on="0"/>
        <pt x="1428" y="1208" on="1"/>
        <pt x="1448" y="1208" on="0"/>
        <pt x="1462" y="1184" on="1"/>
        <pt x="1482" y="1022" on="0"/>
        <pt x="1509" y="825" on="1"/>
        <pt x="1514" y="793" on="0"/>
        <pt x="1558" y="569" on="1"/>
        <pt x="1589" y="414" on="0"/>
      </contour>
      <contour>
        <pt x="1701" y="-148" on="1"/>
        <pt x="1702" y="-163" on="0"/>
        <pt x="1658" y="-190" on="1"/>
        <pt x="1640" y="-192" on="0"/>
        <pt x="1606" y="-198" on="1"/>
        <pt x="1602" y="-199" on="0"/>
        <pt x="1398" y="-286" on="1"/>
        <pt x="1387" y="-272" on="1"/>
        <pt x="1384" y="-261" on="0"/>
        <pt x="1389" y="-242" on="1"/>
        <pt x="1397" y="-216" on="0"/>
        <pt x="1397" y="-212" on="1"/>
        <pt x="1384" y="-199" on="1"/>
        <pt x="1384" y="-199" on="0"/>
        <pt x="1394" y="-189" on="1"/>
        <pt x="1400" y="-181" on="0"/>
        <pt x="1385" y="-138" on="1"/>
        <pt x="1385" y="-125" on="1"/>
        <pt x="1479" y="30" on="0"/>
        <pt x="1533" y="30" on="1"/>
        <pt x="1599" y="30" on="0"/>
        <pt x="1599" y="-36" on="1"/>
        <pt x="1599" y="-81" on="0"/>
        <pt x="1548" y="-81" on="1"/>
        <pt x="1540" y="-81" on="0"/>
        <pt x="1515" y="-76" on="1"/>
        <pt x="1498" y="-72" on="0"/>
        <pt x="1486" y="-78" on="1"/>
        <pt x="1509" y="-122" on="0"/>
        <pt x="1563" y="-122" on="1"/>
        <pt x="1575" y="-122" on="0"/>
        <pt x="1612" y="-103" on="0"/>
        <pt x="1626" y="-103" on="1"/>
        <pt x="1701" y="-103" on="1"/>
      </contour>
      <contour>
        <pt x="1271" y="138" on="1"/>
        <pt x="1271" y="-18" on="0"/>
        <pt x="981" y="-138" on="1"/>
        <pt x="746" y="-235" on="0"/>
        <pt x="591" y="-235" on="1"/>
        <pt x="449" y="-235" on="0"/>
        <pt x="349" y="-171" on="1"/>
        <pt x="227" y="-93" on="0"/>
        <pt x="227" y="51" on="1"/>
        <pt x="227" y="120" on="0"/>
        <pt x="275" y="224" on="1"/>
        <pt x="332" y="346" on="0"/>
        <pt x="407" y="389" on="1"/>
        <pt x="415" y="384" on="0"/>
        <pt x="432" y="374" on="0"/>
        <pt x="432" y="358" on="1"/>
        <pt x="432" y="347" on="0"/>
        <pt x="395" y="290" on="1"/>
        <pt x="352" y="224" on="0"/>
        <pt x="342" y="197" on="1"/>
        <pt x="340" y="193" on="0"/>
        <pt x="340" y="143" on="1"/>
        <pt x="340" y="22" on="0"/>
        <pt x="436" y="-36" on="1"/>
        <pt x="509" y="-81" on="0"/>
        <pt x="611" y="-81" on="1"/>
        <pt x="728" y="-81" on="0"/>
        <pt x="830" y="-51" on="1"/>
        <pt x="927" y="-22" on="0"/>
        <pt x="1099" y="63" on="1"/>
        <pt x="1099" y="63" on="0"/>
        <pt x="1101" y="64" on="1"/>
        <pt x="1109" y="70" on="0"/>
        <pt x="1117" y="86" on="1"/>
        <pt x="1109" y="96" on="1"/>
        <pt x="1057" y="116" on="0"/>
        <pt x="918" y="139" on="1"/>
        <pt x="802" y="159" on="0"/>
        <pt x="759" y="188" on="1"/>
        <pt x="772" y="220" on="0"/>
        <pt x="804" y="262" on="1"/>
        <pt x="872" y="279" on="0"/>
        <pt x="999" y="319" on="1"/>
        <pt x="1046" y="338" on="0"/>
        <pt x="1046" y="378" on="1"/>
        <pt x="1046" y="406" on="0"/>
        <pt x="977" y="741" on="1"/>
        <pt x="976" y="820" on="0"/>
        <pt x="954" y="976" on="1"/>
        <pt x="950" y="990" on="0"/>
        <pt x="926" y="1033" on="1"/>
        <pt x="903" y="1072" on="0"/>
        <pt x="903" y="1085" on="1"/>
        <pt x="903" y="1144" on="0"/>
        <pt x="987" y="1310" on="1"/>
        <pt x="1023" y="1310" on="1"/>
        <pt x="1035" y="1285" on="0"/>
        <pt x="1031" y="1190" on="0"/>
        <pt x="1041" y="1170" on="1"/>
        <pt x="1058" y="1135" on="0"/>
        <pt x="1117" y="1115" on="1"/>
        <pt x="1117" y="1076" on="0"/>
        <pt x="1113" y="1067" on="1"/>
        <pt x="1067" y="1014" on="0"/>
        <pt x="1067" y="901" on="1"/>
        <pt x="1067" y="888" on="0"/>
        <pt x="1128" y="478" on="0"/>
        <pt x="1128" y="466" on="1"/>
        <pt x="1128" y="396" on="0"/>
        <pt x="1126" y="385" on="1"/>
        <pt x="1118" y="344" on="0"/>
        <pt x="1077" y="261" on="1"/>
        <pt x="1086" y="249" on="0"/>
        <pt x="1188" y="222" on="1"/>
        <pt x="1271" y="200" on="0"/>
      </contour>
      <contour>
        <pt x="1814" y="-276" on="1"/>
        <pt x="1814" y="-312" on="0"/>
        <pt x="1647" y="-388" on="1"/>
        <pt x="1506" y="-452" on="0"/>
        <pt x="1377" y="-491" on="1"/>
        <pt x="1363" y="-489" on="0"/>
        <pt x="1363" y="-466" on="1"/>
        <pt x="1363" y="-413" on="0"/>
        <pt x="1565" y="-329" on="1"/>
        <pt x="1708" y="-269" on="0"/>
        <pt x="1800" y="-245" on="1"/>
        <pt x="1814" y="-259" on="0"/>
      </contour>
    </TTGlyph>
</ttFont>
